<?xml version="1.0" standalone="no"?>
<!DOCTYPE svg PUBLIC "-//W3C//DTD SVG 1.1//EN" "http://www.w3.org/Graphics/SVG/1.1/DTD/svg11.dtd" >
<svg xmlns="http://www.w3.org/2000/svg">
<metadata></metadata>
<defs>
<font id="suecasans_regular" horiz-adv-x="1214" >
<font-face units-per-em="2048" ascent="1638" descent="-410" />
<missing-glyph horiz-adv-x="471" />
<glyph horiz-adv-x="2048" />
<glyph horiz-adv-x="2048" />
<glyph unicode="&#xd;" horiz-adv-x="2048" />
<glyph unicode=" "  horiz-adv-x="471" />
<glyph unicode="&#x09;" horiz-adv-x="471" />
<glyph unicode="&#xa0;" horiz-adv-x="471" />
<glyph unicode="!" horiz-adv-x="616" d="M197 94q0 111 110 111q113 0 113 -111q0 -50 -28 -80t-85 -30q-56 0 -83 30t-27 80zM201 1485h215l-47 -1110h-121z" />
<glyph unicode="&#x22;" horiz-adv-x="815" d="M147 1061v424h183v-137l-56 -287h-127zM485 1061v424h183v-137l-56 -287h-127z" />
<glyph unicode="#" horiz-adv-x="1181" d="M47 322l33 143h178l121 561h-197l31 143h193l65 322h127l-68 -322h301l68 322h125l-68 -322h183l-25 -143h-184l-121 -561h197l-29 -143h-197l-71 -336h-125l73 336h-303l-71 -336h-123l73 336h-186zM385 465h303l115 561h-301z" />
<glyph unicode="$" horiz-adv-x="1177" d="M115 39l28 154q80 -19 193 -35.5t194 -16.5q77 0 136 13t107.5 43t74.5 85t26 134q0 106 -52.5 166t-162.5 82l-196 41q-326 66 -326 356q0 182 101 280t280 123v205h144v-199q195 -3 348 -45l-35 -155q-216 49 -340 49q-318 0 -318 -244q0 -44 14.5 -78.5t34 -54.5 t52.5 -35.5t55 -22t57 -14.5l170 -36q193 -41 277 -140t84 -256q0 -191 -106.5 -303t-292.5 -139v-217h-144v209q-221 4 -403 51z" />
<glyph unicode="%" horiz-adv-x="1523" d="M100 1133q0 84 15 152.5t47.5 123t88 84t130.5 29.5q272 0 272 -367q0 -401 -276 -401q-277 0 -277 379zM248 1149q0 -141 30 -214t107 -73q71 0 97 70.5t26 208.5q0 140 -30 207t-101 67q-40 0 -66.5 -20.5t-39.5 -60t-18 -82.5t-5 -103zM291 18l858 1495l92 -49 l-856 -1489zM868 356q0 84 15 152.5t47.5 123t88 84t130.5 29.5q272 0 272 -366q0 -402 -276 -402q-277 0 -277 379zM1016 373q0 -141 30 -214t107 -73q71 0 97 70.5t26 208.5q0 140 -30 207t-101 67q-40 0 -66.5 -20.5t-39.5 -60t-18 -82.5t-5 -103z" />
<glyph unicode="&#x26;" horiz-adv-x="1478" d="M94 385q0 86 29.5 156.5t84.5 122.5t119 89t148 70q-73 86 -111 164.5t-38 169.5q0 47 12 92.5t42 92.5t75.5 82t119 57t166.5 22q179 0 286.5 -79.5t107.5 -225.5q0 -78 -30.5 -145.5t-85.5 -118.5t-121.5 -89.5t-147.5 -66.5l331 -360q86 150 113 313l162 -14 q-38 -228 -170 -414l272 -293v-8h-223l-162 172q-212 -199 -493 -199q-221 0 -353.5 118t-132.5 292zM274 420q0 -130 93.5 -212.5t248.5 -82.5q203 0 359 156l-381 413l-27 27q-293 -106 -293 -301zM500 1180q0 -82 37.5 -145.5t113.5 -147.5q71 26 119 49.5t95.5 59.5 t71.5 86.5t24 115.5q0 75 -60.5 126.5t-163.5 51.5q-117 0 -177 -61.5t-60 -134.5z" />
<glyph unicode="'" horiz-adv-x="477" d="M147 1061v424h183v-137l-56 -287h-127z" />
<glyph unicode="(" horiz-adv-x="704" d="M115 604q0 149 28 288t85 268t152.5 239t221.5 186l74 -84q-205 -181 -292 -392.5t-87 -494.5q0 -281 86 -509.5t283 -407.5l-76 -82q-159 106 -268 269t-158 344t-49 376z" />
<glyph unicode=")" horiz-adv-x="704" d="M29 1501l73 84q126 -76 221.5 -186t153 -239t85.5 -268t28 -288q0 -195 -49 -373.5t-157.5 -341t-268.5 -274.5l-76 82q198 179 283.5 407t85.5 510q0 284 -86.5 495t-292.5 392z" />
<glyph unicode="*" horiz-adv-x="901" d="M92 1249l68 109l231 -133l-6 284h135l-6 -284l231 133l64 -107l-244 -139l166 -246l-110 -65l-170 258l-170 -254l-111 63l166 244z" />
<glyph unicode="+" horiz-adv-x="1171" d="M96 604v146h418v436h145v-436h418v-146h-418v-444h-145v444h-418z" />
<glyph unicode="," horiz-adv-x="524" d="M143 -281l47 285l-30 195h200v-172l-96 -308h-121z" />
<glyph unicode="-" horiz-adv-x="702" d="M78 528v154h545v-154h-545z" />
<glyph unicode="." horiz-adv-x="524" d="M152 94q0 111 110 111q113 0 113 -111q0 -50 -28 -80t-85 -30q-56 0 -83 30t-27 80z" />
<glyph unicode="/" horiz-adv-x="692" d="M55 -358l418 1871l133 -22l-416 -1872z" />
<glyph unicode="0" horiz-adv-x="1241" d="M98 739q0 129 16.5 240t55.5 210t98.5 169t149 110.5t203.5 40.5q138 0 240 -52.5t163 -149.5t90 -223.5t29 -284.5q0 -824 -522 -824q-118 0 -210 41.5t-150 111t-95.5 169t-52.5 207.5t-15 235zM297 772q0 -80 3.5 -147t13.5 -136t26.5 -122.5t42.5 -101t61 -79 t84 -49.5t109 -18q73 0 128 36t88.5 95t53.5 145t27.5 173.5t7.5 193.5q0 135 -15.5 239t-51.5 189t-100.5 130.5t-156.5 45.5q-78 0 -135.5 -31t-92.5 -82.5t-56.5 -130.5t-29 -161.5t-7.5 -188.5z" />
<glyph unicode="1" horiz-adv-x="790" d="M109 1409l383 88h28v-1497h-182v1323l-211 -45z" />
<glyph unicode="2" horiz-adv-x="1126" d="M86 1444q202 65 434 65q228 0 361 -103.5t133 -307.5q0 -78 -15 -149.5t-40.5 -132t-66 -119.5t-85.5 -109.5t-105.5 -106t-119 -104t-132.5 -108.5q-80 -65 -122 -99v-10h682v-160h-899v152l260 229q67 60 111 100.5t96.5 94t85.5 94.5t66.5 93t51.5 99.5t29 103.5 t10 115q-2 119 -85 194t-240 75q-103 0 -204.5 -19.5t-166.5 -42.5z" />
<glyph unicode="3" horiz-adv-x="1146" d="M102 18l21 154q182 -37 375 -37q176 0 267 65t91 226q0 85 -42.5 144.5t-109.5 86.5t-151 27h-184v152h166q121 0 193.5 74.5t72.5 197.5q0 70 -30.5 119.5t-83 75t-110 36.5t-124.5 11q-55 0 -142 -11t-135 -22l-29 149q150 39 345 39q147 0 256.5 -39t176 -127.5 t66.5 -220.5q0 -128 -67 -220t-181 -120v-6q148 -27 227 -120.5t79 -225.5q0 -119 -41 -207.5t-116 -141t-172.5 -77.5t-219.5 -25q-214 0 -398 43z" />
<glyph unicode="4" horiz-adv-x="1165" d="M49 420v133l627 932h211v-926h225v-139h-225v-420h-172v420h-666zM209 559h506v762h-8q-7 -17 -28 -54t-28 -46z" />
<glyph unicode="5" horiz-adv-x="1150" d="M96 12l23 150q201 -33 366 -33q172 0 275.5 77t103.5 236q0 267 -405 267q-72 0 -134.5 -2.5t-96.5 -5.5t-38 -3l-12 15l33 772h793l-13 -162h-624l-21 -473q48 6 186 6q88 0 162 -11.5t142.5 -40t116.5 -73t76 -115t28 -161.5q0 -155 -74.5 -265t-200 -162.5 t-290.5 -52.5q-219 0 -396 37z" />
<glyph unicode="6" horiz-adv-x="1193" d="M98 684q0 145 17 262t61 222.5t113.5 177.5t179 115t254.5 46q74 1 165 -8.5t134 -21.5l-29 -150q-23 7 -105 17t-165 10q-95 0 -168.5 -30.5t-119 -80t-75.5 -122.5t-43 -148t-16 -166q2 1 21 12.5t25 15t26 14.5t30.5 15.5t32 14t37.5 14t40 11t45.5 9t48.5 5t55 2.5 q214 0 324 -110t110 -323q0 -240 -131.5 -376t-352.5 -136q-113 0 -202 38.5t-146.5 104t-95.5 158t-54 193t-16 215.5zM295 668q0 -46 1.5 -89.5t9.5 -101t21 -106t37 -97t56 -82.5t80.5 -55.5t107.5 -21.5q73 0 126.5 19.5t86 51t52 80.5t26 100t6.5 117 q0 150 -66.5 225.5t-213.5 75.5q-107 0 -201.5 -40t-128.5 -76z" />
<glyph unicode="7" horiz-adv-x="1085" d="M84 1325v160h952v-99l-639 -1386h-209l641 1325h-745z" />
<glyph unicode="8" horiz-adv-x="1198" d="M98 369q0 88 26.5 162t89 135t157.5 90q-248 96 -248 362q0 105 39.5 183t109 121.5t153 64t183.5 20.5q98 0 180 -21t147.5 -65.5t102.5 -121t37 -179.5q0 -270 -270 -364q145 -33 219 -132.5t76 -250.5q0 -88 -28 -157.5t-74.5 -114t-112.5 -73.5t-137.5 -41 t-153.5 -12q-83 0 -155 13.5t-135.5 43.5t-108.5 75t-71 112t-26 150zM287 391q0 -140 82.5 -206t228.5 -66q144 0 228.5 62.5t84.5 199.5q0 142 -88 225.5t-225 83.5q-64 0 -118.5 -17t-98.5 -51.5t-69 -93.5t-25 -137zM303 1114q0 -48 17 -97.5t49 -93.5t88.5 -72 t126.5 -28q126 0 217.5 79t91.5 204q0 127 -82 193.5t-215 66.5q-293 0 -293 -252z" />
<glyph unicode="9" horiz-adv-x="1193" d="M98 997q0 237 130.5 366.5t353.5 129.5q113 0 202 -38t146.5 -103t95.5 -156t54 -191.5t16 -216.5q0 -145 -17.5 -260.5t-61 -219.5t-113 -174.5t-179 -112.5t-254.5 -46q-76 -1 -167 7t-132 20l29 154q22 -7 103 -16t165 -9q95 0 168.5 29t120 77t77 119t43.5 145 t17 165q-50 -29 -85 -46t-112.5 -36t-165.5 -19q-214 0 -324 110t-110 322zM289 1001q0 -150 66.5 -225.5t213.5 -75.5q109 0 203.5 35.5t126.5 69.5q0 46 -1.5 89.5t-9.5 100.5t-21 105t-37 96t-56 82t-80.5 55t-107.5 21q-73 0 -126.5 -18t-86 -48t-52 -76.5t-26 -96 t-6.5 -114.5z" />
<glyph unicode=":" horiz-adv-x="524" d="M152 94q0 111 110 111q113 0 113 -111q0 -50 -28 -80t-85 -30q-56 0 -83 30t-27 80zM152 932q0 110 110 110q113 0 113 -110q0 -50 -28 -80.5t-85 -30.5q-56 0 -83 30.5t-27 80.5z" />
<glyph unicode=";" horiz-adv-x="524" d="M143 -281l47 285l-30 195h200v-172l-96 -308h-121zM152 932q0 110 110 110q113 0 113 -110q0 -50 -28 -80.5t-85 -30.5q-56 0 -83 30.5t-27 80.5z" />
<glyph unicode="&#x3c;" horiz-adv-x="1171" d="M143 637v94l809 486l76 -127l-674 -406l674 -405l-74 -125z" />
<glyph unicode="=" horiz-adv-x="1171" d="M106 401v144h961v-144h-961zM106 797v143h961v-143h-961z" />
<glyph unicode="&#x3e;" horiz-adv-x="1171" d="M143 279l672 405l-672 406l76 127l809 -486v-94l-811 -483z" />
<glyph unicode="?" horiz-adv-x="989" d="M129 1466q133 35 301 35q477 0 477 -368q0 -252 -196 -349l-150 -75q-67 -31 -67 -107v-225h-146v254q0 91 44 143t138 98l70 37q41 21 68 47t39.5 57t17 58.5t4.5 65.5q0 109 -78.5 162t-275.5 53q-91 0 -223 -23zM322 94q0 111 110 111q113 0 113 -111q0 -50 -28 -80 t-85 -30q-56 0 -83 30t-27 80z" />
<glyph unicode="@" horiz-adv-x="1964" d="M115 436q0 175 32 323.5t103.5 275t178.5 214.5t264 137.5t354 49.5q377 0 590.5 -189t213.5 -520q0 -143 -31.5 -271t-93 -232t-163.5 -165t-232 -61q-200 0 -229 207q-54 -98 -156.5 -160.5t-189.5 -62.5q-66 0 -116.5 32.5t-78 85t-40.5 109.5t-13 115 q0 87 13.5 173.5t40 173t71.5 160.5t103.5 131t140.5 90t178 33q82 0 162.5 -13.5t115.5 -35.5l-86 -751q0 -3 -1 -25t-1 -33q0 -26 4.5 -45t16.5 -38t39 -29.5t67 -10.5q83 0 153.5 57.5t115 148t69.5 198t25 213.5q0 296 -183.5 453t-513.5 157q-175 0 -313.5 -46.5 t-229.5 -126.5t-151.5 -193.5t-86.5 -240t-26 -273.5q0 -368 197 -537.5t582 -169.5q163 0 360 35l27 -94q-181 -45 -391 -45q-160 0 -294 27.5t-245.5 88t-189 152.5t-120 225.5t-42.5 302.5zM680 365q0 -35 1 -61t8 -65t18.5 -64t35 -43.5t56.5 -18.5q72 0 159 72t150 198 l61 559q-38 14 -106 14q-74 0 -134.5 -27.5t-101.5 -75.5t-70.5 -106.5t-45.5 -127t-23.5 -130.5t-7.5 -124z" />
<glyph unicode="A" horiz-adv-x="1374" d="M25 0l557 1491h217l551 -1491h-213l-162 444h-596l-162 -444h-192zM434 600h486l-205 602l-33 115h-4l-33 -119z" />
<glyph unicode="B" horiz-adv-x="1288" d="M188 0v1485h474q505 0 505 -367q0 -120 -65.5 -220.5t-177.5 -125.5v-10q132 -24 203 -117t71 -223q0 -213 -132.5 -317.5t-356.5 -104.5h-521zM381 154h313q63 0 114.5 12.5t96.5 41.5t70.5 84t25.5 132q0 128 -75 194t-209 66h-336v-530zM381 838h346q242 0 242 264 q-7 119 -94.5 173t-221.5 54h-272v-491z" />
<glyph unicode="C" horiz-adv-x="1253" d="M98 719q0 140 24.5 258t78 217.5t134 168.5t197 107.5t261.5 38.5q257 0 417 -51l-34 -158q-203 52 -371 52q-143 0 -242.5 -42t-155.5 -124t-80 -187t-24 -247q0 -321 118 -468t386 -147q179 0 356 47l25 -149q-190 -60 -397 -60q-358 0 -525.5 190t-167.5 554z" />
<glyph unicode="D" horiz-adv-x="1454" d="M186 0v1485h473q180 0 316.5 -53t220 -150t125 -226t41.5 -288q0 -368 -180 -568t-516 -200h-480zM381 147h274q137 0 235.5 43t156 125t84 189t26.5 246t-28 244.5t-89 183.5t-162.5 118.5t-242.5 40.5h-254v-1190z" />
<glyph unicode="E" d="M188 0v1485h928v-156h-735v-477h592v-156h-592v-540h741v-156h-934z" />
<glyph unicode="F" horiz-adv-x="1183" d="M188 0v1485h928v-156h-735v-477h592v-156h-592v-696h-193z" />
<glyph unicode="G" horiz-adv-x="1488" d="M98 723q0 369 190.5 577.5t542.5 208.5q268 0 480 -71l-45 -158q-76 26 -201.5 49t-228.5 23q-275 0 -404 -154.5t-129 -460.5q0 -303 120.5 -452.5t383.5 -149.5q164 0 317 35v412h-385v151h574v-680q-100 -37 -242.5 -57.5t-269.5 -20.5q-357 0 -530 193t-173 555z" />
<glyph unicode="H" horiz-adv-x="1554" d="M188 0v1485h193v-619h793v619h194v-1485h-194v705h-793v-705h-193z" />
<glyph unicode="I" horiz-adv-x="569" d="M188 0v1485h193v-1485h-193z" />
<glyph unicode="J" horiz-adv-x="598" d="M-100 -369l12 150q37 -6 100 -6q116 0 161.5 60.5t45.5 197.5l-2 1452h193v-1510q0 -68 -24 -131.5t-68.5 -114.5t-114.5 -81.5t-154 -30.5q-97 0 -149 14z" />
<glyph unicode="K" horiz-adv-x="1329" d="M188 0v1485h193v-682l661 682h232l-680 -688l711 -797h-244l-680 770v-770h-193z" />
<glyph unicode="L" horiz-adv-x="1191" d="M188 0v1485h193v-1329h741v-156h-934z" />
<glyph unicode="M" horiz-adv-x="1851" d="M188 0v1485h297l422 -1192l15 -72h6l14 72l418 1192h303v-1485h-182v1303l2 49h-4l-482 -1352h-163l-480 1356h-4l2 -53v-1303h-164z" />
<glyph unicode="N" horiz-adv-x="1515" d="M188 0v1485h232l661 -1049l74 -127h6l-10 238v938h176v-1487h-184l-713 1135l-70 120l-6 -2l8 -229v-1022h-174z" />
<glyph unicode="O" horiz-adv-x="1495" d="M98 731q0 373 173 575.5t487 202.5q144 0 257 -44t183.5 -115.5t116.5 -170t64 -198.5t18 -211q0 -140 -23 -258t-72.5 -217t-124 -168.5t-182 -108t-241.5 -38.5q-324 0 -490 191t-166 560zM303 729q0 -139 23 -244.5t74.5 -187t141 -124t214.5 -42.5q79 0 143 19 t108.5 51t78 79t53.5 97t32.5 112t16.5 117t4 119q0 74 -4.5 137t-17.5 129.5t-34.5 119t-56 100t-80.5 79t-111 50t-145 18.5q-104 0 -182 -32.5t-126.5 -87.5t-78.5 -137.5t-41.5 -171.5t-11.5 -200z" />
<glyph unicode="P" horiz-adv-x="1255" d="M188 0v1485h484q76 0 143 -12t131.5 -42.5t111 -78t75 -123t28.5 -172.5q0 -208 -132 -329.5t-370 -121.5h-278v-606h-193zM381 756h262q163 0 243.5 69.5t80.5 227.5q0 65 -18.5 114.5t-49.5 80t-78 49.5t-99 26.5t-118 7.5h-223v-575z" />
<glyph unicode="Q" horiz-adv-x="1495" d="M98 731q0 373 173 575.5t487 202.5q144 0 257 -44t183.5 -115.5t116.5 -170t64 -198.5t18 -211q0 -451 -230 -653l244 -332l-188 -49l-203 291q-115 -47 -266 -47q-324 0 -490 191t-166 560zM303 729q0 -139 23 -244.5t74.5 -187t141 -124t214.5 -42.5q79 0 143 19 t108.5 51t78 79t53.5 97t32.5 112t16.5 117t4 119q0 74 -4.5 137t-17.5 129.5t-34.5 119t-56 100t-80.5 79t-111 50t-145 18.5q-104 0 -182 -32.5t-126.5 -87.5t-78.5 -137.5t-41.5 -171.5t-11.5 -200z" />
<glyph unicode="R" horiz-adv-x="1302" d="M188 0v1485h478q77 0 144 -10t134.5 -38.5t115 -72.5t77.5 -118t30 -171q0 -180 -91 -279.5t-247 -131.5l420 -664h-225l-395 645h-248v-645h-193zM381 788h250q170 0 255 60t85 215q0 82 -27.5 136.5t-83 83t-121.5 39.5t-161 11h-197v-545z" />
<glyph unicode="S" horiz-adv-x="1175" d="M92 29l31 159q79 -20 198 -36.5t205 -16.5q80 0 141.5 13.5t112.5 44t78 87.5t27 138q0 108 -55.5 170.5t-170.5 87.5l-202 39q-340 69 -340 370q0 111 38.5 193.5t109 132.5t162.5 74t206 24q218 0 389 -47l-37 -164q-199 54 -348 54q-332 0 -332 -252q0 -46 15 -81.5 t35 -56t54.5 -36.5t57 -22.5t59.5 -14.5l176 -37q201 -43 288 -145.5t87 -266.5q0 -154 -70.5 -260t-191.5 -155.5t-285 -49.5q-219 0 -438 54z" />
<glyph unicode="T" horiz-adv-x="1239" d="M37 1331v156h1163v-156h-485v-1331h-193v1331h-485z" />
<glyph unicode="U" horiz-adv-x="1468" d="M168 449v1036h194v-996q0 -192 102 -274t292 -82q164 5 262 90t98 258v1004h184v-1014q0 -109 -36 -196.5t-92.5 -142t-132.5 -91.5t-150 -51.5t-150 -14.5q-97 0 -179.5 15t-156 50t-125 88.5t-81 135t-29.5 185.5z" />
<glyph unicode="V" horiz-adv-x="1314" d="M18 1485h207l414 -1153l31 -109h6l31 113l403 1149h186l-546 -1489h-177z" />
<glyph unicode="W" horiz-adv-x="1841" d="M43 1485h195l249 -1092q0 -1 14.5 -88t14.5 -88h4q0 1 14.5 88t14.5 88l285 1092h200l277 -1092q0 -2 15 -88.5t15 -87.5h7q0 1 13 87.5t13 88.5l248 1092h176l-362 -1499h-197l-285 1183q0 1 -11 64t-11 65h-8q0 -2 -12.5 -65t-12.5 -64l-291 -1183h-200z" />
<glyph unicode="X" horiz-adv-x="1286" d="M18 0l529 772l-455 713h219l357 -567l368 567h201l-475 -707l506 -778h-219l-410 631l-420 -631h-201z" />
<glyph unicode="Y" horiz-adv-x="1191" d="M27 1485h209l368 -709h2l371 709h188l-473 -864v-621h-198v618z" />
<glyph unicode="Z" horiz-adv-x="1271" d="M96 0v86l828 1251h-793v148h1045v-90l-826 -1248h826v-147h-1080z" />
<glyph unicode="[" horiz-adv-x="729" d="M217 -389v1876h465v-117h-295v-1642h295v-117h-465z" />
<glyph unicode="\" horiz-adv-x="692" d="M80 1491l133 22l418 -1871l-135 -23z" />
<glyph unicode="]" horiz-adv-x="729" d="M47 -272h295v1642h-295v117h465v-1876h-465v117z" />
<glyph unicode="^" horiz-adv-x="1171" d="M133 418l404 807h94l407 -805l-125 -53l-329 651l-324 -651z" />
<glyph unicode="_" horiz-adv-x="1024" d="M0 -152h1024v-116h-1024v116z" />
<glyph unicode="`" horiz-adv-x="657" d="M137 1507l189 47l209 -335l-134 -21z" />
<glyph unicode="a" horiz-adv-x="1134" d="M88 270q0 56 16 102t40.5 79.5t66 60.5t80 44t95 29.5t99.5 18.5t104.5 9.5t99 4t93.5 0.5v154q0 53 -18 87.5t-53 51t-72.5 22t-91.5 5.5q-68 0 -140.5 -14.5t-105.5 -25.5t-94 -34l-51 135q185 82 430 82q62 0 115 -8t102 -27.5t83 -50.5t54.5 -80t20.5 -112v-539 q0 -101 10 -264h-162l-12 125q-61 -66 -151.5 -108t-186.5 -42q-81 0 -146 15.5t-116.5 49.5t-80 92t-28.5 138zM270 303q0 -61 17 -101.5t50 -61t71 -28.5t90 -8q71 0 157 40.5t127 101.5v256h-18q-63 0 -96.5 -0.5t-94 -4t-95.5 -10.5t-80 -22t-69 -35.5t-41.5 -53 t-17.5 -73.5z" />
<glyph unicode="b" horiz-adv-x="1191" d="M182 31v1476h178v-501q41 31 125 53t160 22q98 0 178.5 -30t141.5 -91t95 -162t34 -235q0 -122 -33 -226t-98.5 -184.5t-172 -126.5t-243.5 -46q-87 0 -190 13.5t-175 37.5zM360 139q93 -22 213 -22q78 0 137.5 25t96 65.5t60 98.5t32 116.5t8.5 126.5q0 199 -74 296 t-237 97q-126 0 -236 -61v-742z" />
<glyph unicode="c" horiz-adv-x="1024" d="M98 508q0 131 30 234t92 180t164.5 118t240.5 41q84 0 173.5 -14t151.5 -39l-37 -141q-156 47 -301 47q-95 0 -161 -28t-102.5 -84t-52 -128.5t-15.5 -171.5q0 -213 84 -303t280 -90q130 0 277 39l24 -139q-155 -49 -334 -49q-264 0 -389 132t-125 396z" />
<glyph unicode="d" horiz-adv-x="1191" d="M98 508q0 117 33 218.5t96 180.5t165 124.5t231 45.5q109 0 208 -30v460h179v-1507h-164l-4 94q-53 -53 -137 -86t-162 -33q-206 0 -325.5 130.5t-119.5 402.5zM285 537q0 -216 75 -319t236 -103q50 0 100 17t73.5 31t61.5 40v712q-102 25 -206 25q-74 0 -133 -22.5 t-97.5 -60t-63.5 -90t-35.5 -109.5t-10.5 -121z" />
<glyph unicode="e" horiz-adv-x="1093" d="M98 522q0 93 16 174t52.5 152.5t91 122.5t137.5 80.5t187 29.5q198 0 306.5 -104.5t108.5 -308.5q0 -106 -14 -160h-702q0 -192 82.5 -286.5t283.5 -94.5q141 0 301 45l31 -129q-129 -63 -350 -63q-282 0 -406.5 130t-124.5 412zM285 637h536q1 20 1 40q0 119 -52 191 q-62 84 -207 84q-133 0 -204 -79.5t-74 -235.5z" />
<glyph unicode="f" horiz-adv-x="763" d="M70 924v137h190v160q0 152 75.5 230.5t244.5 78.5q101 0 194 -27l-37 -139q-102 25 -164 25q-60 0 -96.5 -33t-36.5 -101v-194h260v-137h-260v-924h-180v924h-190z" />
<glyph unicode="g" horiz-adv-x="1191" d="M98 508q0 120 33 222t97 180t165 122.5t230 44.5q120 0 231 -45l16 41h140v-1036q0 -120 -41.5 -209t-116 -141t-167 -76.5t-204.5 -24.5q-154 0 -266 19l10 151q152 -16 244 -16q185 0 273.5 74t88.5 233v51q-50 -38 -128 -63t-160 -25q-100 0 -179 27t-140 84 t-93.5 155t-32.5 232zM285 537q0 -200 72.5 -295t230.5 -95q57 0 113.5 16t76 26t53.5 30v696q-108 25 -213 25q-72 0 -129 -22.5t-94.5 -60t-62.5 -90t-36 -109.5t-11 -121z" />
<glyph unicode="h" d="M182 0v1507h178v-569q68 62 172.5 102.5t208.5 40.5q84 0 149 -23t108.5 -81t43.5 -146v-831h-178v776q0 83 -51.5 125.5t-138.5 42.5q-71 0 -159 -32.5t-155 -77.5v-834h-178z" />
<glyph unicode="i" horiz-adv-x="542" d="M160 1376q0 113 110 113q113 0 113 -113q0 -51 -27.5 -80.5t-85.5 -29.5q-56 0 -83 30t-27 80zM182 0v1061h178v-1061h-178z" />
<glyph unicode="j" horiz-adv-x="544" d="M-143 -399l24 143q120 -16 148 -16q102 0 134 60.5t32 205.5v1067h178v-1124q0 -55 -10.5 -105.5t-35 -97.5t-61 -81t-91.5 -54.5t-124 -20.5q-77 0 -194 23zM162 1376q0 113 110 113q113 0 113 -113q0 -50 -28 -80t-85 -30q-56 0 -83 30t-27 80z" />
<glyph unicode="k" horiz-adv-x="1060" d="M182 0v1507h178v-903l451 457h201l-459 -465l500 -596h-215l-478 592v-592h-178z" />
<glyph unicode="l" horiz-adv-x="542" d="M182 0v1507h178v-1507h-178z" />
<glyph unicode="m" horiz-adv-x="1888" d="M182 0v1061h164l6 -125q78 65 181.5 105t207.5 40q103 0 179.5 -36.5t105.5 -116.5q84 71 188 112t209 41q84 0 149 -23t108.5 -81t43.5 -146v-831h-178v774q0 85 -51.5 127.5t-138.5 42.5q-70 0 -155 -31.5t-159 -78.5v-834h-178v782q-3 80 -55 121t-135 41 q-70 0 -155 -31.5t-159 -78.5v-834h-178z" />
<glyph unicode="n" horiz-adv-x="1208" d="M182 0v1061h164l6 -125q78 65 181.5 105t207.5 40q132 0 216.5 -60.5t84.5 -189.5v-831h-178v774q0 85 -51.5 127.5t-138.5 42.5q-70 0 -155 -31.5t-159 -78.5v-834h-178z" />
<glyph unicode="o" horiz-adv-x="1155" d="M98 504q0 286 125 431.5t359 145.5q106 0 187.5 -26t136 -73t89 -116t49.5 -150t15 -181q0 -267 -123 -411t-356 -144t-357.5 130.5t-124.5 393.5zM287 520q0 -117 19.5 -197t59 -125.5t91.5 -65t123 -19.5q99 0 160 36.5t94.5 128t33.5 246.5q0 229 -66.5 326.5 t-228.5 97.5q-286 0 -286 -428z" />
<glyph unicode="p" horiz-adv-x="1191" d="M182 -393v1454h164l4 -94q125 114 295 114q449 0 449 -530q0 -119 -34 -221.5t-97.5 -181t-163.5 -123.5t-224 -45q-135 0 -215 30v-403h-178zM360 141q117 -24 213 -24q91 0 158.5 36.5t104.5 98.5t54 133.5t17 153.5q0 197 -72 300t-237 103q-68 0 -133.5 -27.5 t-104.5 -60.5v-713z" />
<glyph unicode="q" horiz-adv-x="1167" d="M98 514q0 93 19 175.5t60 154t100.5 123t145.5 81t191 29.5q68 0 120.5 -9t119.5 -36l23 41h133v-1466h-179v454q-46 -40 -126 -63t-158 -23q-205 0 -327 136.5t-122 402.5zM283 549q0 -97 16 -174.5t50 -136.5t91 -91t135 -32q150 0 256 59v727q-95 39 -223 39 q-82 0 -146 -32t-102 -87.5t-57.5 -124.5t-19.5 -147z" />
<glyph unicode="r" horiz-adv-x="827" d="M182 0v1061h164l6 -125q67 61 154.5 97t171.5 36q68 0 117 -8l-13 -152q-36 4 -98 4q-73 0 -164.5 -25t-159.5 -77v-811h-178z" />
<glyph unicode="s" horiz-adv-x="950" d="M90 12l31 142q57 -14 152 -28.5t163 -14.5q57 0 98.5 7t78.5 25.5t56 55t19 90.5q0 73 -33.5 107.5t-132.5 54.5l-192 41q-116 24 -174 93t-58 173q0 88 31 152.5t87.5 101t124.5 53t151 16.5q207 0 333 -37l-32 -143q-48 13 -136 27t-157 14q-48 0 -84.5 -6t-70.5 -22 t-52.5 -49t-18.5 -81q0 -73 32 -100.5t110 -42.5l188 -37q131 -27 195.5 -99.5t64.5 -199.5q0 -86 -30 -151.5t-85 -105.5t-128.5 -59.5t-163.5 -19.5q-225 0 -367 43z" />
<glyph unicode="t" horiz-adv-x="825" d="M59 922v139h201v299l178 33v-332h318v-139h-318v-646q0 -71 33.5 -108t97.5 -37q80 0 166 21l19 -136q-98 -36 -224 -36q-127 0 -198.5 69t-71.5 189v684h-201z" />
<glyph unicode="u" d="M172 229v832h178v-774q0 -85 52 -127.5t139 -42.5q70 0 154.5 31.5t158.5 78.5v834h178v-1061h-164l-6 125q-78 -65 -181.5 -105t-207.5 -40q-62 0 -114 13.5t-95 41.5t-67.5 77.5t-24.5 116.5z" />
<glyph unicode="v" horiz-adv-x="1032" d="M33 1061h188l277 -793l22 -92h6l23 92l280 793h170l-391 -1065h-190z" />
<glyph unicode="w" horiz-adv-x="1626" d="M39 1061h186l219 -766l25 -115h6l25 111l225 770h195l221 -760l26 -117h7l28 123l219 754h166l-332 -1061h-182l-233 797l-21 104h-4l-20 -104l-238 -797h-192z" />
<glyph unicode="x" horiz-adv-x="1005" d="M23 0l380 557l-344 504h203l256 -383l246 383h184l-346 -506l379 -555h-201l-288 430l-285 -430h-184z" />
<glyph unicode="y" horiz-adv-x="1024" d="M29 1061h194l293 -733l29 -95h4l22 95l254 733h170l-391 -1071q-82 -224 -186 -316t-252 -92q-58 0 -107 12l15 150q51 -6 92 -6q166 0 240 184l45 113z" />
<glyph unicode="z" horiz-adv-x="970" d="M78 0v70l555 845h-543l4 146h776v-78l-555 -844h588l-10 -139h-815z" />
<glyph unicode="{" horiz-adv-x="729" d="M117 543v123q39 7 69.5 39t30.5 88v557q0 65 34 99.5t97 37.5h334v-117h-246q-49 0 -49 -45v-537q0 -56 -34.5 -116t-76.5 -70l-2 -10q55 -16 84 -70t29 -166v-587q0 -24 10.5 -32.5t34.5 -8.5h250v-117h-322q-64 0 -103.5 34t-39.5 103v641q0 139 -100 154z" />
<glyph unicode="|" horiz-adv-x="737" d="M299 -190v1693h139v-1693h-139z" />
<glyph unicode="}" horiz-adv-x="729" d="M47 -272h250q24 0 34.5 8.5t10.5 32.5v587q0 112 29 166t84 70l-2 10q-41 10 -76 70.5t-35 115.5v537q0 45 -49 45h-246v117h334q63 -3 97 -37.5t34 -99.5v-557q0 -56 30.5 -88t69.5 -39v-123q-100 -15 -100 -154v-641q0 -69 -39.5 -103t-103.5 -34h-322v117z" />
<glyph unicode="~" horiz-adv-x="1171" d="M129 485q6 83 33.5 145.5t67 95.5t80 49t79.5 16q50 0 98 -19t86 -45.5t73 -53.5t73.5 -46t73.5 -19q47 0 76 34t32 136h133q-1 -68 -17.5 -122.5t-42 -88t-60 -55.5t-67.5 -30.5t-67 -8.5q-50 0 -97 19t-84 46t-72 54t-74 46t-76 19q-49 0 -80.5 -42.5t-38.5 -129.5 h-129z" />
<glyph unicode="&#xa1;" horiz-adv-x="616" d="M195 995q0 50 27.5 80.5t84.5 30.5q56 0 83.5 -30.5t27.5 -80.5q0 -110 -111 -110q-112 0 -112 110zM199 -395l45 1108h123l45 -1108h-213z" />
<glyph unicode="&#xa2;" horiz-adv-x="1024" d="M98 539q0 247 108 396t337 173v227h143v-225q167 -11 264 -51l-37 -141q-156 47 -301 47q-95 0 -161 -28t-102.5 -84t-52 -128.5t-15.5 -171.5q0 -213 84 -303t280 -90q130 0 277 39l24 -140q-123 -38 -260 -47v-215h-143v215q-228 17 -336.5 148.5t-108.5 378.5z" />
<glyph unicode="&#xa3;" horiz-adv-x="1101" d="M102 0v141h203q68 105 68 240q0 51 -10.5 115t-20 102.5t-31.5 118.5h-207v129h175q-37 155 -37 260q0 118 47.5 213.5t147 155t237.5 59.5q181 0 352 -47l-31 -144q-191 50 -315 50q-133 0 -196.5 -75t-63.5 -200q0 -96 45 -272h446v-129h-411q49 -192 49 -322 q0 -147 -66 -254h570l-25 -141h-926z" />
<glyph unicode="&#xa4;" horiz-adv-x="1150" d="M150 381l114 113q-76 107 -76 233q0 121 76 231l-114 113l75 76l115 -115q102 82 235 82t236 -80l115 113l73 -76l-112 -113q76 -107 76 -231q0 -133 -78 -233l114 -115l-75 -74l-115 113q-107 -80 -234 -80q-130 0 -235 82l-115 -115zM317 727q0 -118 70 -200.5 t188 -82.5q126 0 193.5 81.5t67.5 201.5q0 119 -70 202t-191 83q-124 0 -191 -82.5t-67 -202.5z" />
<glyph unicode="&#xa5;" horiz-adv-x="1191" d="M27 1485h209l368 -709h2l371 709h188l-473 -864v-19h383v-141h-383v-461h-198v461h-379v141h379v16z" />
<glyph unicode="&#xa7;" horiz-adv-x="1056" d="M141 -115l33 144q57 -14 151.5 -28.5t163.5 -14.5q46 0 80 3.5t68.5 13.5t56.5 28t35.5 49t13.5 74q0 74 -34 112t-131 62l-185 45q-118 27 -182 102.5t-64 179.5q0 192 191 273q-91 28 -136.5 93t-45.5 155q0 72 21.5 128.5t57.5 93t87.5 61t108 34.5t122.5 10 q210 0 334 -39l-35 -145q-48 13 -135.5 27t-157.5 14q-48 0 -84.5 -6t-70.5 -22t-52 -49t-18 -81q0 -73 31 -99.5t110 -43.5l189 -47q131 -31 197.5 -107.5t70.5 -204.5q0 -87 -40.5 -155t-111.5 -109q137 -65 146 -256q0 -170 -114 -255t-302 -85q-220 0 -369 45zM324 678 q0 -131 198 -172l103 -21q129 53 129 189q0 39 -8.5 66.5t-32.5 54t-70.5 46.5t-118.5 36q-85 -3 -142.5 -54.5t-57.5 -144.5z" />
<glyph unicode="&#xa8;" horiz-adv-x="823" d="M80 1376q0 109 110 109q109 0 109 -109q0 -49 -26.5 -78.5t-82.5 -29.5t-83 29.5t-27 78.5zM522 1376q0 50 26 79.5t83 29.5q110 0 110 -109q0 -49 -26.5 -78.5t-83.5 -29.5q-54 0 -81.5 30t-27.5 78z" />
<glyph unicode="&#xa9;" horiz-adv-x="1810" d="M115 750q0 107 24.5 209t83.5 202.5t146.5 175.5t226 121.5t309.5 46.5q131 0 241.5 -24t190.5 -64.5t143 -98.5t103 -123t66 -141t36.5 -148.5t10.5 -149.5q0 -87 -8.5 -165.5t-31.5 -164t-59 -156.5t-95 -136.5t-136 -111t-186 -72t-240 -26.5q-149 0 -271 26.5 t-206.5 70.5t-148 110t-101 135.5t-60 155.5t-30.5 163t-8 165zM242 721q0 -77 6.5 -142.5t26 -138.5t52 -131t86.5 -112.5t127 -91t177.5 -58.5t232.5 -22q112 0 204 23.5t155 61.5t110 95t74.5 116t44 132t22 135.5t5.5 134.5q0 103 -15 192.5t-59 182.5t-114 159 t-189 108t-275 42q-120 0 -219 -24t-167 -64t-120.5 -97t-83 -116.5t-49.5 -130t-25.5 -130.5t-6.5 -124zM434 713q0 243 126.5 384.5t381.5 141.5q179 0 303 -35l-28 -131q-31 9 -110.5 21t-152.5 12q-186 0 -261 -93.5t-75 -275.5q0 -202 79.5 -293.5t263.5 -91.5 q121 0 249 31l21 -123q-134 -41 -291 -41q-506 0 -506 494z" />
<glyph unicode="&#xaa;" horiz-adv-x="792" d="M121 1032q0 41 14.5 73.5t37 53.5t58 36.5t68 23t77.5 12t75.5 5.5t72.5 1v82q0 26 -11.5 43t-33 24.5t-41.5 10t-47 2.5q-81 0 -198 -41l-37 100q118 49 276 49q107 0 171.5 -44t64.5 -142v-256q0 -91 6 -199h-133l-6 78q-33 -39 -89.5 -63.5t-111.5 -24.5 q-97 0 -155 44t-58 132zM129 590v123h535v-123h-535zM260 1055q0 -53 31 -79t80 -26q33 0 82.5 21.5t70.5 48.5v137q-51 0 -89.5 -3t-82.5 -12.5t-68 -31.5t-24 -55z" />
<glyph unicode="&#xab;" horiz-adv-x="1118" d="M90 602v113l377 317l88 -94l-272 -274l274 -304l-86 -81zM559 602v113l377 317l88 -94l-272 -274l274 -304l-86 -81z" />
<glyph unicode="&#xac;" horiz-adv-x="1165" d="M109 608v137h948v-460h-150v323h-798z" />
<glyph unicode="&#xad;" horiz-adv-x="702" d="M78 528v154h545v-154h-545z" />
<glyph unicode="&#xae;" horiz-adv-x="989" d="M86 1112q0 54 12.5 106.5t42.5 104t75 90t115.5 62.5t157.5 24q89 0 161 -23t118.5 -60.5t77.5 -88t44 -102.5t13 -107q0 -62 -11 -119t-40 -114.5t-72.5 -99.5t-114 -68.5t-159.5 -26.5q-99 0 -175 25.5t-121 66.5t-74 98t-39.5 113t-10.5 119zM174 1098q0 -52 7 -95 t29 -88t57 -75.5t95.5 -50t141.5 -19.5q73 0 129 21t89.5 54t55 78t29.5 88.5t8 90.5q0 60 -15 112.5t-49.5 101t-100 77t-156.5 28.5q-79 0 -138.5 -21.5t-93 -54.5t-54.5 -78.5t-27.5 -85t-6.5 -83.5zM332 877v454h164q180 0 180 -137q0 -54 -27 -89t-74 -44l121 -184 h-104l-103 174h-65v-174h-92zM424 1114h72q88 0 88 76q0 41 -26.5 56.5t-74.5 15.5h-59v-148z" />
<glyph unicode="&#xaf;" horiz-adv-x="798" d="M90 1274v137h619v-137h-619z" />
<glyph unicode="&#xb0;" horiz-adv-x="632" d="M100 1323q0 89 60 153t153 64q103 0 160 -58t57 -145q0 -92 -61.5 -155.5t-155.5 -63.5q-105 0 -159 61.5t-54 143.5zM205 1331q0 -49 27.5 -85t78.5 -36q59 0 88 35t29 86q0 47 -29 82t-86 35q-50 0 -79 -35t-29 -82z" />
<glyph unicode="&#xb1;" horiz-adv-x="1171" d="M96 772v146h418v436h145v-436h418v-146h-418v-444h-145v444h-418zM106 -6v145h961v-145h-961z" />
<glyph unicode="&#xb4;" horiz-adv-x="657" d="M145 1219l209 335l187 -47l-265 -309z" />
<glyph unicode="&#xb5;" horiz-adv-x="1196" d="M172 -31v1088h178v-754q0 -186 189 -186q47 0 95 11t95 33t67 33t56 33v830h178v-854q0 -72 51 -72q22 0 47 6v-131q-56 -20 -116 -20q-62 0 -97.5 42.5t-44.5 102.5q-36 -50 -136 -100.5t-210 -50.5q-59 0 -107 28t-69 80h-8l2 -55q0 -278 35 -490l-174 -20 q-27 135 -31 446z" />
<glyph unicode="&#xb6;" horiz-adv-x="1230" d="M102 934q0 153 37 261.5t110.5 172.5t171.5 92.5t230 28.5h551v-129h-186v-1690h-133v1690h-213v-1690h-142v789q-212 1 -319 125.5t-107 349.5z" />
<glyph unicode="&#xb7;" horiz-adv-x="485" d="M166 754q0 112 110 112q113 0 113 -112q0 -49 -28 -79t-85 -30q-56 0 -83 30t-27 79z" />
<glyph unicode="&#xb8;" horiz-adv-x="655" d="M84 -436l12 102q78 -12 160 -12q131 0 131 84q0 25 -18.5 44.5t-49.5 29.5t-60.5 15t-61.5 7l-9 6l70 168h96l-39 -100q105 -9 166.5 -50.5t61.5 -113.5q0 -95 -77 -147t-192 -52q-120 0 -190 19z" />
<glyph unicode="&#xba;" horiz-adv-x="792" d="M115 1176q0 162 73 249.5t209 87.5q145 0 214 -84t69 -231q0 -336 -283 -336q-143 0 -212.5 77.5t-69.5 236.5zM131 590v123h535v-123h-535zM258 1182q0 -124 32.5 -171.5t106.5 -47.5q76 0 109 50.5t33 170.5q0 125 -30.5 177t-113.5 52q-40 0 -68 -17t-42.5 -49.5 t-20.5 -72t-6 -92.5z" />
<glyph unicode="&#xbb;" horiz-adv-x="1118" d="M90 360l275 304l-271 274l86 94l377 -317v-113l-381 -323zM559 360l275 304l-271 274l86 94l377 -317v-113l-381 -323z" />
<glyph unicode="&#xbc;" horiz-adv-x="1507" d="M129 1454l219 49h23v-737h-140v610l-96 -14zM203 18l858 1495l92 -49l-856 -1489zM817 180v103l307 458h158v-454h96v-107h-96v-180h-133v180h-332zM934 287h215v317h-4l-27 -49z" />
<glyph unicode="&#xbd;" horiz-adv-x="1507" d="M141 1454l219 49h23v-737h-139v610l-97 -14zM197 18l858 1495l92 -49l-856 -1489zM864 719q121 33 236 33t188.5 -48.5t73.5 -158.5q0 -43 -17 -86.5t-39.5 -76.5t-63.5 -74t-70 -65.5t-79.5 -65.5t-72.5 -60h342v-117h-488v117q32 31 81.5 75.5t80.5 73t68.5 67.5 t59 68.5t36 65t14.5 68.5q0 49 -34.5 73.5t-94.5 24.5q-92 0 -196 -29z" />
<glyph unicode="&#xbe;" horiz-adv-x="1507" d="M109 764l16 115q98 -19 186 -19q74 0 112 24.5t38 84.5q0 49 -32.5 73.5t-86.5 24.5h-98v109h84q52 0 84 28.5t32 77.5q0 51 -41.5 72.5t-101.5 21.5q-68 0 -156 -18l-22 110q103 25 201 25q114 0 189 -47.5t75 -149.5q0 -64 -35 -106.5t-92 -54.5v-5q68 -14 107.5 -58.5 t39.5 -110.5q0 -60 -24 -104t-66 -68.5t-92 -36t-109 -11.5q-111 0 -208 23zM281 18l858 1495l92 -49l-856 -1489zM842 180v103l307 458h158v-454h96v-107h-96v-180h-133v180h-332zM958 287h216v317h-5l-26 -49z" />
<glyph unicode="&#xbf;" horiz-adv-x="989" d="M131 -27q0 253 197 349l149 75q68 31 68 107v225h145v-254q0 -50 -11.5 -87t-38 -65.5t-55.5 -48t-77 -43.5l-70 -34q-41 -21 -68 -47t-39.5 -57t-17 -58.5t-4.5 -65.5q0 -109 79 -162t274 -53q58 0 131 8.5t92 14.5l24 -139q-125 -33 -301 -33q-477 0 -477 368z M494 1012q0 110 112 110q56 0 83.5 -30t27.5 -80q0 -113 -111 -113q-112 0 -112 113z" />
<glyph unicode="&#xc0;" horiz-adv-x="1374" d="M25 0l557 1491h217l551 -1491h-213l-162 444h-596l-162 -444h-192zM311 1778l107 164l375 -263l-60 -84zM434 600h486l-205 602l-33 115h-4l-33 -119z" />
<glyph unicode="&#xc1;" horiz-adv-x="1374" d="M25 0l557 1491h217l551 -1491h-213l-162 444h-596l-162 -444h-192zM434 600h486l-205 602l-33 115h-4l-33 -119zM629 1679l375 263l106 -164l-422 -183z" />
<glyph unicode="&#xc2;" horiz-adv-x="1374" d="M25 0l557 1491h217l551 -1491h-213l-162 444h-596l-162 -444h-192zM360 1661l240 246h160l248 -246l-84 -82l-242 188l-242 -188zM434 600h486l-205 602l-33 115h-4l-33 -119z" />
<glyph unicode="&#xc3;" horiz-adv-x="1374" d="M25 0l557 1491h217l551 -1491h-213l-162 444h-596l-162 -444h-192zM303 1667q25 102 84.5 150.5t138.5 48.5q55 0 166.5 -22.5t161.5 -22.5q21 0 35.5 4.5t24.5 17t14.5 20.5t13.5 29l125 -32q-15 -84 -73 -137.5t-136 -53.5q-52 0 -170 24.5t-168 24.5q-21 0 -36 -6 t-27 -21t-15.5 -21.5t-13.5 -27.5zM434 600h486l-205 602l-33 115h-4l-33 -119z" />
<glyph unicode="&#xc4;" horiz-adv-x="1374" d="M25 0l557 1491h217l551 -1491h-213l-162 444h-596l-162 -444h-192zM354 1733q0 110 111 110q108 0 108 -110q0 -49 -26 -78t-82 -29t-83.5 29.5t-27.5 77.5zM434 600h486l-205 602l-33 115h-4l-33 -119zM801 1733q0 110 108 110q109 0 109 -110q0 -49 -26.5 -78 t-82.5 -29t-82 29t-26 78z" />
<glyph unicode="&#xc5;" horiz-adv-x="1374" d="M25 0l557 1491h217l551 -1491h-213l-162 444h-596l-162 -444h-192zM434 600h486l-205 602l-33 115h-4l-33 -119zM483 1776q0 87 58 148t147 61q98 0 151.5 -56.5t53.5 -140.5q0 -88 -59.5 -146.5t-145.5 -58.5q-96 0 -150.5 57t-54.5 136zM580 1784q0 -52 29.5 -86.5 t78.5 -34.5q55 0 83 33.5t28 85.5t-25.5 87.5t-85.5 35.5q-55 0 -81.5 -33.5t-26.5 -87.5z" />
<glyph unicode="&#xc6;" horiz-adv-x="1812" d="M8 0l664 1485h1036v-156h-745l71 -475h535v-156h-510l78 -542h581v-156h-751l-62 414h-518l-182 -414h-197zM453 565h430l-109 738h-4z" />
<glyph unicode="&#xc7;" horiz-adv-x="1253" d="M98 719q0 140 24.5 258t78 217.5t134 168.5t197 107.5t261.5 38.5q257 0 417 -51l-34 -158q-203 52 -371 52q-143 0 -242.5 -42t-155.5 -124t-80 -187t-24 -247q0 -321 118 -468t386 -147q179 0 356 47l25 -149q-172 -55 -367 -60l-26 -67q105 -9 166 -50.5t61 -113.5 q0 -95 -76.5 -147t-191.5 -52q-121 0 -191 19l12 102q78 -12 160 -12q131 0 131 84q0 25 -18.5 44.5t-49.5 29.5t-60.5 15t-61.5 7l-8 6l55 137q-322 17 -473.5 205.5t-151.5 536.5z" />
<glyph unicode="&#xc8;" d="M188 0v1485h928v-156h-735v-477h592v-156h-592v-540h741v-156h-934zM330 1778l106 164l375 -263l-59 -84z" />
<glyph unicode="&#xc9;" d="M188 0v1485h928v-156h-735v-477h592v-156h-592v-540h741v-156h-934zM571 1679l375 263l107 -164l-422 -183z" />
<glyph unicode="&#xca;" d="M188 0v1485h928v-156h-735v-477h592v-156h-592v-540h741v-156h-934zM369 1661l239 246h160l248 -246l-84 -82l-242 188l-241 -188z" />
<glyph unicode="&#xcb;" d="M188 0v1485h928v-156h-735v-477h592v-156h-592v-540h741v-156h-934zM328 1733q0 110 110 110q109 0 109 -110q0 -49 -26.5 -78t-82.5 -29t-83 29t-27 78zM774 1733q0 110 109 110q108 0 108 -110q0 -49 -26 -78t-82 -29t-82.5 29t-26.5 78z" />
<glyph unicode="&#xcc;" horiz-adv-x="569" d="M-94 1778l106 164l375 -263l-59 -84zM188 0v1485h193v-1485h-193z" />
<glyph unicode="&#xcd;" horiz-adv-x="569" d="M188 0v1485h193v-1485h-193zM207 1679l375 263l106 -164l-422 -183z" />
<glyph unicode="&#xce;" horiz-adv-x="569" d="M-39 1661l240 246h159l248 -246l-84 -82l-241 188l-242 -188zM188 0v1485h193v-1485h-193z" />
<glyph unicode="&#xcf;" horiz-adv-x="569" d="M-47 1733q0 110 110 110q109 0 109 -110q0 -49 -26.5 -78t-82.5 -29t-83 29t-27 78zM188 0v1485h193v-1485h-193zM399 1733q0 110 109 110q108 0 108 -110q0 -49 -26 -78t-82 -29t-82.5 29t-26.5 78z" />
<glyph unicode="&#xd0;" horiz-adv-x="1538" d="M96 700v131h174v654h473q180 0 316.5 -53t220 -150t125 -226t41.5 -288q0 -368 -180 -568t-516 -200h-480v700h-174zM465 147h274q137 0 235.5 43t156 125t84 189t26.5 246t-28 244.5t-89 183.5t-162.5 118.5t-242.5 40.5h-254v-506h391v-131h-391v-553z" />
<glyph unicode="&#xd1;" horiz-adv-x="1515" d="M188 0v1485h232l661 -1049l74 -127h6l-10 238v938h176v-1487h-184l-713 1135l-70 120l-6 -2l8 -229v-1022h-174zM410 1667q25 102 84.5 150.5t138.5 48.5q55 0 166.5 -22.5t161.5 -22.5q21 0 35.5 4.5t24.5 17t14.5 20.5t13.5 29l125 -32q-15 -84 -73 -137.5t-136 -53.5 q-53 0 -171 24.5t-167 24.5q-21 0 -36 -6t-27 -21t-15.5 -21.5t-13.5 -27.5z" />
<glyph unicode="&#xd2;" horiz-adv-x="1495" d="M98 731q0 373 173 575.5t487 202.5q144 0 257 -44t183.5 -115.5t116.5 -170t64 -198.5t18 -211q0 -140 -23 -258t-72.5 -217t-124 -168.5t-182 -108t-241.5 -38.5q-324 0 -490 191t-166 560zM303 729q0 -139 23 -244.5t74.5 -187t141 -124t214.5 -42.5q79 0 143 19 t108.5 51t78 79t53.5 97t32.5 112t16.5 117t4 119q0 74 -4.5 137t-17.5 129.5t-34.5 119t-56 100t-80.5 79t-111 50t-145 18.5q-104 0 -182 -32.5t-126.5 -87.5t-78.5 -137.5t-41.5 -171.5t-11.5 -200zM414 1778l106 164l375 -263l-59 -84z" />
<glyph unicode="&#xd3;" horiz-adv-x="1495" d="M98 731q0 373 173 575.5t487 202.5q144 0 257 -44t183.5 -115.5t116.5 -170t64 -198.5t18 -211q0 -140 -23 -258t-72.5 -217t-124 -168.5t-182 -108t-241.5 -38.5q-324 0 -490 191t-166 560zM303 729q0 -139 23 -244.5t74.5 -187t141 -124t214.5 -42.5q79 0 143 19 t108.5 51t78 79t53.5 97t32.5 112t16.5 117t4 119q0 74 -4.5 137t-17.5 129.5t-34.5 119t-56 100t-80.5 79t-111 50t-145 18.5q-104 0 -182 -32.5t-126.5 -87.5t-78.5 -137.5t-41.5 -171.5t-11.5 -200zM666 1679l374 263l107 -164l-422 -183z" />
<glyph unicode="&#xd4;" horiz-adv-x="1495" d="M98 731q0 373 173 575.5t487 202.5q144 0 257 -44t183.5 -115.5t116.5 -170t64 -198.5t18 -211q0 -140 -23 -258t-72.5 -217t-124 -168.5t-182 -108t-241.5 -38.5q-324 0 -490 191t-166 560zM303 729q0 -139 23 -244.5t74.5 -187t141 -124t214.5 -42.5q79 0 143 19 t108.5 51t78 79t53.5 97t32.5 112t16.5 117t4 119q0 74 -4.5 137t-17.5 129.5t-34.5 119t-56 100t-80.5 79t-111 50t-145 18.5q-104 0 -182 -32.5t-126.5 -87.5t-78.5 -137.5t-41.5 -171.5t-11.5 -200zM430 1661l240 246h159l248 -246l-84 -82l-241 188l-242 -188z" />
<glyph unicode="&#xd5;" horiz-adv-x="1495" d="M98 731q0 373 173 575.5t487 202.5q144 0 257 -44t183.5 -115.5t116.5 -170t64 -198.5t18 -211q0 -140 -23 -258t-72.5 -217t-124 -168.5t-182 -108t-241.5 -38.5q-324 0 -490 191t-166 560zM303 729q0 -139 23 -244.5t74.5 -187t141 -124t214.5 -42.5q79 0 143 19 t108.5 51t78 79t53.5 97t32.5 112t16.5 117t4 119q0 74 -4.5 137t-17.5 129.5t-34.5 119t-56 100t-80.5 79t-111 50t-145 18.5q-104 0 -182 -32.5t-126.5 -87.5t-78.5 -137.5t-41.5 -171.5t-11.5 -200zM365 1667q25 102 84.5 150.5t138.5 48.5q55 0 166 -22.5t161 -22.5 q28 0 46 11t24.5 22t18.5 38l124 -32q-15 -84 -73 -137.5t-135 -53.5q-53 0 -171 24.5t-167 24.5q-21 0 -36.5 -6t-27 -21t-16 -22.5t-13.5 -26.5z" />
<glyph unicode="&#xd6;" horiz-adv-x="1495" d="M98 731q0 373 173 575.5t487 202.5q144 0 257 -44t183.5 -115.5t116.5 -170t64 -198.5t18 -211q0 -140 -23 -258t-72.5 -217t-124 -168.5t-182 -108t-241.5 -38.5q-324 0 -490 191t-166 560zM303 729q0 -139 23 -244.5t74.5 -187t141 -124t214.5 -42.5q79 0 143 19 t108.5 51t78 79t53.5 97t32.5 112t16.5 117t4 119q0 74 -4.5 137t-17.5 129.5t-34.5 119t-56 100t-80.5 79t-111 50t-145 18.5q-104 0 -182 -32.5t-126.5 -87.5t-78.5 -137.5t-41.5 -171.5t-11.5 -200zM414 1733q0 110 110 110q109 0 109 -110q0 -49 -26.5 -78t-82.5 -29 t-83 29t-27 78zM860 1733q0 110 109 110q108 0 108 -110q0 -49 -26 -78t-82 -29t-82.5 29t-26.5 78z" />
<glyph unicode="&#xd7;" horiz-adv-x="1171" d="M174 362l315 326l-311 322l103 104l307 -319l305 317l102 -106l-307 -316l311 -323l-98 -103l-313 320l-314 -328z" />
<glyph unicode="&#xd8;" horiz-adv-x="1495" d="M98 731q0 373 173 575.5t487 202.5q128 0 229 -34l64 163l108 -34l-67 -174q83 -48 144 -122.5t95 -164t50 -182t16 -191.5q0 -140 -23 -258t-72.5 -217t-124 -168.5t-182 -108t-241.5 -38.5q-118 0 -217 24l-66 -166l-111 35l68 172q-330 160 -330 686zM303 729 q0 -394 186 -524l439 1120q-84 33 -185 33q-104 0 -182 -32.5t-126.5 -87.5t-78.5 -137.5t-41.5 -171.5t-11.5 -200zM594 154q77 -23 162 -23q79 0 143 19t108.5 51t78 79t53.5 97t32.5 112t16.5 117t4 119q0 399 -164 541z" />
<glyph unicode="&#xd9;" horiz-adv-x="1468" d="M168 449v1036h194v-996q0 -192 102 -274t292 -82q164 5 262 90t98 258v1004h184v-1014q0 -109 -36 -196.5t-92.5 -142t-132.5 -91.5t-150 -51.5t-150 -14.5q-97 0 -179.5 15t-156 50t-125 88.5t-81 135t-29.5 185.5zM391 1778l107 164l374 -263l-59 -84z" />
<glyph unicode="&#xda;" horiz-adv-x="1468" d="M168 449v1036h194v-996q0 -192 102 -274t292 -82q164 5 262 90t98 258v1004h184v-1014q0 -109 -36 -196.5t-92.5 -142t-132.5 -91.5t-150 -51.5t-150 -14.5q-97 0 -179.5 15t-156 50t-125 88.5t-81 135t-29.5 185.5zM680 1679l375 263l106 -164l-422 -183z" />
<glyph unicode="&#xdb;" horiz-adv-x="1468" d="M168 449v1036h194v-996q0 -192 102 -274t292 -82q164 5 262 90t98 258v1004h184v-1014q0 -109 -36 -196.5t-92.5 -142t-132.5 -91.5t-150 -51.5t-150 -14.5q-97 0 -179.5 15t-156 50t-125 88.5t-81 135t-29.5 185.5zM457 1661l239 246h160l248 -246l-84 -82l-242 188 l-241 -188z" />
<glyph unicode="&#xdc;" horiz-adv-x="1468" d="M168 449v1036h194v-996q0 -192 102 -274t292 -82q164 5 262 90t98 258v1004h184v-1014q0 -109 -36 -196.5t-92.5 -142t-132.5 -91.5t-150 -51.5t-150 -14.5q-97 0 -179.5 15t-156 50t-125 88.5t-81 135t-29.5 185.5zM408 1733q0 110 110 110q109 0 109 -110 q0 -49 -26.5 -78t-82.5 -29t-83 29t-27 78zM854 1733q0 110 109 110q108 0 108 -110q0 -49 -26 -78t-82 -29t-82.5 29t-26.5 78z" />
<glyph unicode="&#xdd;" horiz-adv-x="1191" d="M27 1485h209l368 -709h2l371 709h188l-473 -864v-621h-198v618zM551 1679l375 263l106 -164l-422 -183z" />
<glyph unicode="&#xde;" horiz-adv-x="1255" d="M188 0v1485h193v-262h291q75 0 142.5 -12.5t132 -43t111 -78t75 -123t28.5 -171.5q0 -208 -132 -329.5t-370 -121.5h-278v-344h-193zM381 494h262q163 0 243.5 69.5t80.5 227.5q0 65 -18.5 114.5t-49.5 80t-78 49.5t-99 26.5t-118 7.5h-223v-575z" />
<glyph unicode="&#xdf;" horiz-adv-x="1447" d="M70 924v137h192q5 225 142.5 350t381.5 125q108 0 191 -24.5t132 -67t73 -95t24 -112.5q0 -46 -14.5 -88.5t-35.5 -74.5t-58.5 -67t-69 -58.5t-80.5 -57.5l-88 -64q-38 -26 -55 -48t-17 -48q0 -10 3 -19t7 -16t12.5 -13.5t15 -10.5t18.5 -9t19 -7.5t21 -6t19.5 -4.5 t20.5 -4t18 -4l137 -29q138 -29 210.5 -96.5t72.5 -189.5q0 -172 -110.5 -262.5t-293.5 -90.5q-226 0 -368 43l31 142q187 -43 315 -43q250 0 250 174q0 72 -39.5 110t-140.5 58l-127 28q-41 8 -73 17t-69.5 26t-62 39t-41.5 57t-17 78q0 73 50 136t143 133q101 75 131 105 q76 75 76 151q0 83 -69.5 129.5t-192.5 46.5q-67 0 -121 -16.5t-99 -53.5t-69.5 -104t-24.5 -160v-1065h-180v924h-190z" />
<glyph unicode="&#xe0;" horiz-adv-x="1134" d="M88 270q0 56 16 102t40.5 79.5t66 60.5t80 44t95 29.5t99.5 18.5t104.5 9.5t99 4t93.5 0.5v154q0 53 -18 87.5t-53 51t-72.5 22t-91.5 5.5q-68 0 -140.5 -14.5t-105.5 -25.5t-94 -34l-51 135q185 82 430 82q62 0 115 -8t102 -27.5t83 -50.5t54.5 -80t20.5 -112v-539 q0 -101 10 -264h-162l-12 125q-61 -66 -151.5 -108t-186.5 -42q-81 0 -146 15.5t-116.5 49.5t-80 92t-28.5 138zM270 303q0 -61 17 -101.5t50 -61t71 -28.5t90 -8q71 0 157 40.5t127 101.5v256h-18q-63 0 -96.5 -0.5t-94 -4t-95.5 -10.5t-80 -22t-69 -35.5t-41.5 -53 t-17.5 -73.5zM272 1507l189 47l209 -335l-133 -21z" />
<glyph unicode="&#xe1;" horiz-adv-x="1134" d="M88 270q0 56 16 102t40.5 79.5t66 60.5t80 44t95 29.5t99.5 18.5t104.5 9.5t99 4t93.5 0.5v154q0 53 -18 87.5t-53 51t-72.5 22t-91.5 5.5q-68 0 -140.5 -14.5t-105.5 -25.5t-94 -34l-51 135q185 82 430 82q62 0 115 -8t102 -27.5t83 -50.5t54.5 -80t20.5 -112v-539 q0 -101 10 -264h-162l-12 125q-61 -66 -151.5 -108t-186.5 -42q-81 0 -146 15.5t-116.5 49.5t-80 92t-28.5 138zM270 303q0 -61 17 -101.5t50 -61t71 -28.5t90 -8q71 0 157 40.5t127 101.5v256h-18q-63 0 -96.5 -0.5t-94 -4t-95.5 -10.5t-80 -22t-69 -35.5t-41.5 -53 t-17.5 -73.5zM444 1219l209 335l187 -47l-265 -309z" />
<glyph unicode="&#xe2;" horiz-adv-x="1134" d="M88 270q0 56 16 102t40.5 79.5t66 60.5t80 44t95 29.5t99.5 18.5t104.5 9.5t99 4t93.5 0.5v154q0 53 -18 87.5t-53 51t-72.5 22t-91.5 5.5q-68 0 -140.5 -14.5t-105.5 -25.5t-94 -34l-51 135q185 82 430 82q62 0 115 -8t102 -27.5t83 -50.5t54.5 -80t20.5 -112v-539 q0 -101 10 -264h-162l-12 125q-61 -66 -151.5 -108t-186.5 -42q-81 0 -146 15.5t-116.5 49.5t-80 92t-28.5 138zM268 1237l209 281h156l219 -281l-98 -57l-197 206l-192 -206zM270 303q0 -61 17 -101.5t50 -61t71 -28.5t90 -8q71 0 157 40.5t127 101.5v256h-18 q-63 0 -96.5 -0.5t-94 -4t-95.5 -10.5t-80 -22t-69 -35.5t-41.5 -53t-17.5 -73.5z" />
<glyph unicode="&#xe3;" horiz-adv-x="1134" d="M88 270q0 56 16 102t40.5 79.5t66 60.5t80 44t95 29.5t99.5 18.5t104.5 9.5t99 4t93.5 0.5v154q0 53 -18 87.5t-53 51t-72.5 22t-91.5 5.5q-68 0 -140.5 -14.5t-105.5 -25.5t-94 -34l-51 135q185 82 430 82q62 0 115 -8t102 -27.5t83 -50.5t54.5 -80t20.5 -112v-539 q0 -101 10 -264h-162l-12 125q-61 -66 -151.5 -108t-186.5 -42q-81 0 -146 15.5t-116.5 49.5t-80 92t-28.5 138zM199 1235q23 101 83 150t138 49q55 0 152 -24t147 -24q21 0 35.5 4.5t24.5 17.5t14.5 21.5t13.5 30.5l125 -35q-15 -83 -73 -135.5t-136 -52.5 q-53 0 -156.5 24.5t-152.5 24.5q-21 0 -36.5 -6.5t-26 -20.5t-15 -22.5t-12.5 -26.5zM270 303q0 -61 17 -101.5t50 -61t71 -28.5t90 -8q71 0 157 40.5t127 101.5v256h-18q-63 0 -96.5 -0.5t-94 -4t-95.5 -10.5t-80 -22t-69 -35.5t-41.5 -53t-17.5 -73.5z" />
<glyph unicode="&#xe4;" horiz-adv-x="1134" d="M88 270q0 56 16 102t40.5 79.5t66 60.5t80 44t95 29.5t99.5 18.5t104.5 9.5t99 4t93.5 0.5v154q0 53 -18 87.5t-53 51t-72.5 22t-91.5 5.5q-68 0 -140.5 -14.5t-105.5 -25.5t-94 -34l-51 135q185 82 430 82q62 0 115 -8t102 -27.5t83 -50.5t54.5 -80t20.5 -112v-539 q0 -101 10 -264h-162l-12 125q-61 -66 -151.5 -108t-186.5 -42q-81 0 -146 15.5t-116.5 49.5t-80 92t-28.5 138zM229 1376q0 109 111 109q109 0 109 -109q0 -49 -26.5 -78.5t-82.5 -29.5t-83.5 29.5t-27.5 78.5zM270 303q0 -61 17 -101.5t50 -61t71 -28.5t90 -8 q71 0 157 40.5t127 101.5v256h-18q-63 0 -96.5 -0.5t-94 -4t-95.5 -10.5t-80 -22t-69 -35.5t-41.5 -53t-17.5 -73.5zM672 1376q0 109 108 109q111 0 111 -109q0 -49 -27 -78.5t-84 -29.5q-54 0 -81 29.5t-27 78.5z" />
<glyph unicode="&#xe5;" horiz-adv-x="1134" d="M88 270q0 56 16 102t40.5 79.5t66 60.5t80 44t95 29.5t99.5 18.5t104.5 9.5t99 4t93.5 0.5v154q0 53 -18 87.5t-53 51t-72.5 22t-91.5 5.5q-68 0 -140.5 -14.5t-105.5 -25.5t-94 -34l-51 135q185 82 430 82q62 0 115 -8t102 -27.5t83 -50.5t54.5 -80t20.5 -112v-539 q0 -101 10 -264h-162l-12 125q-61 -66 -151.5 -108t-186.5 -42q-81 0 -146 15.5t-116.5 49.5t-80 92t-28.5 138zM270 303q0 -61 17 -101.5t50 -61t71 -28.5t90 -8q71 0 157 40.5t127 101.5v256h-18q-63 0 -96.5 -0.5t-94 -4t-95.5 -10.5t-80 -22t-69 -35.5t-41.5 -53 t-17.5 -73.5zM352 1376q0 87 58 148t147 61q98 0 151.5 -56t53.5 -140q0 -88 -59.5 -146.5t-145.5 -58.5q-96 0 -150.5 56.5t-54.5 135.5zM449 1384q0 -52 29.5 -86t78.5 -34q55 0 83 33t28 85t-25.5 87.5t-85.5 35.5q-55 0 -81.5 -33.5t-26.5 -87.5z" />
<glyph unicode="&#xe6;" horiz-adv-x="1781" d="M88 270q0 56 16 102t40.5 79.5t66 60.5t80 44t95 29.5t99.5 18.5t104.5 9.5t99 4t93.5 0.5v154q0 53 -18 87.5t-53 51t-72.5 22t-91.5 5.5q-68 0 -140.5 -14.5t-105.5 -25.5t-94 -34l-51 135q185 82 430 82q260 0 334 -135q125 135 344 135q200 0 308.5 -104.5 t108.5 -308.5q0 -80 -14 -160h-704q0 -192 83.5 -286.5t282.5 -94.5q143 0 303 45l29 -129q-126 -63 -350 -63q-326 0 -447 178q-69 -87 -185.5 -135t-219.5 -48q-81 0 -146 15.5t-116.5 49.5t-80 92t-28.5 138zM270 303q0 -61 17 -101.5t50 -61t71 -28.5t90 -8 q75 0 177.5 40t143.5 108q-36 98 -39 250h-12h-75t-74.5 -2t-76.5 -5.5t-69.5 -10t-66.5 -16.5t-54 -25t-44.5 -34.5t-26.5 -46.5t-11 -59zM967 637h536q11 145 -50.5 230t-205.5 85q-133 0 -205 -79.5t-75 -235.5z" />
<glyph unicode="&#xe7;" horiz-adv-x="1024" d="M98 508q0 131 30 234t92 180t164.5 118t240.5 41q84 0 173.5 -14t151.5 -39l-37 -141q-156 47 -301 47q-95 0 -161 -28t-102.5 -84t-52 -128.5t-15.5 -171.5q0 -213 84 -303t280 -90q130 0 277 39l24 -139q-131 -41 -289 -47l-26 -74q105 -9 166 -50.5t61 -113.5 q0 -95 -76.5 -147t-191.5 -52q-121 0 -191 19l13 102q78 -12 159 -12q131 0 131 84q0 25 -18.5 44.5t-49.5 29.5t-60.5 15t-61.5 7l-8 6l57 142q-238 12 -350.5 143t-112.5 383z" />
<glyph unicode="&#xe8;" horiz-adv-x="1093" d="M98 522q0 93 16 174t52.5 152.5t91 122.5t137.5 80.5t187 29.5q198 0 306.5 -104.5t108.5 -308.5q0 -106 -14 -160h-702q0 -192 82.5 -286.5t283.5 -94.5q141 0 301 45l31 -129q-129 -63 -350 -63q-282 0 -406.5 130t-124.5 412zM285 637h536q10 146 -51.5 230.5 t-206.5 84.5q-133 0 -204 -79.5t-74 -235.5zM291 1507l188 47l209 -335l-133 -21z" />
<glyph unicode="&#xe9;" horiz-adv-x="1093" d="M98 522q0 93 16 174t52.5 152.5t91 122.5t137.5 80.5t187 29.5q198 0 306.5 -104.5t108.5 -308.5q0 -106 -14 -160h-702q0 -192 82.5 -286.5t283.5 -94.5q141 0 301 45l31 -129q-129 -63 -350 -63q-282 0 -406.5 130t-124.5 412zM285 637h536q10 146 -51.5 230.5 t-206.5 84.5q-133 0 -204 -79.5t-74 -235.5zM520 1219l209 335l186 -47l-264 -309z" />
<glyph unicode="&#xea;" horiz-adv-x="1093" d="M98 522q0 93 16 174t52.5 152.5t91 122.5t137.5 80.5t187 29.5q198 0 306.5 -104.5t108.5 -308.5q0 -106 -14 -160h-702q0 -192 82.5 -286.5t283.5 -94.5q141 0 301 45l31 -129q-129 -63 -350 -63q-282 0 -406.5 130t-124.5 412zM285 637h536q10 146 -51.5 230.5 t-206.5 84.5q-133 0 -204 -79.5t-74 -235.5zM287 1237l209 281h155l219 -281l-98 -57l-197 206l-192 -206z" />
<glyph unicode="&#xeb;" horiz-adv-x="1093" d="M98 522q0 93 16 174t52.5 152.5t91 122.5t137.5 80.5t187 29.5q198 0 306.5 -104.5t108.5 -308.5q0 -106 -14 -160h-702q0 -192 82.5 -286.5t283.5 -94.5q141 0 301 45l31 -129q-129 -63 -350 -63q-282 0 -406.5 130t-124.5 412zM233 1376q0 109 111 109q109 0 109 -109 q0 -49 -26.5 -78.5t-82.5 -29.5t-83.5 29.5t-27.5 78.5zM285 637h536q10 146 -51.5 230.5t-206.5 84.5q-133 0 -204 -79.5t-74 -235.5zM676 1376q0 109 108 109q111 0 111 -109q0 -49 -27 -78.5t-84 -29.5q-54 0 -81 29.5t-27 78.5z" />
<glyph unicode="&#xec;" horiz-adv-x="542" d="M-51 1507l188 47l209 -335l-133 -21zM182 0v1061h178v-1061h-178z" />
<glyph unicode="&#xed;" horiz-adv-x="542" d="M182 0v1061h178v-1061h-178zM205 1219l209 335l186 -47l-264 -309z" />
<glyph unicode="&#xee;" horiz-adv-x="542" d="M-20 1237l208 281h156l219 -281l-98 -57l-197 206l-192 -206zM182 0v1061h178v-1061h-178z" />
<glyph unicode="&#xef;" horiz-adv-x="542" d="M-57 1376q0 109 110 109q109 0 109 -109q0 -49 -26.5 -78.5t-82.5 -29.5t-83 29.5t-27 78.5zM182 0v1061h178v-1061h-178zM385 1376q0 50 26 79.5t83 29.5q110 0 110 -109q0 -49 -26.5 -78.5t-83.5 -29.5q-54 0 -81.5 30t-27.5 78z" />
<glyph unicode="&#xf0;" horiz-adv-x="1155" d="M98 504q0 98 14.5 180.5t50.5 157t91.5 126.5t142 82t197.5 29l-156 164l-278 -92l-43 111l231 75l-143 152l201 35l116 -129l297 100l45 -111l-254 -84l277 -303q91 -99 131.5 -209t40.5 -260q0 -118 -28 -215.5t-85 -173t-153 -117.5t-224 -42q-122 0 -214 39.5 t-147.5 111.5t-82.5 165.5t-27 207.5zM287 520q0 -117 19.5 -197t59 -125.5t91.5 -65t123 -19.5q99 0 160 36.5t94.5 128t33.5 246.5q0 230 -66 327t-229 97q-286 0 -286 -428z" />
<glyph unicode="&#xf1;" horiz-adv-x="1208" d="M182 0v1061h164l6 -125q78 65 181.5 105t207.5 40q132 0 216.5 -60.5t84.5 -189.5v-831h-178v774q0 85 -51.5 127.5t-138.5 42.5q-70 0 -155 -31.5t-159 -78.5v-834h-178zM270 1235q23 101 83.5 150t138.5 49q55 0 152 -24t147 -24q21 0 35.5 4.5t24.5 17.5t14.5 21.5 t13.5 30.5l125 -35q-15 -83 -73 -135.5t-136 -52.5q-53 0 -157 24.5t-153 24.5q-21 0 -36.5 -6.5t-26 -20.5t-15 -22.5t-12.5 -26.5z" />
<glyph unicode="&#xf2;" horiz-adv-x="1155" d="M98 504q0 286 125 431.5t359 145.5q106 0 187.5 -26t136 -73t89 -116t49.5 -150t15 -181q0 -267 -123 -411t-356 -144t-357.5 130.5t-124.5 393.5zM287 520q0 -117 19.5 -197t59 -125.5t91.5 -65t123 -19.5q99 0 160 36.5t94.5 128t33.5 246.5q0 229 -66.5 326.5 t-228.5 97.5q-286 0 -286 -428zM289 1507l188 47l209 -335l-133 -21z" />
<glyph unicode="&#xf3;" horiz-adv-x="1155" d="M98 504q0 286 125 431.5t359 145.5q106 0 187.5 -26t136 -73t89 -116t49.5 -150t15 -181q0 -267 -123 -411t-356 -144t-357.5 130.5t-124.5 393.5zM287 520q0 -117 19.5 -197t59 -125.5t91.5 -65t123 -19.5q99 0 160 36.5t94.5 128t33.5 246.5q0 229 -66.5 326.5 t-228.5 97.5q-286 0 -286 -428zM487 1219l209 335l187 -47l-265 -309z" />
<glyph unicode="&#xf4;" horiz-adv-x="1155" d="M98 504q0 286 125 431.5t359 145.5q106 0 187.5 -26t136 -73t89 -116t49.5 -150t15 -181q0 -267 -123 -411t-356 -144t-357.5 130.5t-124.5 393.5zM283 1237l209 281h155l219 -281l-98 -57l-197 206l-192 -206zM287 520q0 -117 19.5 -197t59 -125.5t91.5 -65t123 -19.5 q99 0 160 36.5t94.5 128t33.5 246.5q0 229 -66.5 326.5t-228.5 97.5q-286 0 -286 -428z" />
<glyph unicode="&#xf5;" horiz-adv-x="1155" d="M98 504q0 286 125 431.5t359 145.5q106 0 187.5 -26t136 -73t89 -116t49.5 -150t15 -181q0 -267 -123 -411t-356 -144t-357.5 130.5t-124.5 393.5zM213 1235q23 101 83 150t138 49q55 0 152 -24t147 -24q21 0 35.5 4.5t24.5 17.5t14.5 21.5t13.5 30.5l125 -35 q-15 -83 -73 -135.5t-136 -52.5q-53 0 -156 24.5t-153 24.5q-21 0 -36.5 -6.5t-26 -20.5t-15 -22.5t-12.5 -26.5zM287 520q0 -117 19.5 -197t59 -125.5t91.5 -65t123 -19.5q99 0 160 36.5t94.5 128t33.5 246.5q0 229 -66.5 326.5t-228.5 97.5q-286 0 -286 -428z" />
<glyph unicode="&#xf6;" horiz-adv-x="1155" d="M98 504q0 286 125 431.5t359 145.5q106 0 187.5 -26t136 -73t89 -116t49.5 -150t15 -181q0 -267 -123 -411t-356 -144t-357.5 130.5t-124.5 393.5zM246 1376q0 109 110 109q109 0 109 -109q0 -49 -26.5 -78.5t-82.5 -29.5t-83 29.5t-27 78.5zM287 520q0 -117 19.5 -197 t59 -125.5t91.5 -65t123 -19.5q99 0 160 36.5t94.5 128t33.5 246.5q0 229 -66.5 326.5t-228.5 97.5q-286 0 -286 -428zM688 1376q0 50 26 79.5t83 29.5q110 0 110 -109q0 -49 -26.5 -78.5t-83.5 -29.5q-54 0 -81.5 30t-27.5 78z" />
<glyph unicode="&#xf7;" horiz-adv-x="1171" d="M106 604v146h961v-146h-961zM475 307q0 113 111 113q112 0 112 -113q0 -49 -27.5 -78.5t-84.5 -29.5q-56 0 -83.5 29.5t-27.5 78.5zM475 1034q0 113 111 113q112 0 112 -113q0 -49 -27.5 -78.5t-84.5 -29.5q-56 0 -83.5 29.5t-27.5 78.5z" />
<glyph unicode="&#xf8;" horiz-adv-x="1155" d="M98 504q0 286 125 431.5t359 145.5q122 0 209 -34l73 145l97 -37l-80 -156q178 -127 178 -464q0 -267 -123 -411t-356 -144q-114 0 -203 30l-76 -151l-98 37l82 159q-187 127 -187 449zM287 520q0 -222 71 -317l367 715q-62 30 -152 30q-286 0 -286 -428zM442 137 q52 -24 138 -24q99 0 160 36.5t94.5 128t33.5 246.5q0 227 -65 324z" />
<glyph unicode="&#xf9;" d="M172 229v832h178v-774q0 -85 52 -127.5t139 -42.5q70 0 154.5 31.5t158.5 78.5v834h178v-1061h-164l-6 125q-78 -65 -181.5 -105t-207.5 -40q-62 0 -114 13.5t-95 41.5t-67.5 77.5t-24.5 116.5zM338 1507l188 47l209 -335l-133 -21z" />
<glyph unicode="&#xfa;" d="M172 229v832h178v-774q0 -85 52 -127.5t139 -42.5q70 0 154.5 31.5t158.5 78.5v834h178v-1061h-164l-6 125q-78 -65 -181.5 -105t-207.5 -40q-62 0 -114 13.5t-95 41.5t-67.5 77.5t-24.5 116.5zM528 1219l209 335l187 -47l-265 -309z" />
<glyph unicode="&#xfb;" d="M172 229v832h178v-774q0 -85 52 -127.5t139 -42.5q70 0 154.5 31.5t158.5 78.5v834h178v-1061h-164l-6 125q-78 -65 -181.5 -105t-207.5 -40q-62 0 -114 13.5t-95 41.5t-67.5 77.5t-24.5 116.5zM330 1237l209 281h155l219 -281l-98 -57l-197 206l-192 -206z" />
<glyph unicode="&#xfc;" d="M172 229v832h178v-774q0 -85 52 -127.5t139 -42.5q70 0 154.5 31.5t158.5 78.5v834h178v-1061h-164l-6 125q-78 -65 -181.5 -105t-207.5 -40q-62 0 -114 13.5t-95 41.5t-67.5 77.5t-24.5 116.5zM274 1376q0 109 111 109q109 0 109 -109q0 -49 -26.5 -78.5t-82.5 -29.5 t-83.5 29.5t-27.5 78.5zM717 1376q0 109 108 109q111 0 111 -109q0 -49 -27 -78.5t-84 -29.5q-54 0 -81 29.5t-27 78.5z" />
<glyph unicode="&#xfd;" horiz-adv-x="1024" d="M29 1061h194l293 -733l29 -95h4l22 95l254 733h170l-391 -1071q-82 -224 -186 -316t-252 -92q-58 0 -107 12l15 150q51 -6 92 -6q166 0 240 184l45 113zM444 1219l209 335l187 -47l-265 -309z" />
<glyph unicode="&#xfe;" horiz-adv-x="1191" d="M182 -393v1900h178v-534q122 108 285 108q449 0 449 -530q0 -119 -34 -221.5t-97.5 -181t-163.5 -123.5t-224 -45q-135 0 -215 30v-395zM360 141q117 -24 213 -24q91 0 158.5 36.5t104.5 98.5t54 133.5t17 153.5q0 197 -72 300t-237 103q-68 0 -133.5 -27.5t-104.5 -60.5 v-713z" />
<glyph unicode="&#xff;" horiz-adv-x="1024" d="M29 1061h194l293 -733l29 -95h4l22 95l254 733h170l-391 -1071q-82 -224 -186 -316t-252 -92q-58 0 -107 12l15 150q51 -6 92 -6q166 0 240 184l45 113zM219 1376q0 109 111 109q108 0 108 -109q0 -49 -26 -78.5t-82 -29.5t-83.5 29.5t-27.5 78.5zM662 1376 q0 109 108 109q111 0 111 -109q0 -49 -27 -78.5t-84 -29.5q-54 0 -81 29.5t-27 78.5z" />
<glyph unicode="&#x152;" horiz-adv-x="2224" d="M98 731q0 374 171.5 575t484.5 201q292 0 442 -182v160h928v-156h-733v-477h591v-156h-591v-540h739v-156h-934v172q-152 -192 -446 -192q-323 0 -487.5 190.5t-164.5 560.5zM303 729q0 -139 23 -244.5t74.5 -187t141 -124t214.5 -42.5q79 0 143 19t108.5 51t78 79 t53.5 97t32.5 112t16.5 117t4 119q0 74 -4.5 137t-17.5 129.5t-34.5 119t-56 100t-80.5 79t-111 50t-145 18.5q-104 0 -182 -32.5t-126.5 -87.5t-78.5 -137.5t-41.5 -171.5t-11.5 -200z" />
<glyph unicode="&#x153;" horiz-adv-x="1882" d="M98 504q0 286 125 431.5t359 145.5q283 0 397 -188q121 188 389 188q198 0 307 -104.5t109 -308.5q0 -37 -5 -89.5t-10 -70.5h-702q0 -192 83 -286.5t284 -94.5q141 0 301 45l30 -129q-129 -63 -350 -63q-330 0 -448 184q-122 -184 -387 -184q-233 0 -357.5 130.5 t-124.5 393.5zM287 520q0 -117 19.5 -197t59 -125.5t91.5 -65t123 -19.5q99 0 160 36.5t94.5 128t33.5 246.5q0 229 -66.5 326.5t-228.5 97.5q-286 0 -286 -428zM1071 637h537q10 146 -51.5 230.5t-206.5 84.5q-133 0 -204.5 -79.5t-74.5 -235.5z" />
<glyph unicode="&#x178;" horiz-adv-x="1191" d="M27 1485h209l368 -709h2l371 709h188l-473 -864v-621h-198v618zM283 1733q0 110 110 110q109 0 109 -110q0 -49 -26.5 -78t-82.5 -29t-83 29t-27 78zM729 1733q0 110 109 110q108 0 108 -110q0 -49 -26 -78t-82 -29t-82.5 29t-26.5 78z" />
<glyph unicode="&#x2c6;" horiz-adv-x="755" d="M86 1237l209 281h156l219 -281l-99 -57l-196 206l-193 -206z" />
<glyph unicode="&#x2dc;" horiz-adv-x="856" d="M61 1235q23 101 83.5 150t138.5 49q55 0 152 -24t147 -24q21 0 35.5 4.5t24.5 17.5t14.5 21.5t13.5 30.5l125 -35q-15 -83 -73 -135.5t-136 -52.5q-52 0 -156.5 24.5t-153.5 24.5q-21 0 -36.5 -6.5t-26 -20.5t-15 -22.5t-12.5 -26.5z" />
<glyph unicode="&#x2000;" horiz-adv-x="992" />
<glyph unicode="&#x2001;" horiz-adv-x="1985" />
<glyph unicode="&#x2002;" horiz-adv-x="992" />
<glyph unicode="&#x2003;" horiz-adv-x="1985" />
<glyph unicode="&#x2004;" horiz-adv-x="661" />
<glyph unicode="&#x2005;" horiz-adv-x="496" />
<glyph unicode="&#x2006;" horiz-adv-x="330" />
<glyph unicode="&#x2007;" horiz-adv-x="330" />
<glyph unicode="&#x2008;" horiz-adv-x="248" />
<glyph unicode="&#x2009;" horiz-adv-x="397" />
<glyph unicode="&#x200a;" horiz-adv-x="110" />
<glyph unicode="&#x2010;" horiz-adv-x="702" d="M78 528v154h545v-154h-545z" />
<glyph unicode="&#x2011;" horiz-adv-x="702" d="M78 528v154h545v-154h-545z" />
<glyph unicode="&#x2012;" horiz-adv-x="702" d="M78 528v154h545v-154h-545z" />
<glyph unicode="&#x2013;" horiz-adv-x="956" d="M0 559v119h956v-119h-956z" />
<glyph unicode="&#x2014;" horiz-adv-x="1863" d="M0 559v119h1864v-119h-1864z" />
<glyph unicode="&#x2018;" horiz-adv-x="481" d="M137 1059v149l84 277h121l-31 -250l27 -176h-201z" />
<glyph unicode="&#x2019;" horiz-adv-x="481" d="M139 1059l29 250l-27 176h201v-150l-82 -276h-121z" />
<glyph unicode="&#x201a;" horiz-adv-x="491" d="M143 -225l45 231l-30 193h200v-172l-94 -252h-121z" />
<glyph unicode="&#x201c;" horiz-adv-x="841" d="M137 1208l84 277h121l-31 -250l27 -176h-199zM500 1059v149l82 277h120l-28 -250l26 -176h-200z" />
<glyph unicode="&#x201d;" horiz-adv-x="841" d="M139 1059l29 250l-27 176h201v-150l-82 -276h-121zM500 1059l28 250l-26 176h200v-150l-81 -276h-121z" />
<glyph unicode="&#x201e;" horiz-adv-x="841" d="M143 -225l45 231l-30 193h200v-172l-94 -252h-121zM504 -225l45 231l-31 193h201v-172l-94 -252h-121z" />
<glyph unicode="&#x2022;" horiz-adv-x="974" d="M174 723q0 131 88 221t221 90q135 0 226.5 -91t91.5 -220q0 -130 -92 -221.5t-226 -91.5q-131 0 -220 91.5t-89 221.5z" />
<glyph unicode="&#x2026;" horiz-adv-x="1574" d="M152 94q0 111 110 111q113 0 113 -111q0 -50 -28 -80t-85 -30q-56 0 -83 30t-27 80zM676 94q0 111 110 111q113 0 113 -111q0 -50 -28 -80t-85 -30q-56 0 -83 30t-27 80zM1200 94q0 111 111 111q112 0 112 -111q0 -110 -112 -110q-56 0 -83.5 30t-27.5 80z" />
<glyph unicode="&#x202f;" horiz-adv-x="397" />
<glyph unicode="&#x2039;" horiz-adv-x="647" d="M90 602v113l377 317l88 -94l-272 -274l274 -304l-86 -81z" />
<glyph unicode="&#x203a;" horiz-adv-x="647" d="M90 360l275 304l-271 274l86 94l377 -317v-113l-381 -323z" />
<glyph unicode="&#x205f;" horiz-adv-x="496" />
<glyph unicode="&#x20ac;" horiz-adv-x="1368" d="M61 528v123h152v68q0 88 8 153h-160v121h181q55 242 219.5 378t445.5 136q256 0 416 -51l-33 -160q-203 52 -370 52q-211 0 -325 -91t-153 -264h639v-121h-657q-4 -39 -4 -120q0 -70 2 -101h659v-123h-645q35 -202 152 -296.5t334 -94.5q179 0 356 47l22 -145 q-177 -59 -395 -59q-309 0 -475 139t-205 409h-164z" />
<glyph unicode="&#x2122;" horiz-adv-x="1286" d="M49 1401v84h463v-84h-174v-486h-115v486h-174zM582 915v570h168l127 -410q0 -1 3 -16.5t3 -16.5h2l8 33q0 7 62 206.5t63 203.5h166v-570h-105v461q0 1 1 17.5t1 17.5h-2q-2 -9 -77.5 -248t-77.5 -248h-97q-2 9 -75.5 248t-75.5 248h-4l2 -35v-461h-92z" />
<glyph unicode="&#x25fc;" horiz-adv-x="1064" d="M0 0v1065h1065v-1065h-1065z" />
<glyph unicode="&#xfb01;" d="M70 924v137h190v160q0 152 75.5 230.5t244.5 78.5q101 0 194 -27l-37 -139q-102 25 -164 25q-60 0 -96.5 -33t-36.5 -101v-194h260v-137h-260v-924h-180v924h-190zM829 1376q0 113 111 113q113 0 113 -113q0 -51 -27.5 -80.5t-85.5 -29.5q-56 0 -83.5 30t-27.5 80zM852 0 v1061h178v-1061h-178z" />
<glyph unicode="&#xfb02;" horiz-adv-x="1220" d="M70 924v137h190v160q0 152 75.5 230.5t244.5 78.5q101 0 194 -27l-37 -139q-102 25 -164 25q-60 0 -96.5 -33t-36.5 -101v-194h260v-137h-260v-924h-180v924h-190zM858 0v1507h178v-1507h-178z" />
</font>
</defs>
</svg>
