<?xml version="1.0" standalone="no"?>
<!DOCTYPE svg PUBLIC "-//W3C//DTD SVG 1.1//EN" "http://www.w3.org/Graphics/SVG/1.1/DTD/svg11.dtd" >
<svg xmlns="http://www.w3.org/2000/svg">
<metadata></metadata>
<defs>
<font id="sueca_hd_regular" horiz-adv-x="1122" >
<font-face units-per-em="2048" ascent="1593" descent="-455" />
<missing-glyph horiz-adv-x="450" />
<glyph unicode="&#xfb01;" horiz-adv-x="1185" d="M57 0v35l125 31l19 22v860l-144 27v35l144 57v45q0 129 37.5 227t104 157t152 88.5t187.5 29.5q127 0 219 -53t92 -146q0 -51 -27.5 -88t-86.5 -37q-52 0 -82.5 34t-30.5 79q0 40 24 69.5t62 40.5q-56 43 -186 43q-34 0 -65.5 -7.5t-69 -32.5t-64.5 -65.5t-45.5 -112.5 t-18.5 -167v-133h392l182 31l18 -4v-977l19 -22l125 -31v-35h-490v35l125 31l19 22v868h-390v-868l17 -22l151 -31v-35h-514z" />
<glyph unicode="&#xfb02;" horiz-adv-x="1185" d="M57 0v35l125 31l19 22v860l-144 27v35l144 57v37q0 239 130 374.5t341 135.5q134 0 207 -41l98 41l18 -12v-1514l19 -22l123 -31v-35h-488v35l125 31l19 22v1391q-58 61 -144 61q-58 0 -86 -9q-160 -51 -160 -368v-125h222v-82h-222v-868l17 -22l162 -31v-35h-525z" />
<glyph horiz-adv-x="0" />
<glyph horiz-adv-x="0" />
<glyph horiz-adv-x="682" />
<glyph unicode="&#xd;" horiz-adv-x="450" />
<glyph unicode=" "  horiz-adv-x="450" />
<glyph unicode="&#x09;" horiz-adv-x="450" />
<glyph unicode="&#xa0;" horiz-adv-x="450" />
<glyph unicode="!" horiz-adv-x="557" d="M141 1370q-6 61 39.5 99t98.5 38q55 0 98 -41.5t39 -93.5l-111 -954h-55zM152 121q0 56 33.5 92.5t90.5 36.5q59 0 94.5 -37t35.5 -92q0 -58 -34 -96.5t-96 -38.5q-60 0 -92 38t-32 97z" />
<glyph unicode="&#x22;" horiz-adv-x="741" d="M90 1434q0 54 30 85t75 31q46 0 80 -28.5t34 -87.5l-76 -375h-57zM432 1434q0 57 29.5 86.5t75.5 29.5q44 0 79 -30.5t35 -85.5l-76 -375h-57z" />
<glyph unicode="#" horiz-adv-x="1105" d="M78 481l14 97h193l53 372h-199l15 101h188l61 434h91l-58 -434h320l55 434h90l-55 -434h196l-14 -101h-192l-52 -372h191l-10 -97h-191l-63 -483h-90l65 483h-324l-69 -483h-88l67 483h-194zM373 578h323l49 372h-321z" />
<glyph unicode="$" horiz-adv-x="1101" d="M90 248q0 24 8.5 48.5t36.5 46.5t70 22q53 0 79.5 -29.5t26.5 -73.5q0 -27 -17 -58t-52 -48q30 -30 112 -53t168 -23v586l-153 63q-109 45 -178.5 133.5t-69.5 214.5q0 173 110.5 284t290.5 126v151h88v-149q150 -7 240 -71t90 -140q0 -50 -27.5 -90.5t-89.5 -40.5 q-53 0 -79.5 33t-26.5 77q0 29 16.5 61.5t52.5 47.5q-3 1 -18.5 9t-22 11t-24 9.5t-31 10t-35 7t-45.5 4.5v-553l70 -28q334 -139 334 -390q0 -185 -108.5 -300.5t-295.5 -139.5v-201h-88v197q-207 0 -319.5 72t-112.5 174zM291 1165q0 -100 60 -160t171 -104v516 q-116 -13 -173.5 -82.5t-57.5 -169.5zM610 88q107 22 160 100t53 193q0 93 -56 149t-157 99v-541z" />
<glyph unicode="%" horiz-adv-x="1572" d="M74 1106q0 176 91 290.5t228 114.5q129 0 218 -109t89 -282q0 -106 -40.5 -197t-115.5 -146.5t-167 -55.5q-131 0 -217 110t-86 275zM238 1155q0 -385 159 -385q41 0 70.5 31t43.5 81.5t20 97.5t6 95q0 53 -2 94t-7 89t-16.5 82t-28 63.5t-43 45t-61.5 15.5 q-41 0 -70 -28t-44 -76t-21 -98t-6 -107zM354 -4l783 1511l69 -28l-776 -1512zM870 352q0 176 91.5 292t228.5 116q128 0 218.5 -110t90.5 -281q0 -162 -95 -282t-228 -120q-127 0 -216.5 111.5t-89.5 273.5zM1034 401q0 -383 160 -383q41 0 71 31.5t44 82t20 97.5t6 95 q0 64 -2.5 112t-12 103t-25.5 90t-46 58.5t-71 23.5t-70.5 -28t-45 -75.5t-22 -98.5t-6.5 -108z" />
<glyph unicode="&#x26;" horiz-adv-x="1714" d="M76 377q0 83 33.5 161t89.5 137.5t121 105t135 75.5q-4 6 -30 39.5t-36.5 48t-32 49t-31 59.5t-18 60.5t-8.5 69.5q0 59 24.5 115.5t72.5 104.5t129.5 77.5t183.5 29.5q168 0 251.5 -76t83.5 -186q0 -121 -71 -198t-217 -142l-54 -24l244 -275q60 -72 172 -184 q75 137 127 336l-149 26v43l143 37l55 127h47v-137h195l-12 -90h-195q-48 -239 -145 -404q254 -236 506 -319v-41q-61 -14 -181 -14q-181 0 -440 217q-211 -234 -510 -234q-111 0 -203.5 35t-153 92t-93.5 129.5t-33 149.5zM299 444q0 -68 21 -132t60 -116.5t103 -84 t142 -31.5q221 0 381 182q-91 79 -177 172q-133 139 -321 363q-101 -49 -155 -141t-54 -212zM483 1272q0 -126 172 -332q75 35 125 75.5t72.5 83.5t30.5 78t8 76q0 86 -61.5 143.5t-149.5 57.5t-142.5 -57t-54.5 -125z" />
<glyph unicode="'" horiz-adv-x="399" d="M90 1434q0 54 30 85t75 31q46 0 80 -28.5t34 -87.5l-82 -375h-45z" />
<glyph unicode="(" horiz-adv-x="688" d="M115 537q0 157 31 306t92.5 285t160.5 252.5t228 198.5l28 -51q-105 -95 -175.5 -205.5t-106.5 -238t-50 -252.5t-14 -285q0 -162 13.5 -290.5t48 -262t103 -249.5t171.5 -212l-33 -47q-161 106 -275.5 280t-168 369.5t-53.5 401.5z" />
<glyph unicode=")" horiz-adv-x="688" d="M33 1528l28 51q129 -82 228 -198.5t160.5 -252.5t92.5 -285t31 -306q0 -206 -53.5 -401.5t-168 -369.5t-275.5 -280l-33 47q103 96 171.5 212t103 249.5t48 262t13.5 290.5q0 160 -14 285t-50 252.5t-106.5 238t-175.5 205.5z" />
<glyph unicode="*" horiz-adv-x="1019" d="M76 1253l94 160l309 -242l-61 383h180l-55 -383l307 242l94 -160l-373 -127l275 -266l-146 -94l-192 326l-193 -326l-147 92l285 264z" />
<glyph unicode="+" horiz-adv-x="1146" d="M100 627v73h437v437h73v-437h437v-73h-437v-439h-73v439h-437z" />
<glyph unicode="," horiz-adv-x="450" d="M90 125q0 54 36.5 89.5t92.5 35.5q71 0 106 -44.5t35 -111.5q0 -100 -70.5 -204.5t-176.5 -145.5l-23 23q66 47 117.5 115.5t48.5 125.5l-47 -4q-53 0 -86 34.5t-33 86.5z" />
<glyph unicode="-" horiz-adv-x="651" d="M74 539v166h504v-166h-504z" />
<glyph unicode="." horiz-adv-x="450" d="M98 121q0 56 34 92.5t91 36.5q59 0 94 -37t35 -92q0 -59 -33.5 -97t-95.5 -38q-60 0 -92.5 38t-32.5 97z" />
<glyph unicode="/" horiz-adv-x="614" d="M10 -375l455 1899l82 -11l-453 -1900z" />
<glyph unicode="0" horiz-adv-x="1200" d="M74 715q0 174 46 324.5t121.5 250t170 155.5t192.5 56q149 0 268.5 -97t186.5 -269.5t67 -386.5q0 -140 -30.5 -264.5t-82.5 -216t-120 -158.5t-144.5 -100.5t-154.5 -33.5q-104 0 -199.5 56t-166 152.5t-112.5 235t-42 296.5zM301 729q0 -363 66.5 -525.5t226.5 -162.5 q141 0 222 168t81 522q0 364 -65.5 533.5t-225.5 169.5q-154 0 -229.5 -184.5t-75.5 -520.5z" />
<glyph unicode="1" horiz-adv-x="741" d="M59 0v41l199 31l18 22v1280l-196 -18l-12 47q52 11 109 26t89 24t104 31t95 29l20 -12v-1407l19 -22l201 -31v-41h-646z" />
<glyph unicode="2" horiz-adv-x="1083" d="M96 0v74l342 360q172 184 249 349t77 335q0 137 -71.5 219t-213.5 82q-81 0 -152.5 -30.5t-119.5 -83.5q57 -10 86 -40t29 -71q0 -49 -33 -76.5t-74 -27.5q-52 0 -83.5 30.5t-31.5 83.5q0 119 124 208t321 89q107 0 191.5 -28.5t136 -78.5t78 -113t26.5 -136 q0 -353 -595 -868q-9 -8 -13 -11l-90 -80v-6l598 13l26 20l64 129l37 -4l-41 -338h-867z" />
<glyph unicode="3" horiz-adv-x="1124" d="M86 195q0 48 29 86t90 38q52 0 81 -31t29 -73q0 -34 -23 -65t-63 -44q25 -22 98.5 -38.5t145.5 -16.5t133.5 18t112 56.5t79.5 106t29 157.5q0 154 -93 242t-273 88h-150v82h172q134 0 217.5 85t83.5 234q0 137 -71 219t-213 82q-82 0 -160 -31.5t-125 -84.5 q57 -10 86 -40t29 -71q0 -49 -33 -76.5t-74 -27.5q-52 0 -83 30.5t-31 83.5q0 119 124 208t320 89q107 0 193 -28.5t140 -77.5t82.5 -112.5t28.5 -135.5q0 -65 -22 -124.5t-66.5 -112.5t-120.5 -91t-176 -51v-12q210 -4 324.5 -98t114.5 -244q0 -198 -151 -318.5 t-423 -120.5q-187 0 -289 65t-102 155z" />
<glyph unicode="4" horiz-adv-x="1146" d="M33 420v135l778 948h57v-944h250v-139h-250v-326l19 -22l166 -31v-41h-564v41l166 31l19 22v326h-641zM137 559h537v645h-8z" />
<glyph unicode="5" horiz-adv-x="1128" d="M86 195q0 48 29 86t90 38q52 0 81 -31t29 -73q0 -34 -23 -65t-63 -44q25 -22 98.5 -38.5t145.5 -16.5q175 0 274 119.5t99 300.5q0 175 -81.5 276t-232.5 101q-91 0 -173.5 -44.5t-145.5 -111.5l-43 10l57 795q220 -35 369 -35q94 0 203 16.5t180 39.5l14 -21 q-21 -39 -47 -68.5t-79 -62.5t-124.5 -52.5t-188 -30t-265.5 -3.5l-33 -465l2 -2q58 60 155.5 97.5t190.5 37.5q72 0 136.5 -15t122.5 -48t100.5 -81t67 -119.5t24.5 -158.5q0 -110 -39 -208.5t-111.5 -175.5t-187.5 -122t-256 -45q-185 0 -280 64t-95 156z" />
<glyph unicode="6" horiz-adv-x="1171" d="M74 702q0 113 21 222t71 215.5t123 186.5t187 129.5t253 49.5q157 0 246.5 -63.5t89.5 -143.5q0 -31 -8.5 -58t-35.5 -49t-69 -22q-51 0 -77.5 33t-26.5 76q0 29 22 60t60 44q-26 22 -83.5 37t-127.5 15q-109 0 -191.5 -50.5t-133 -142t-77.5 -208t-32 -259.5 q53 62 164.5 105t201.5 43q112 0 199 -33.5t140.5 -93.5t80.5 -138.5t27 -171.5q0 -72 -20 -144t-61 -137.5t-97.5 -116.5t-136.5 -81.5t-171 -30.5q-113 0 -205 42.5t-153 113.5t-102.5 166t-59.5 196.5t-18 208.5zM287 715q-5 -61 1 -142.5t28 -176t58.5 -173t99.5 -130.5 t142 -52q90 0 154 58t92.5 145t28.5 192q0 59 -9.5 111.5t-33.5 102.5t-60.5 86t-94.5 57.5t-132 21.5q-90 0 -160 -31.5t-114 -68.5z" />
<glyph unicode="7" horiz-adv-x="1073" d="M86 1147l61 334h89l563 -6l239 10l17 -35l-619 -1450h-194l-11 18l678 1264h-719l-12 -12l-53 -123h-39z" />
<glyph unicode="8" horiz-adv-x="1126" d="M74 362q0 139 86 239t219 140q-102 49 -179 142.5t-77 212.5q0 79 31 152t88.5 130.5t148 92t201.5 34.5q189 0 308.5 -99t119.5 -261q0 -72 -32.5 -141.5t-106 -130t-174.5 -85.5q180 -94 263 -189.5t83 -203.5q0 -129 -70 -226.5t-180.5 -145.5t-241.5 -48 q-234 0 -360.5 107.5t-126.5 279.5zM238 377q0 -46 9.5 -91t33.5 -90t59.5 -79t92 -55t126.5 -21q146 0 226.5 76.5t80.5 195.5q0 74 -33.5 130.5t-130 122t-272.5 143.5q-96 -41 -144 -129.5t-48 -202.5zM287 1157q0 -93 82.5 -171t277.5 -163q92 34 155.5 116t63.5 196 q0 128 -76.5 213.5t-218.5 85.5q-133 0 -208.5 -80.5t-75.5 -196.5z" />
<glyph unicode="9" horiz-adv-x="1171" d="M80 1016q0 97 31 184t89.5 155.5t151.5 109t207 40.5q113 0 205 -41.5t153 -111t102.5 -164t60 -197t18.5 -213.5q0 -113 -21 -222t-69.5 -215.5t-119.5 -186.5t-181 -129.5t-244 -49.5q-186 0 -281.5 64t-95.5 156q0 48 29 86t90 38q52 0 81 -31t29 -73q0 -34 -23 -65 t-63 -44q25 -22 90.5 -38.5t135.5 -16.5q103 0 184.5 51.5t133 143.5t80.5 210.5t34 260.5q-63 -77 -167 -117.5t-200 -40.5q-90 0 -163.5 24t-124.5 66.5t-85.5 100.5t-50.5 124.5t-16 141.5zM287 1065q0 -61 7.5 -114t28.5 -106.5t54.5 -91.5t89.5 -61.5t129 -23.5 q91 0 170 32t119 66q7 47 0.5 115t-17 143t-38 149.5t-62.5 133.5t-90.5 96t-122.5 37q-68 0 -120.5 -30t-84 -82.5t-47.5 -119t-16 -143.5z" />
<glyph unicode=":" horiz-adv-x="450" d="M98 121q0 56 34 92.5t91 36.5q59 0 94 -37t35 -92q0 -59 -33.5 -97t-95.5 -38q-60 0 -92.5 38t-32.5 97zM98 936q0 56 34 92.5t91 36.5q59 0 94 -37t35 -92q0 -58 -33.5 -96.5t-95.5 -38.5q-60 0 -92.5 38t-32.5 97z" />
<glyph unicode=";" horiz-adv-x="450" d="M90 125q0 54 36.5 89.5t92.5 35.5q71 0 106 -44.5t35 -111.5q0 -100 -70.5 -204.5t-176.5 -145.5l-23 23q66 47 117.5 115.5t48.5 125.5l-47 -4q-53 0 -86 34.5t-33 86.5zM98 936q0 56 34 92.5t91 36.5q59 0 94 -37t35 -92q0 -58 -33.5 -96.5t-95.5 -38.5q-60 0 -92.5 38 t-32.5 97z" />
<glyph unicode="&#x3c;" horiz-adv-x="1146" d="M143 657v17l820 448l32 -61l-721 -395l727 -396l-34 -63z" />
<glyph unicode="=" horiz-adv-x="1146" d="M102 467v72h942v-72h-942zM102 809v72h942v-72h-942z" />
<glyph unicode="&#x3e;" horiz-adv-x="1146" d="M143 270l727 396l-720 395l32 61l819 -448v-17l-823 -450z" />
<glyph unicode="?" horiz-adv-x="1015" d="M109 1233q0 109 98.5 188.5t288.5 79.5q82 0 156 -25.5t131 -73t90.5 -123t33.5 -167.5q0 -122 -49.5 -218t-133.5 -162t-214 -126q-2 -1 -8 -3t-9.5 -3.5t-9 -5t-8.5 -7t-5.5 -9t-2.5 -11.5v-149h-78v258q0 55 18.5 86.5t71.5 58.5q248 125 248 330q0 114 -70.5 192 t-203.5 78q-81 0 -147 -32.5t-89 -77.5q45 -2 75 -27.5t30 -66.5q0 -45 -29.5 -76t-73.5 -31t-77 31t-33 92zM313 121q0 56 34 92.5t91 36.5q59 0 94 -37t35 -92q0 -59 -33.5 -97t-95.5 -38q-60 0 -92.5 38t-32.5 97z" />
<glyph unicode="@" horiz-adv-x="1914" d="M106 403q0 170 46.5 328t134 286t204.5 224t265 148.5t309 52.5q155 0 281.5 -36t214.5 -100.5t148 -155t88 -197.5t28 -230q0 -113 -31.5 -222t-91.5 -201t-140.5 -162t-185.5 -110t-219 -40q-43 0 -72.5 21t-29.5 63q0 74 35 217l-15 2q-29 -44 -69 -92t-94.5 -101 t-117 -87t-118.5 -34q-59 0 -101 41t-59.5 98.5t-17.5 123.5q0 236 66.5 427.5t191.5 303.5t286 112q66 0 122.5 -22.5t84.5 -54.5l135 69l21 -14l-141 -625q-47 -211 -47 -262q0 -27 18.5 -47.5t48.5 -20.5q78 0 160.5 47.5t150.5 127.5t112 197t44 245q0 167 -52.5 293 t-148 202.5t-219.5 114t-276 37.5q-171 0 -326.5 -76.5t-267.5 -205.5t-178 -307t-66 -373q0 -344 200 -546t535 -202q55 0 106.5 3t84 6t80 11t63.5 11t66 14.5t59 13.5l10 -49q-196 -80 -487 -80q-379 0 -603.5 216t-224.5 597zM690 266q0 -34 5.5 -63t25 -53.5 t51.5 -24.5q78 3 160.5 73.5t134.5 143.5l109 535q-27 62 -71 108.5t-101 46.5q-74 0 -136.5 -79.5t-99.5 -199t-57.5 -248t-20.5 -239.5z" />
<glyph unicode="A" horiz-adv-x="1486" d="M8 0v39l131 53l33 21l522 1388h99l532 -1405l14 -18l140 -37v-41h-572v41l187 37l-166 457h-490l-153 -433l166 -63v-39h-443zM467 623h430l-215 598h-4z" />
<glyph unicode="B" horiz-adv-x="1269" d="M53 0v41l162 37l21 24v1280l-21 25l-162 37v41h637q57 0 112.5 -8t120 -31.5t112.5 -61.5t80 -104t32 -152q0 -133 -92 -222t-248 -124v-12q183 -20 286 -114t103 -242q0 -199 -130.5 -306.5t-336.5 -107.5h-676zM465 100l27 -22h155q103 0 176.5 48.5t106.5 123.5 t33 166q0 147 -96 232t-257 85h-145v-633zM465 813h170q143 0 217 82.5t74 222.5q0 68 -23 120.5t-59 83.5t-85 51t-95 27t-95 7h-104v-594z" />
<glyph unicode="C" horiz-adv-x="1300" d="M78 700q0 165 51.5 310t147 255t243.5 174t330 64q125 0 248 -20h92l14 -6l17 -353l-41 -6l-166 289q-95 25 -187 25q-109 0 -197 -35.5t-146.5 -95.5t-98 -142t-57 -173t-17.5 -191q0 -320 131 -486t361 -166q247 0 430 136l22 -23q-80 -136 -213 -208.5t-288 -72.5 q-148 0 -271.5 48t-213.5 138.5t-140.5 228.5t-50.5 310z" />
<glyph unicode="D" horiz-adv-x="1468" d="M53 0v41l162 37l21 24v1280l-21 25l-162 37v41h580q375 0 570.5 -195t195.5 -532q0 -163 -53 -302.5t-149.5 -240.5t-240 -158t-317.5 -57h-586zM465 102l22 -24h105q121 0 216.5 35t159.5 95.5t106 146.5t60.5 184t18.5 213q0 76 -11 150t-34.5 149t-65 138t-96.5 112.5 t-135 77.5t-176 28h-170v-1305z" />
<glyph unicode="E" horiz-adv-x="1241" d="M53 0v41l162 37l21 24v1280l-21 25l-162 37v41h826l223 4l8 -8l4 -334l-47 -10l-121 243l-47 27h-434v-582h311l31 21l84 153h45v-438h-45l-80 166l-35 16h-311v-641l22 -24h431l67 41l141 248l45 -9l-38 -358h-1080z" />
<glyph unicode="F" horiz-adv-x="1179" d="M53 0v41l162 37l21 24v1280l-21 25l-162 37v41h826l223 4l8 -8l4 -334l-47 -10l-121 243l-47 27h-434v-582h311l31 21l84 153h45v-438h-45l-80 166l-35 16h-311v-632l20 -25l181 -45v-41h-613z" />
<glyph unicode="G" horiz-adv-x="1517" d="M78 707q0 130 29 245.5t93.5 217.5t159.5 175t235.5 115.5t313.5 42.5q135 0 258 -20h93l14 -6l16 -353l-41 -6l-166 289q-95 25 -186 25q-136 0 -246 -52.5t-181.5 -145t-109.5 -216.5t-38 -268q0 -149 32.5 -273.5t97 -219t168 -147.5t236.5 -53q44 0 82.5 3t59 6.5 t54 10t48.5 9.5v465l-23 24l-188 37v41h590v-41l-136 -37l-20 -24v-485q-79 -35 -226 -63t-266 -28q-350 0 -551.5 195t-201.5 537z" />
<glyph unicode="H" horiz-adv-x="1579" d="M53 0v41l162 37l21 24v1280l-21 25l-162 37v41h594v-41l-162 -37l-20 -25v-546h649v546l-20 25l-162 37v41h594v-41l-162 -37l-21 -25v-1280l21 -24l162 -37v-41h-594v41l162 37l20 24v650h-649v-650l20 -24l162 -37v-41h-594z" />
<glyph unicode="I" horiz-adv-x="700" d="M53 0v41l162 37l21 24v1280l-21 25l-162 37v41h594v-41l-162 -37l-20 -25v-1280l20 -24l162 -37v-41h-594z" />
<glyph unicode="J" horiz-adv-x="956" d="M39 184q0 59 38.5 101.5t106.5 42.5q55 0 92 -33t37 -86q0 -57 -30 -92t-76 -45q15 -13 52.5 -19t62.5 -6q99 0 142.5 66.5t43.5 193.5v1075l-21 25l-161 37v41h594v-41l-162 -37l-21 -25v-880q0 -527 -407 -527q-79 0 -138 18.5t-91 50t-47 66.5t-15 74z" />
<glyph unicode="K" horiz-adv-x="1427" d="M53 0v41l162 37l21 24v1280l-21 25l-162 37v41h594v-41l-162 -37l-20 -25v-581l663 583l-182 60v41h504v-41l-170 -62l-27 -16l-596 -492l639 -786l31 -16l125 -31v-41h-356l-631 784v-682l20 -24l162 -37v-41h-594z" />
<glyph unicode="L" horiz-adv-x="1224" d="M53 0v41l162 37l21 24v1280l-21 25l-162 37v41h594v-41l-162 -37l-20 -25v-1280l22 -24h431l67 41l141 248l45 -9l-38 -358h-1080z" />
<glyph unicode="M" horiz-adv-x="1882" d="M53 0v41l162 49l21 25v1267l-21 25l-162 37v41h488l409 -1118h6l404 1118h469v-41l-162 -37l-20 -25v-1280l20 -24l162 -37v-41h-594v41l162 37l20 24v1272h-10l-498 -1374h-71l-504 1374h-10v-1259l20 -25l162 -49v-41h-453z" />
<glyph unicode="N" horiz-adv-x="1474" d="M41 0v41l162 49l20 25v1265l-20 27l-162 37v41h430l692 -1059h8v944l-20 25l-162 49v41h453v-41l-162 -49l-20 -25v-1376h-91l-847 1311h-11v-1190l21 -25l162 -49v-41h-453z" />
<glyph unicode="O" horiz-adv-x="1499" d="M74 727q0 159 47.5 300.5t133 247.5t215 168t284.5 62q161 0 289.5 -57.5t211.5 -159.5t126.5 -238.5t43.5 -297.5q0 -158 -46.5 -299.5t-131 -248.5t-212.5 -170t-281 -63q-216 0 -371 96.5t-232 265.5t-77 394zM324 723q0 -96 7 -175.5t24.5 -158.5t49.5 -138.5 t78 -106t115 -71t156 -24.5q97 0 171 35t121 94.5t76.5 147.5t41.5 184t12 213q0 112 -11 208t-40 190t-75 159.5t-121.5 106t-174.5 40.5q-88 0 -157.5 -26t-115.5 -76t-77.5 -112.5t-48.5 -145.5t-24 -164.5t-7 -179.5z" />
<glyph unicode="P" horiz-adv-x="1228" d="M53 0v41l162 37l21 26v1278l-21 25l-162 37v41h602q76 0 148 -13.5t139.5 -44.5t118 -76t80.5 -113t30 -151q0 -91 -28.5 -165t-77.5 -124t-116 -83.5t-141 -48.5t-155 -15h-188v-540l20 -27l201 -43v-41h-633zM465 719h133q163 0 251.5 87.5t88.5 250.5q0 164 -96 257 t-256 93h-121v-688z" />
<glyph unicode="Q" horiz-adv-x="1499" d="M74 727q0 159 47.5 300.5t133 247.5t215 168t284.5 62q161 0 289.5 -57.5t211.5 -159.5t126.5 -238.5t43.5 -297.5q0 -186 -62 -346.5t-183 -272t-283 -145.5q20 -63 60 -117.5t102.5 -100.5t155.5 -73.5t206 -28.5l-8 -57q-53 -1 -94 -1q-82 0 -118 3q-428 32 -537 362 q-283 29 -436.5 231t-153.5 521zM324 723q0 -96 7 -175.5t24.5 -158.5t49.5 -138.5t78 -106t115 -71t156 -24.5q97 0 171 35t121 94.5t76.5 147.5t41.5 184t12 213q0 112 -11 208t-40 190t-75 159.5t-121.5 106t-174.5 40.5q-88 0 -157.5 -26t-115.5 -76t-77.5 -112.5 t-48.5 -145.5t-24 -164.5t-7 -179.5z" />
<glyph unicode="R" horiz-adv-x="1437" d="M70 0v41l161 37l21 24v1278l-21 27l-161 37v41h702q236 0 353.5 -94t117.5 -271q0 -101 -58.5 -181t-153 -125t-208.5 -54v-10q56 -6 105 -20t98 -41t85.5 -65t62 -95.5t32.5 -129.5l31 -299l20 -24l181 -35v-41l-207 -8q-48 0 -84.5 7.5t-61.5 18.5t-43 33t-28 41 t-17 53.5t-9.5 60t-6.5 69.5v1l-16 207q-17 236 -301 236h-183v-617l21 -24l162 -37v-41h-594zM481 799h232q291 0 291 288q0 320 -269 320h-254v-608z" />
<glyph unicode="S" horiz-adv-x="1128" d="M90 381l49 14l195 -317q94 -23 196 -23q149 0 235.5 81t86.5 214q0 62 -16 107t-51.5 78.5t-75.5 55t-105 48.5l-209 86q-141 59 -219 141.5t-78 212.5q0 134 65 231.5t174.5 145t250.5 47.5q130 0 260 -20h90l14 -6l19 -336l-43 -6l-170 274q-87 23 -191 23 q-127 0 -199.5 -69.5t-72.5 -182.5q0 -60 19 -105.5t58 -77t74.5 -50t92.5 -40.5l178 -71q151 -61 240.5 -162.5t89.5 -239.5q0 -197 -146 -328t-364 -131q-107 0 -203 13l-213 12z" />
<glyph unicode="T" horiz-adv-x="1314" d="M45 1147l4 334l8 8l199 -4h803l198 4l9 -8l4 -334l-49 -8l-109 252l-51 16h-289v-1305l23 -24l161 -37v-41h-596v41l162 37l21 24v1305h-289l-51 -16l-109 -252z" />
<glyph unicode="U" horiz-adv-x="1525" d="M41 1444v41h594v-41l-162 -37l-20 -25v-921q0 -193 90.5 -294t257.5 -101q115 0 196 30.5t127.5 90t67 138.5t20.5 185v846l-20 24l-162 64v41h455v-41l-162 -64l-20 -24v-871q0 -240 -135 -375t-392 -135q-289 0 -421 135.5t-132 411.5v860l-20 25z" />
<glyph unicode="V" horiz-adv-x="1327" d="M-25 1444v41h572v-41l-187 -37l375 -1092h6l369 1084l-172 47v39h434v-39l-137 -43l-23 -25l-510 -1396h-69l-504 1407l-14 18z" />
<glyph unicode="W" horiz-adv-x="2095" d="M0 1440v45h571v-45l-186 -37l305 -1059h4l375 1141h76l393 -1145h2l305 1055l-172 47v43h443v-43l-129 -41l-33 -33l-438 -1384h-70l-383 1138h-8l-391 -1138h-70l-440 1400l-15 19z" />
<glyph unicode="X" horiz-adv-x="1368" d="M0 0v41l119 39l51 31l412 604l-404 676l-20 18l-131 35v41h544v-41l-157 -29l329 -551l332 533l-162 47v41h441v-41l-119 -39l-51 -31l-396 -579l424 -703l21 -16l135 -35v-41h-549v41l156 31l-348 563l-357 -547l176 -47v-41h-446z" />
<glyph unicode="Y" horiz-adv-x="1271" d="M-12 1444v41h571v-41l-186 -37l329 -612l316 600l-178 51v39h444v-39l-131 -47l-27 -25l-385 -667v-605l21 -24l162 -37v-41h-594v41l162 37l20 24v605l-371 682l-14 18z" />
<glyph unicode="Z" horiz-adv-x="1277" d="M61 43l873 1364h-621l-51 -16l-108 -252l-50 8l5 334l8 8l209 -4h872l19 -43l-881 -1364h620l64 41l141 248l45 -9l-39 -358h-1091z" />
<glyph unicode="[" horiz-adv-x="655" d="M154 -496v2065h456v-80h-272v-1903h272v-82h-456z" />
<glyph unicode="\" horiz-adv-x="614" d="M82 1513l82 11l454 -1899l-83 -12z" />
<glyph unicode="]" horiz-adv-x="655" d="M45 -414h272v1901h-272v80h457v-2063h-457v82z" />
<glyph unicode="^" horiz-adv-x="1146" d="M150 457l415 823h17l413 -819l-61 -25l-361 713l-360 -719z" />
<glyph unicode="_" horiz-adv-x="954" d="M0 -223h954v-80h-954v80z" />
<glyph unicode="`" d="M354 1421l129 142l283 -349l-37 -36z" />
<glyph unicode="a" horiz-adv-x="1060" d="M70 233q0 76 33 134t87.5 94.5t133 60t161.5 32.5t181 9v238q0 203 -228 203q-70 0 -132 -22.5t-91 -51.5q55 -6 85 -39.5t30 -75.5q0 -57 -33 -82.5t-76 -25.5q-44 0 -77 30.5t-33 83.5q0 116 105.5 190t281.5 74q78 0 143.5 -18.5t117 -56.5t80.5 -101.5t29 -146.5 v-637l11 -8l155 14l6 -25q-29 -44 -91.5 -83t-110.5 -39q-64 0 -101.5 48.5t-44.5 110.5h-8q-54 -84 -136 -126t-169 -42q-144 0 -226.5 70t-82.5 188zM268 266q0 -90 51 -139t138 -49q60 0 119.5 32t89.5 76v324q-201 0 -299.5 -59t-98.5 -185z" />
<glyph unicode="b" horiz-adv-x="1198" d="M43 1530v33l338 51l18 -12v-619q43 38 129 70t179 32q198 0 312 -139t114 -366q0 -126 -37 -235t-106.5 -192t-179 -130.5t-245.5 -47.5q-100 0 -202.5 17t-165.5 43v1433l-17 17zM399 94q69 -55 170 -55q108 0 187.5 69t117 178t37.5 242q0 230 -83.5 340.5 t-229.5 110.5q-112 0 -199 -53v-832z" />
<glyph unicode="c" horiz-adv-x="1011" d="M66 508q0 259 148.5 418t383.5 159q83 0 147 -19.5t99 -50.5t52 -63.5t17 -64.5q0 -61 -31 -97t-87 -36q-53 0 -81 31t-28 73q0 80 76 123q-70 33 -168 33q-107 0 -182 -59t-108.5 -149t-33.5 -200q0 -229 98 -362t294 -133q167 0 292 94l25 -29q-62 -87 -174.5 -144 t-226.5 -57q-106 0 -193 30t-145.5 81t-98 120.5t-57.5 145t-18 156.5z" />
<glyph unicode="d" horiz-adv-x="1193" d="M66 512q0 261 155.5 417t394.5 156q113 0 183 -20v401l-25 27l-141 37v35l350 37l18 -13v-1485l11 -24l133 -19v-30l-295 -54l-19 13l-20 106q-52 -49 -132.5 -85t-164.5 -36q-203 0 -325.5 144.5t-122.5 392.5zM287 555q0 -217 89 -341t263 -124q85 0 160 47v815 q-34 32 -87 52t-112 20q-156 0 -234.5 -124.5t-78.5 -344.5z" />
<glyph unicode="e" horiz-adv-x="1050" d="M66 510q0 116 34.5 220t97.5 183t157.5 125.5t207.5 46.5q127 0 225 -64.5t147.5 -165t49.5 -216.5v-18h-704q-5 -62 -5 -74q0 -66 11.5 -127t38.5 -119.5t67.5 -101.5t103.5 -69t142 -26q57 0 107 9.5t95 30.5t61 30t52 31l25 -29q-191 -201 -408 -201q-104 0 -189 29.5 t-143 79.5t-97.5 118.5t-57.5 145.5t-18 162zM285 674l477 2q0 83 -11.5 144.5t-37.5 108.5t-71 71t-110 24q-114 0 -175.5 -98t-71.5 -252z" />
<glyph unicode="f" horiz-adv-x="655" d="M57 0v35l125 31l19 22v860l-144 27v39l144 53v131q0 195 87.5 310.5t268.5 115.5q93 0 144 -43t51 -104q0 -43 -26 -75t-73 -32q-50 0 -77 26.5t-27 69.5q0 36 21 63.5t40 33.5q-23 8 -63 8q-20 0 -42 -9t-46.5 -30t-40 -64t-15.5 -102v-311l232 6l-10 -88h-222v-885 l17 -22l162 -31v-35h-525z" />
<glyph unicode="g" horiz-adv-x="1095" d="M23 -199q0 30 14.5 65t44 70.5t81.5 66.5t118 48q-42 18 -65 56t-23 83q0 124 190 207q-122 32 -193 114t-71 204q0 170 118.5 270t303.5 100q61 0 105.5 -10.5t115.5 -36.5l309 13l-20 -142l-226 62q113 -80 113 -232q0 -170 -111.5 -263t-291.5 -93l-80 4 q-39 -16 -69 -55.5t-30 -83.5q0 -18 5.5 -31.5t18.5 -22t24 -13.5t32 -8.5t32.5 -4.5t35.5 -2l252 -14q122 -6 209.5 -73.5t87.5 -178.5q0 -176 -148.5 -286t-388.5 -110q-235 0 -364 84.5t-129 212.5zM193 -156q0 -122 90.5 -199t253.5 -77q85 0 150.5 17.5t104 44.5 t63.5 64t33.5 71.5t8.5 72.5q0 65 -37 103.5t-135 44.5l-195 10q-153 8 -215 35q-57 -26 -89.5 -81t-32.5 -106zM315 741q0 -145 49.5 -216.5t167.5 -71.5q110 0 160.5 67.5t50.5 210.5q0 136 -51 211.5t-172 75.5q-57 0 -98.5 -24.5t-63.5 -66t-32.5 -88t-10.5 -98.5z" />
<glyph unicode="h" horiz-adv-x="1253" d="M47 1530v33l338 51l18 -12v-672q59 63 162.5 109t196.5 46q150 0 224.5 -75.5t74.5 -210.5v-711l18 -22l125 -31v-35h-489v35l125 31l18 22v668q0 33 -5 62t-19 59t-36 51t-59 34t-86 13q-68 0 -141 -32.5t-109 -72.5v-782l19 -22l125 -31v-35h-490v35l125 31l19 22v1380 l-17 17z" />
<glyph unicode="i" horiz-adv-x="593" d="M57 0v35l125 31l19 22v830l-25 24l-119 37v31l328 73l18 -4v-991l19 -22l125 -31v-35h-490zM184 1366q0 54 35.5 90.5t87.5 36.5q54 0 90.5 -34.5t36.5 -88.5q0 -59 -32 -95t-95 -36q-54 0 -88.5 36.5t-34.5 90.5z" />
<glyph unicode="j" horiz-adv-x="573" d="M-176 -356q0 42 29.5 73t78.5 31q42 0 70.5 -22.5t28.5 -69.5q0 -70 -54 -96q14 -4 48 -4q63 0 104 44t56.5 103.5t15.5 130.5v1084l-25 24l-119 37v31l328 73l18 -4v-995q0 -173 -41.5 -301t-133 -203.5t-224.5 -75.5q-88 0 -134 37.5t-46 102.5zM184 1366 q0 54 35.5 90.5t87.5 36.5q54 0 90.5 -34.5t36.5 -88.5q0 -59 -32 -95t-95 -36q-54 0 -88.5 36.5t-34.5 90.5z" />
<glyph unicode="k" horiz-adv-x="1177" d="M47 1530v33l338 51l18 -12v-932q145 0 201 63l230 244l-140 49v35h408v-35l-164 -59l-23 -15l-266 -258q6 -10 46.5 -74t50 -79.5t44.5 -72t48.5 -80.5t42.5 -73t46.5 -80.5t40.5 -73.5t42 -81l24 -17l119 -28v-35h-334l-4 31q-56 111 -173.5 314.5t-152.5 268.5h-86 v-526l19 -22l125 -31v-35h-490v35l125 31l19 22v1380l-17 17z" />
<glyph unicode="l" horiz-adv-x="593" d="M47 1530v33l338 51l18 -12v-1514l19 -22l123 -31v-35h-488v35l125 31l19 22v1380l-17 17z" />
<glyph unicode="m" horiz-adv-x="1910" d="M57 0v35l125 31l19 22v830l-25 24l-119 37v31l308 73l18 -4l14 -155q55 62 160.5 111.5t204.5 49.5q226 0 282 -172q183 172 375 172q157 0 228 -77.5t71 -208.5v-711l19 -22l125 -31v-35h-490v35l125 31l19 22v655q0 45 -7 80.5t-26 72.5t-60.5 58t-103.5 21 q-79 0 -152.5 -35.5t-109.5 -75.5q4 -46 4 -65v-711l18 -22l125 -31v-35h-489v35l125 31l18 22v655q0 45 -6.5 80.5t-25.5 72.5t-60.5 58t-103.5 21q-80 0 -153 -33.5t-106 -71.5v-782l19 -22l125 -31v-35h-490z" />
<glyph unicode="n" horiz-adv-x="1253" d="M57 0v35l125 31l19 22v830l-25 24l-119 37v31l308 73l18 -4l14 -155q55 62 160.5 111.5t204.5 49.5q157 0 228 -77.5t71 -208.5v-711l18 -22l125 -31v-35h-489v35l125 31l18 22v655q0 45 -6.5 80.5t-25.5 72.5t-60.5 58t-103.5 21q-80 0 -153 -33.5t-106 -71.5v-782 l19 -22l125 -31v-35h-490z" />
<glyph unicode="o" d="M66 524q0 255 131.5 408t373.5 153q222 0 354 -149.5t132 -388.5q0 -261 -134 -416.5t-358 -155.5q-160 0 -274.5 73.5t-169.5 196t-55 279.5zM289 580q0 -198 31 -316.5t92.5 -170.5t162.5 -52q125 0 192 114.5t67 331.5q0 279 -71.5 406t-217.5 127 q-125 0 -190.5 -116.5t-65.5 -323.5z" />
<glyph unicode="p" horiz-adv-x="1198" d="M53 -444l125 30l19 23v1311l-25 22l-119 37v31l307 73l19 -4l16 -116q151 122 316 122q198 0 310 -142t112 -363q0 -124 -31.5 -226t-85 -171.5t-125 -117t-150.5 -69t-163 -21.5q-102 0 -179 23v-383l19 -23l182 -36v-35h-547v35zM399 111q73 -64 185 -64q72 0 129 26.5 t93.5 71.5t60.5 109t34 134t10 151q0 228 -86 334t-229 106q-54 0 -110.5 -20.5t-86.5 -45.5v-802z" />
<glyph unicode="q" horiz-adv-x="1183" d="M66 494q0 168 63.5 300.5t190 211.5t296.5 79q70 0 143.5 -15.5t112.5 -43.5l115 59l14 -8v-1468l19 -23l125 -30v-35h-547v35l182 38l19 23v467q-78 -56 -129 -78q-77 -31 -162 -31q-198 0 -320 146.5t-122 372.5zM287 537q0 -226 94.5 -335.5t245.5 -109.5q95 0 172 47 v801q-21 28 -73 53t-112 25q-147 0 -237 -134.5t-90 -346.5z" />
<glyph unicode="r" horiz-adv-x="872" d="M57 0v35l125 31l19 22v830l-25 24l-119 37v31l308 73l18 -4l14 -155q72 62 159 111.5t157 49.5q64 0 101.5 -31t37.5 -89q0 -46 -31 -83.5t-84 -37.5q-42 0 -71 26t-35 82h-2q-62 0 -129 -26t-97 -54v-784l19 -22l153 -31v-35h-518z" />
<glyph unicode="s" horiz-adv-x="923" d="M78 297l41 10l147 -229q90 -37 168 -37q114 0 174 58.5t60 148.5q0 88 -47.5 131t-161.5 78l-123 39q-236 76 -236 278q0 143 99.5 227t285.5 84q83 0 220 -26h65l18 -279l-45 -8l-141 225q-52 23 -123 23q-99 0 -154 -47t-55 -135q0 -118 156 -168l141 -45 q279 -90 279 -306q0 -151 -115.5 -247.5t-304.5 -96.5q-72 0 -158 11l-153 12z" />
<glyph unicode="t" horiz-adv-x="720" d="M45 977v39l154 63l131 244h57l-2 -268l305 6l-12 -88h-293v-684q0 -42 4 -70t17.5 -57t42.5 -43.5t75 -14.5q45 0 77 8.5t79 30.5l16 -22q-39 -59 -106.5 -100t-147.5 -41q-124 0 -192 73t-68 195v700z" />
<glyph unicode="u" horiz-adv-x="1220" d="M37 989v31l328 57l18 -12v-733q0 -37 2.5 -65.5t14 -64.5t31.5 -59.5t58 -40t91 -16.5q82 0 156.5 33.5t101.5 70.5v744l-25 24l-119 31v31l328 57l18 -12v-948l15 -25l129 -31v-30l-301 -51l-19 12l-14 151q-66 -69 -168 -118.5t-215 -49.5q-146 0 -216.5 78.5 t-70.5 208.5v660l-24 24z" />
<glyph unicode="v" horiz-adv-x="1028" d="M-25 1026v35h492v-35l-158 -35l275 -719h4l239 699l-153 55v35h379v-35l-107 -45l-20 -14l-371 -967h-66l-387 967l-18 14z" />
<glyph unicode="w" horiz-adv-x="1675" d="M0 1026v35h492v-35l-158 -35l235 -708h4l301 778h56l309 -780h4l219 690l-153 55v35h379v-35l-107 -45l-20 -14l-347 -967h-57l-303 766h-6l-309 -766h-58l-354 967l-18 14z" />
<glyph unicode="x" horiz-adv-x="1089" d="M0 0v35l106 39l17 14l332 430l-279 445l-29 24l-106 39v35h479v-35l-143 -16l235 -389l262 378l-137 29v33h353v-35l-107 -39l-16 -14l-312 -404l301 -471l27 -24l107 -39v-35h-480v35l144 16l-254 414l-285 -404l137 -28v-33h-352z" />
<glyph unicode="y" horiz-adv-x="1028" d="M-25 -354q0 49 31.5 82.5t83.5 33.5q44 0 72 -28t28 -68q0 -48 -43 -94h12q38 0 71 17q38 20 71 63t59 91.5t56 119.5l61 147l-375 957l-22 14l-105 45v35h492v-35l-158 -35l273 -725h4l241 707l-153 53v35h379v-35l-107 -45l-20 -14l-391 -1016q-94 -244 -175.5 -343.5 t-209.5 -99.5q-90 0 -132.5 39t-42.5 99z" />
<glyph unicode="z" horiz-adv-x="1003" d="M70 39l630 956h-387l-188 -241l-33 6l10 303l13 12l268 -14h555l12 -37l-626 -958h383l186 262l39 -11l-29 -317h-821z" />
<glyph unicode="{" horiz-adv-x="655" d="M68 569v56q48 0 88 9.5t70 35.5t30 65q0 30 -25.5 236.5t-25.5 283.5q0 67 8.5 114t32.5 89t65 67t108 39.5t161 14.5v-61q-75 -7 -115.5 -18t-64 -38.5t-29.5 -64t-6 -107.5q0 -68 23.5 -252t23.5 -245q0 -74 -51.5 -128t-153.5 -65v-10q118 -10 170.5 -65.5 t52.5 -133.5q0 -103 -32.5 -308t-32.5 -282q0 -106 13 -141q22 -61 108 -81q39 -9 94 -13v-62q-149 1 -230 33t-113 96.5t-32 180.5q0 81 27.5 291.5t27.5 306.5q0 67 -56.5 110.5t-135.5 46.5z" />
<glyph unicode="|" horiz-adv-x="532" d="M221 -223v1745h88v-1745h-88z" />
<glyph unicode="}" horiz-adv-x="655" d="M76 -434q32 2 58 5.5t46.5 10.5t36.5 12.5t27.5 17.5t19.5 20t13 25.5l8 28t4.5 33.5t1.5 36.5v41.5v4q0 77 -33 282t-33 308q0 78 53 133.5t171 65.5v10q-102 11 -153.5 65t-51.5 128q0 61 23.5 245t23.5 252q0 71 -6 107.5t-29.5 64t-64 38.5t-115.5 18v61 q94 0 161 -14.5t108 -39.5t65 -67t32.5 -89t8.5 -114q0 -77 -26 -283.5t-26 -236.5t17 -52.5t45.5 -34.5t60 -17.5t66.5 -5.5v-56q-80 -3 -136.5 -46.5t-56.5 -110.5q0 -96 28 -306.5t28 -291.5q0 -116 -32 -180.5t-113 -96.5t-230 -33v62z" />
<glyph unicode="~" horiz-adv-x="1146" d="M92 631q19 58 47.5 96.5t62.5 54.5t60 21.5t57 5.5q60 0 131 -23.5t126.5 -51.5t127.5 -51.5t134 -23.5q47 0 87 32t60 100l78 -21q-26 -97 -90 -147t-158 -50q-57 0 -128 24t-128 53t-127 53t-125 24q-48 0 -81 -30t-60 -93z" />
<glyph unicode="&#xa1;" horiz-adv-x="557" d="M139 -293l111 955h55l109 -953q6 -61 -39.5 -99t-98.5 -38q-55 0 -98 41.5t-39 93.5zM150 958q0 59 33.5 97.5t95.5 38.5q60 0 92 -38.5t32 -97.5q0 -56 -33.5 -92.5t-90.5 -36.5q-59 0 -94 37t-35 92z" />
<glyph unicode="&#xa2;" horiz-adv-x="1046" d="M84 563q0 242 130 398t343 176v202h74v-198q79 -2 140 -22.5t94.5 -51t50 -62.5t16.5 -63q0 -61 -31.5 -97t-87.5 -36q-53 0 -80.5 30.5t-27.5 73.5q0 80 75 123q-69 29 -149 33v-907q14 -2 43 -2q86 0 164 28.5t135 71.5l24 -29q-57 -80 -158 -135.5t-208 -64.5v-250 h-74v250q-121 6 -214.5 54t-148.5 123.5t-82.5 165t-27.5 189.5zM289 662q0 -194 66 -322t202 -166v891q-131 -22 -199.5 -135t-68.5 -268z" />
<glyph unicode="&#xa3;" horiz-adv-x="1169" d="M49 98q0 47 37 76t86 29q86 0 164 -49q55 90 55 284q0 98 -72 314h-217v75h191q-64 183 -64 267q0 200 122 317t321 117q75 0 145.5 -23.5t122 -76.5t51.5 -125q0 -52 -31.5 -87.5t-85.5 -35.5q-51 0 -81.5 31t-30.5 81q0 28 19 62t57 47q-56 53 -181 53 q-64 0 -112 -23.5t-75.5 -64t-40.5 -88t-13 -102.5q0 -45 15 -111t27.5 -105t43.5 -133h346v-75h-322q54 -179 54 -283q0 -86 -48 -186t-124 -140l8 -10q77 5 260.5 13.5t218.5 11.5q86 6 128 40t42 109l53 -2q1 -73 -14.5 -131t-41.5 -94.5t-61.5 -60.5t-71 -34t-73.5 -10 q-116 0 -247.5 28.5t-246.5 90.5q-36 -46 -85 -75t-95 -29q-74 0 -103.5 32t-29.5 76z" />
<glyph unicode="&#xa4;" horiz-adv-x="1110" d="M180 369l105 106q-68 90 -68 205q0 112 68 205l-105 106l60 58l104 -105q88 76 213 76q121 0 211 -74l102 103l60 -58l-105 -104q70 -96 70 -207q0 -114 -70 -207l105 -104l-60 -58l-104 103q-94 -74 -209 -74q-121 0 -213 76l-104 -105zM330 680q0 -102 60.5 -174 t166.5 -72q110 0 168.5 71t58.5 175q0 103 -61 176.5t-166 73.5q-110 0 -168.5 -72.5t-58.5 -177.5z" />
<glyph unicode="&#xa5;" horiz-adv-x="1271" d="M-12 1444v41h571v-41l-186 -37l329 -612l316 600l-178 51v39h444v-39l-131 -47l-27 -25l-385 -665h349v-72h-349v-141h349v-72h-349v-322l21 -24l162 -37v-41h-594v41l162 37l20 24v322h-344v72h344v141h-344v72h342l-369 680l-14 18z" />
<glyph unicode="&#xa6;" horiz-adv-x="643" d="M285 -348v823h73v-823h-73zM285 662v823h73v-823h-73z" />
<glyph unicode="&#xa7;" horiz-adv-x="1214" d="M154 907q0 169 71 306t198.5 215.5t285.5 78.5q170 0 249.5 -44.5t79.5 -98.5q0 -12 -3.5 -25.5t-12 -29.5t-28.5 -26.5t-48 -10.5q-34 0 -61.5 31.5t-26.5 76.5q-74 31 -180 31q-192 0 -328 -178q99 -75 188 -152t191 -184.5t174.5 -211.5t121 -228t48.5 -240 q0 -165 -74 -301.5t-201.5 -214.5t-279.5 -78q-169 0 -249.5 45t-80.5 99q0 12 3.5 25.5t12.5 29.5t29 26.5t48 10.5q34 0 61.5 -32t26.5 -77q74 -31 180 -31q94 0 185.5 45.5t148.5 135.5q-98 73 -191 154t-193.5 188.5t-174.5 212.5t-122 224.5t-48 227.5zM250 932 q0 -412 686 -957q47 97 47 224q0 116 -69 258.5t-176 272.5t-220.5 239.5t-218.5 185.5q-49 -85 -49 -223z" />
<glyph unicode="&#xa8;" d="M233 1366q0 54 35.5 90.5t87.5 36.5q54 0 90.5 -34.5t36.5 -88.5q0 -59 -32 -95t-95 -36q-54 0 -88.5 36.5t-34.5 90.5zM637 1366q0 54 35.5 90.5t87.5 36.5q54 0 90.5 -34.5t36.5 -88.5q0 -59 -32 -95t-95 -36q-54 0 -88.5 36.5t-34.5 90.5z" />
<glyph unicode="&#xa9;" horiz-adv-x="1880" d="M90 725q0 166 47 309t129 246.5t192.5 177.5t239.5 110t267 36q171 0 321 -58t262 -164.5t177 -268t65 -357.5q0 -180 -59.5 -336.5t-167.5 -271t-267.5 -180.5t-349.5 -66q-204 0 -367 61t-269.5 170.5t-163 260t-56.5 331.5zM184 725q0 -217 91 -387t265 -267.5 t406 -97.5q168 0 309.5 60t237.5 164t149.5 245.5t53.5 302.5q0 193 -59 345.5t-162 249t-237.5 146.5t-291.5 50q-156 0 -295.5 -59.5t-242.5 -164.5t-163.5 -258t-60.5 -329zM453 729q0 259 148.5 418.5t383.5 159.5q83 0 147 -19.5t99 -51t52 -64t17 -64.5q0 -61 -31 -97 t-87 -36q-53 0 -81 31t-28 73q0 80 76 123q-70 33 -168 33q-107 0 -182 -59t-108.5 -149t-33.5 -200q0 -229 98 -362t294 -133q167 0 292 94l25 -29q-62 -87 -174 -143.5t-227 -56.5q-106 0 -193 30t-145.5 81t-98 120t-57.5 144.5t-18 156.5z" />
<glyph unicode="&#xaa;" horiz-adv-x="677" d="M70 1028q0 52 28.5 91t78.5 61t108.5 32.5t126.5 10.5v108q0 55 -30.5 87t-92.5 32q-78 0 -121 -43q47 -16 47 -59q0 -33 -18 -47.5t-45 -14.5q-25 0 -43.5 16.5t-18.5 45.5q0 64 65.5 110.5t163.5 46.5q91 0 149 -45t58 -137v-358l4 -4l91 10l12 -33q-24 -20 -61 -35.5 t-64 -15.5q-35 0 -55.5 28t-24.5 62h-6q-64 -94 -170 -94q-82 0 -132 39.5t-50 105.5zM121 682v82h420v-82h-420zM190 1042q0 -94 97 -94q42 0 75 20t50 48v166q-222 0 -222 -140z" />
<glyph unicode="&#xab;" horiz-adv-x="944" d="M66 545v92l403 289l29 -33l-240 -295l240 -313l-29 -25zM446 545v92l404 289l29 -33l-240 -295l240 -313l-29 -25z" />
<glyph unicode="&#xac;" horiz-adv-x="1206" d="M96 627v73h951v-366h-76v293h-875z" />
<glyph unicode="&#xad;" horiz-adv-x="651" d="M74 539v166h504v-166h-504z" />
<glyph unicode="&#xae;" horiz-adv-x="1372" d="M102 913q0 141 49.5 257t133.5 189.5t191 113.5t226 40q117 0 220 -39.5t180.5 -112t122.5 -183t45 -244.5q0 -164 -70 -296t-203 -209t-307 -77q-279 0 -433.5 154t-154.5 407zM176 913q0 -222 139.5 -362.5t374.5 -140.5q150 0 266 69t177 186.5t61 262.5 q0 129 -39.5 231.5t-109 167t-160 98t-195.5 33.5q-140 0 -257 -68t-187 -193.5t-70 -283.5zM412 582v18l65 18l10 13v606l-10 12l-65 19v20h317q97 0 149 -45.5t52 -128.5q0 -74 -56 -120.5t-145 -51.5v-4q82 -12 133 -49.5t58 -118.5l12 -141l8 -11l68 -18v-18l-115 -4 q-27 0 -45.5 7.5t-28 16t-15.5 30.5t-7.5 35t-3.5 46l-7 98q-8 113 -122 113h-48v-293l7 -13l65 -18v-18h-276zM616 963h48q27 0 48 5t43 19.5t34 45t12 75.5q0 68 -35 104.5t-96 36.5h-54v-286z" />
<glyph unicode="&#xaf;" d="M291 1231v133h540v-133h-540z" />
<glyph unicode="&#xb0;" horiz-adv-x="548" d="M90 1354q0 77 51 132.5t131 55.5q89 0 138 -50t49 -126q0 -78 -53.5 -133t-133.5 -55q-90 0 -136 52.5t-46 123.5zM154 1362q0 -55 30 -95t86 -40q63 0 94 39t31 96q0 52 -31 90.5t-92 38.5q-56 0 -87 -38t-31 -91z" />
<glyph unicode="&#xb1;" horiz-adv-x="1146" d="M100 0v74h947v-74h-947zM100 762v74h437v436h73v-436h437v-74h-437v-438h-73v438h-437z" />
<glyph unicode="&#xb2;" horiz-adv-x="747" d="M96 1372q0 75 76 135t188 60q138 0 209.5 -61.5t71.5 -153.5q0 -49 -21.5 -100t-52.5 -91t-74 -82.5t-77 -69t-70.5 -54.5t-46.5 -37l-37 -31v-4l322 4l16 12l37 72l27 -2l-23 -232h-530v78l192 193q99 105 133.5 174.5t34.5 163.5q0 73 -39 112t-115 39q-92 0 -139 -57 q34 -3 57 -24.5t23 -51.5q0 -34 -21.5 -58t-56.5 -24q-40 0 -62 23.5t-22 66.5z" />
<glyph unicode="&#xb3;" horiz-adv-x="735" d="M84 842q0 36 23.5 66t62.5 30q35 0 60.5 -20.5t25.5 -53.5q0 -53 -49 -78q44 -14 98 -14q82 0 136.5 42.5t54.5 135.5q0 164 -193 164h-70v68h72q71 0 121.5 45.5t50.5 120.5q0 69 -44 109t-116 40q-92 0 -139 -57q34 -3 57 -24.5t23 -51.5q0 -34 -21.5 -58t-56.5 -24 q-40 0 -62 23.5t-22 66.5q0 75 74.5 135t185.5 60q136 0 207.5 -56.5t71.5 -146.5q0 -69 -50 -129t-143 -82q105 -7 162.5 -61t57.5 -131q0 -112 -96.5 -183t-258.5 -71q-112 0 -167.5 36.5t-55.5 98.5z" />
<glyph unicode="&#xb4;" d="M354 1214l283 349l129 -142l-375 -243z" />
<glyph unicode="&#xb5;" horiz-adv-x="1232" d="M170 1040l192 37l27 -16l-6 -252v-444q0 -41 13.5 -83t39 -79.5t70 -61.5t100.5 -24q99 0 165.5 66t66.5 159v702l186 33l23 -16l-7 -252v-590q0 -90 54 -90q51 0 51 125h41q0 -143 -36 -208.5t-120 -65.5q-72 0 -124 75.5t-50 159.5h-8q-48 -114 -130 -178t-165 -64 q-252 0 -287 246l-24 -6q0 -74 13 -147.5t28 -121t43 -124.5q5 -13 21 -48.5t26 -63.5t10 -44q0 -135 -92 -135q-49 0 -80 35.5t-31 118.5v1208z" />
<glyph unicode="&#xb6;" horiz-adv-x="1232" d="M90 930q0 122 31 217.5t85 158t131.5 103.5t166 58.5t194.5 17.5h473v-80h-192v-1753h-92v1753h-213v-1753h-99v803q-219 2 -352 129.5t-133 345.5z" />
<glyph unicode="&#xb7;" horiz-adv-x="450" d="M98 791q0 56 34 92.5t91 36.5q59 0 94 -37t35 -92q0 -59 -33.5 -97.5t-95.5 -38.5q-60 0 -92.5 38.5t-32.5 97.5z" />
<glyph unicode="&#xb8;" d="M354 -389q0 32 18 49.5t46 17.5q30 0 47.5 -15t17.5 -40q0 -19 -18 -41q18 -6 45 -6q66 0 109 23.5t43 74.5q0 35 -39.5 60t-87.5 36t-107 17l-14 10l82 236l55 -6l-45 -123q51 -5 93.5 -16t82 -31t62 -54t22.5 -79q0 -91 -67.5 -147t-192.5 -56q-63 0 -107.5 24.5 t-44.5 65.5z" />
<glyph unicode="&#xb9;" horiz-adv-x="577" d="M96 737v35l111 19l10 12v692l-108 -10l-9 39q171 31 271 61l10 -8v-774l10 -12l113 -19v-35h-408z" />
<glyph unicode="&#xba;" horiz-adv-x="720" d="M74 1192q0 141 78.5 227t214.5 86q125 0 202.5 -84t77.5 -217q0 -144 -80.5 -230.5t-208.5 -86.5q-134 0 -209 85t-75 220zM147 682v82h420v-82h-420zM207 1223q0 -158 41.5 -219.5t124.5 -61.5q141 0 141 229q0 153 -40.5 216t-123.5 63q-143 0 -143 -227z" />
<glyph unicode="&#xbb;" horiz-adv-x="944" d="M66 285l239 313l-239 295l28 33l404 -289v-92l-404 -285zM446 285l240 313l-240 295l29 33l404 -289v-92l-404 -285z" />
<glyph unicode="&#xbc;" horiz-adv-x="1581" d="M152 684v35l110 18l10 13v692l-108 -10l-8 38q159 29 270 62l10 -8v-774l10 -13l113 -18v-35h-407zM317 -4l783 1511l69 -28l-776 -1512zM782 209v102l408 523h121v-521h145v-104h-145v-143l10 -13l94 -18v-35h-368v35l92 18l10 13v143h-367zM868 313h281v353h-4z" />
<glyph unicode="&#xbd;" horiz-adv-x="1581" d="M152 684v35l110 18l10 13v692l-108 -10l-8 38q159 29 270 62l10 -8v-774l10 -13l113 -18v-35h-407zM317 -4l783 1511l69 -28l-776 -1512zM870 635q0 75 76.5 134.5t188.5 59.5q138 0 209 -61.5t71 -153.5q0 -49 -21.5 -100t-52.5 -91t-74 -82.5t-77 -69t-70.5 -54.5 t-46.5 -37l-37 -30v-5l322 5l16 12l37 71l27 -2l-23 -231h-530v78l192 192q99 105 133.5 174.5t34.5 163.5q0 73 -38.5 112.5t-114.5 39.5q-42 0 -80 -16t-60 -42q34 -3 57 -24t23 -51q0 -34 -21.5 -58t-56.5 -24q-40 0 -62 23.5t-22 66.5z" />
<glyph unicode="&#xbe;" horiz-adv-x="1581" d="M90 788q0 36 23.5 66.5t62.5 30.5q35 0 60.5 -20.5t25.5 -53.5q0 -53 -49 -78q44 -14 98 -14q82 0 136.5 42.5t54.5 135.5q0 164 -193 164h-69v67h71q71 0 121.5 45.5t50.5 120.5q0 70 -43.5 110t-115.5 40q-42 0 -80 -16t-60 -42q34 -3 57 -24t23 -51q0 -34 -21.5 -58 t-56.5 -24q-40 0 -62 23.5t-22 66.5q0 75 74.5 134.5t185.5 59.5q136 0 207.5 -56t71.5 -146q0 -70 -49.5 -129.5t-142.5 -81.5q105 -7 162 -61.5t57 -131.5q0 -112 -96.5 -183t-258.5 -71q-112 0 -167.5 36.5t-55.5 98.5zM365 -4l782 1511l70 -28l-777 -1512zM805 209v102 l407 523h121v-521h146v-104h-146v-143l10 -13l95 -18v-35h-369v35l92 18l10 13v143h-366zM891 313h280v353h-4z" />
<glyph unicode="&#xbf;" horiz-adv-x="1015" d="M109 -39q0 122 49.5 218t133.5 162t214 126q2 1 8 3t9.5 3.5t9 5t8.5 7t5.5 9t2.5 11.5v149h78v-258q0 -55 -18.5 -86.5t-71.5 -58.5q-248 -125 -248 -330q0 -114 70.5 -192t203.5 -78q81 0 147 32.5t89 77.5q-45 2 -75 28t-30 67q0 45 29.5 75.5t73.5 30.5t77 -31 t33 -92q0 -109 -98.5 -188.5t-288.5 -79.5q-82 0 -156 25.5t-131 73t-90.5 123t-33.5 167.5zM449 952q0 58 33.5 96.5t95.5 38.5q60 0 92 -38t32 -97q0 -56 -33.5 -92.5t-90.5 -36.5q-59 0 -94 37t-35 92z" />
<glyph unicode="&#xc0;" horiz-adv-x="1486" d="M8 0v39l131 53l33 21l522 1388h99l532 -1405l14 -18l140 -37v-41h-572v41l187 37l-166 457h-490l-153 -433l166 -63v-39h-443zM311 1765l117 170l346 -315l-29 -39zM467 623h430l-215 598h-4z" />
<glyph unicode="&#xc1;" horiz-adv-x="1486" d="M8 0v39l131 53l33 21l522 1388h99l532 -1405l14 -18l140 -37v-41h-572v41l187 37l-166 457h-490l-153 -433l166 -63v-39h-443zM467 623h430l-215 598h-4zM672 1620l346 315l117 -170l-435 -184z" />
<glyph unicode="&#xc2;" horiz-adv-x="1486" d="M8 0v39l131 53l33 21l522 1388h99l532 -1405l14 -18l140 -37v-41h-572v41l187 37l-166 457h-490l-153 -433l166 -63v-39h-443zM457 1604l202 274h154l205 -270l-33 -33l-254 147l-242 -149zM467 623h430l-215 598h-4z" />
<glyph unicode="&#xc3;" horiz-adv-x="1486" d="M8 0v39l131 53l33 21l522 1388h99l532 -1405l14 -18l140 -37v-41h-572v41l187 37l-166 457h-490l-153 -433l166 -63v-39h-443zM360 1599q34 100 96 154.5t101 54.5q59 0 195 -18t176 -18q54 0 82.5 15.5t60.5 53.5l43 -16q-11 -69 -71.5 -141t-120.5 -72q-56 0 -184 19.5 t-185 19.5q-98 0 -143 -70zM467 623h430l-215 598h-4z" />
<glyph unicode="&#xc4;" horiz-adv-x="1486" d="M8 0v39l131 53l33 21l522 1388h99l532 -1405l14 -18l140 -37v-41h-572v41l187 37l-166 457h-490l-153 -433l166 -63v-39h-443zM393 1731q0 53 35 90t86 37q54 0 91.5 -34.5t37.5 -88.5q0 -59 -32 -94t-97 -35q-52 0 -86.5 35.5t-34.5 89.5zM467 623h430l-215 598h-4z M821 1731q0 53 34.5 90t86.5 37q54 0 90.5 -34.5t36.5 -88.5q0 -59 -31.5 -94t-95.5 -35q-54 0 -87.5 35.5t-33.5 89.5z" />
<glyph unicode="&#xc5;" horiz-adv-x="1486" d="M8 0v39l131 53l33 21l522 1388h99l532 -1405l14 -18l140 -37v-41h-572v41l187 37l-166 457h-490l-153 -433l166 -63v-39h-443zM467 623h430l-215 598h-4zM555 1735q0 78 49.5 128t143.5 50q81 0 134.5 -45t53.5 -119q0 -84 -52 -133t-145 -49q-85 0 -134.5 48t-49.5 120z M635 1741q0 -58 26 -92.5t82 -34.5q58 0 85.5 34t27.5 91q0 129 -117 129q-104 0 -104 -127z" />
<glyph unicode="&#xc6;" horiz-adv-x="1927" d="M-27 2v39l138 43l22 25l658 1302l-177 33v41h951l223 4l8 -8l4 -334l-47 -10l-121 243l-47 27h-434v-582h311l31 21l84 153h45v-438h-45l-80 166l-35 16h-311v-641l23 -24h430l67 41l141 248l46 -9l-39 -358h-1080v41l162 37l21 24v537h-410l-268 -551l172 -47v-39h-443z M553 725h369v682h-35z" />
<glyph unicode="&#xc7;" horiz-adv-x="1300" d="M78 700q0 165 51.5 310t147 255t243.5 174t330 64q125 0 248 -20h92l14 -6l17 -353l-41 -6l-166 289q-95 25 -187 25q-109 0 -197 -35.5t-146.5 -95.5t-98 -142t-57 -173t-17.5 -191q0 -320 131 -486t361 -166q247 0 430 136l22 -23q-75 -127 -196.5 -198.5t-265.5 -80.5 l-27 -73q51 -5 93.5 -16t82 -31t62 -54t22.5 -79q0 -91 -67.5 -147t-192.5 -56q-63 0 -107.5 24.5t-44.5 65.5q0 32 18 49.5t46 17.5q30 0 47.5 -15t17.5 -40q0 -19 -18 -41q18 -6 45 -6q66 0 109 23.5t43 74.5q0 35 -39.5 60t-87.5 36t-107 17l-14 10l61 178 q-145 3 -265 52.5t-207.5 139.5t-136 226.5t-48.5 306.5z" />
<glyph unicode="&#xc8;" horiz-adv-x="1241" d="M53 0v41l162 37l21 24v1280l-21 25l-162 37v41h826l223 4l8 -8l4 -334l-47 -10l-121 243l-47 27h-434v-582h311l31 21l84 153h45v-438h-45l-80 166l-35 16h-311v-641l22 -24h431l67 41l141 248l45 -9l-38 -358h-1080zM276 1765l117 170l346 -315l-28 -39z" />
<glyph unicode="&#xc9;" horiz-adv-x="1241" d="M53 0v41l162 37l21 24v1280l-21 25l-162 37v41h826l223 4l8 -8l4 -334l-47 -10l-121 243l-47 27h-434v-582h311l31 21l84 153h45v-438h-45l-80 166l-35 16h-311v-641l22 -24h431l67 41l141 248l45 -9l-38 -358h-1080zM618 1620l347 315l116 -170l-434 -184z" />
<glyph unicode="&#xca;" horiz-adv-x="1241" d="M53 0v41l162 37l21 24v1280l-21 25l-162 37v41h826l223 4l8 -8l4 -334l-47 -10l-121 243l-47 27h-434v-582h311l31 21l84 153h45v-438h-45l-80 166l-35 16h-311v-641l22 -24h431l67 41l141 248l45 -9l-38 -358h-1080zM377 1604l203 274h153l205 -270l-33 -33l-254 147 l-241 -149z" />
<glyph unicode="&#xcb;" horiz-adv-x="1241" d="M53 0v41l162 37l21 24v1280l-21 25l-162 37v41h826l223 4l8 -8l4 -334l-47 -10l-121 243l-47 27h-434v-582h311l31 21l84 153h45v-438h-45l-80 166l-35 16h-311v-641l22 -24h431l67 41l141 248l45 -9l-38 -358h-1080zM334 1731q0 53 35 90t86 37q54 0 91.5 -34.5 t37.5 -88.5q0 -59 -32 -94t-97 -35q-52 0 -86.5 35.5t-34.5 89.5zM762 1731q0 53 34.5 90t86.5 37q54 0 90.5 -34.5t36.5 -88.5q0 -59 -31.5 -94t-95.5 -35q-54 0 -87.5 35.5t-33.5 89.5z" />
<glyph unicode="&#xcc;" horiz-adv-x="700" d="M6 1765l117 170l346 -315l-29 -39zM53 0v41l162 37l21 24v1280l-21 25l-162 37v41h594v-41l-162 -37l-20 -25v-1280l20 -24l162 -37v-41h-594z" />
<glyph unicode="&#xcd;" horiz-adv-x="700" d="M53 0v41l162 37l21 24v1280l-21 25l-162 37v41h594v-41l-162 -37l-20 -25v-1280l20 -24l162 -37v-41h-594zM238 1620l346 315l116 -170l-434 -184z" />
<glyph unicode="&#xce;" horiz-adv-x="700" d="M53 0v41l162 37l21 24v1280l-21 25l-162 37v41h594v-41l-162 -37l-20 -25v-1280l20 -24l162 -37v-41h-594zM70 1604l202 274h154l205 -270l-33 -33l-254 147l-242 -149z" />
<glyph unicode="&#xcf;" horiz-adv-x="700" d="M12 1731q0 53 35 90t86 37q54 0 91.5 -34.5t37.5 -88.5q0 -59 -32 -94t-97 -35q-52 0 -86.5 35.5t-34.5 89.5zM53 0v41l162 37l21 24v1280l-21 25l-162 37v41h594v-41l-162 -37l-20 -25v-1280l20 -24l162 -37v-41h-594zM440 1731q0 53 34.5 90t86.5 37q54 0 90.5 -34.5 t36.5 -88.5q0 -59 -31.5 -94t-95.5 -35q-54 0 -87.5 35.5t-33.5 89.5z" />
<glyph unicode="&#xd0;" horiz-adv-x="1468" d="M53 0v41l162 37l21 24v643h-162v82h162v555l-21 25l-162 37v41h580q375 0 570.5 -195t195.5 -532q0 -163 -53 -302.5t-149.5 -240.5t-240 -158t-317.5 -57h-586zM465 102l22 -24h105q121 0 216.5 35t159.5 95.5t106 146.5t60.5 184t18.5 213q0 76 -11 150t-34.5 149 t-65 138t-96.5 112.5t-135 77.5t-176 28h-170v-580h323v-82h-323v-643z" />
<glyph unicode="&#xd1;" horiz-adv-x="1474" d="M41 0v41l162 49l20 25v1265l-20 27l-162 37v41h430l692 -1059h8v944l-20 25l-162 49v41h453v-41l-162 -49l-20 -25v-1376h-91l-847 1311h-11v-1190l21 -25l162 -49v-41h-453zM418 1599q34 100 95.5 154.5t100.5 54.5q59 0 195 -18t176 -18q54 0 82.5 15.5t60.5 53.5 l43 -16q-11 -69 -71.5 -141t-120.5 -72q-57 0 -185 19.5t-184 19.5q-98 0 -143 -70z" />
<glyph unicode="&#xd2;" horiz-adv-x="1499" d="M74 727q0 159 47.5 300.5t133 247.5t215 168t284.5 62q161 0 289.5 -57.5t211.5 -159.5t126.5 -238.5t43.5 -297.5q0 -158 -46.5 -299.5t-131 -248.5t-212.5 -170t-281 -63q-216 0 -371 96.5t-232 265.5t-77 394zM324 723q0 -96 7 -175.5t24.5 -158.5t49.5 -138.5 t78 -106t115 -71t156 -24.5q97 0 171 35t121 94.5t76.5 147.5t41.5 184t12 213q0 112 -11 208t-40 190t-75 159.5t-121.5 106t-174.5 40.5q-88 0 -157.5 -26t-115.5 -76t-77.5 -112.5t-48.5 -145.5t-24 -164.5t-7 -179.5zM352 1765l117 170l346 -315l-29 -39z" />
<glyph unicode="&#xd3;" horiz-adv-x="1499" d="M74 727q0 159 47.5 300.5t133 247.5t215 168t284.5 62q161 0 289.5 -57.5t211.5 -159.5t126.5 -238.5t43.5 -297.5q0 -158 -46.5 -299.5t-131 -248.5t-212.5 -170t-281 -63q-216 0 -371 96.5t-232 265.5t-77 394zM324 723q0 -96 7 -175.5t24.5 -158.5t49.5 -138.5 t78 -106t115 -71t156 -24.5q97 0 171 35t121 94.5t76.5 147.5t41.5 184t12 213q0 112 -11 208t-40 190t-75 159.5t-121.5 106t-174.5 40.5q-88 0 -157.5 -26t-115.5 -76t-77.5 -112.5t-48.5 -145.5t-24 -164.5t-7 -179.5zM678 1620l346 315l117 -170l-434 -184z" />
<glyph unicode="&#xd4;" horiz-adv-x="1499" d="M74 727q0 159 47.5 300.5t133 247.5t215 168t284.5 62q161 0 289.5 -57.5t211.5 -159.5t126.5 -238.5t43.5 -297.5q0 -158 -46.5 -299.5t-131 -248.5t-212.5 -170t-281 -63q-216 0 -371 96.5t-232 265.5t-77 394zM324 723q0 -96 7 -175.5t24.5 -158.5t49.5 -138.5 t78 -106t115 -71t156 -24.5q97 0 171 35t121 94.5t76.5 147.5t41.5 184t12 213q0 112 -11 208t-40 190t-75 159.5t-121.5 106t-174.5 40.5q-88 0 -157.5 -26t-115.5 -76t-77.5 -112.5t-48.5 -145.5t-24 -164.5t-7 -179.5zM469 1604l203 274h153l205 -270l-33 -33l-254 147 l-241 -149z" />
<glyph unicode="&#xd5;" horiz-adv-x="1499" d="M74 727q0 159 47.5 300.5t133 247.5t215 168t284.5 62q161 0 289.5 -57.5t211.5 -159.5t126.5 -238.5t43.5 -297.5q0 -158 -46.5 -299.5t-131 -248.5t-212.5 -170t-281 -63q-216 0 -371 96.5t-232 265.5t-77 394zM324 723q0 -96 7 -175.5t24.5 -158.5t49.5 -138.5 t78 -106t115 -71t156 -24.5q97 0 171 35t121 94.5t76.5 147.5t41.5 184t12 213q0 112 -11 208t-40 190t-75 159.5t-121.5 106t-174.5 40.5q-88 0 -157.5 -26t-115.5 -76t-77.5 -112.5t-48.5 -145.5t-24 -164.5t-7 -179.5zM373 1599q34 100 95.5 154.5t100.5 54.5 q59 0 195 -18t176 -18q54 0 82.5 15.5t60.5 53.5l43 -16q-11 -69 -71.5 -141t-120.5 -72q-56 0 -184 19.5t-185 19.5q-98 0 -143 -70z" />
<glyph unicode="&#xd6;" horiz-adv-x="1499" d="M74 727q0 159 47.5 300.5t133 247.5t215 168t284.5 62q161 0 289.5 -57.5t211.5 -159.5t126.5 -238.5t43.5 -297.5q0 -158 -46.5 -299.5t-131 -248.5t-212.5 -170t-281 -63q-216 0 -371 96.5t-232 265.5t-77 394zM324 723q0 -96 7 -175.5t24.5 -158.5t49.5 -138.5 t78 -106t115 -71t156 -24.5q97 0 171 35t121 94.5t76.5 147.5t41.5 184t12 213q0 112 -11 208t-40 190t-75 159.5t-121.5 106t-174.5 40.5q-88 0 -157.5 -26t-115.5 -76t-77.5 -112.5t-48.5 -145.5t-24 -164.5t-7 -179.5zM412 1731q0 53 34.5 90t85.5 37q54 0 92 -34.5 t38 -88.5q0 -58 -32.5 -93.5t-97.5 -35.5q-52 0 -86 35.5t-34 89.5zM840 1731q0 53 34.5 90t86.5 37q54 0 90 -34t36 -89q0 -59 -31 -94t-95 -35q-54 0 -87.5 35.5t-33.5 89.5z" />
<glyph unicode="&#xd7;" horiz-adv-x="1146" d="M141 1040l52 54l380 -381q53 54 117.5 118t143 142.5l118.5 118.5l52 -52l-377 -376l379 -379l-54 -54l-379 379l-376 -377l-54 52l377 377z" />
<glyph unicode="&#xd8;" horiz-adv-x="1499" d="M74 727q0 159 47.5 300.5t133 247.5t215 168t284.5 62q147 0 262 -47l69 174l78 -20l-73 -189q163 -91 249 -267t86 -404q0 -158 -46.5 -299.5t-131 -248.5t-212.5 -170t-281 -63q-107 0 -224 31l-88 -225l-80 20l91 232q-184 82 -281.5 264t-97.5 434zM324 723 q0 -209 37.5 -358.5t132.5 -231.5l483 1223q-90 71 -223 71q-88 0 -157.5 -26t-115.5 -76t-77.5 -112.5t-48.5 -145.5t-24 -164.5t-7 -179.5zM563 88q83 -39 191 -39q97 0 171 35t121 94.5t76.5 147.5t41.5 184t12 213q0 390 -138 569z" />
<glyph unicode="&#xd9;" horiz-adv-x="1525" d="M41 1444v41h594v-41l-162 -37l-20 -25v-921q0 -193 90.5 -294t257.5 -101q115 0 196 30.5t127.5 90t67 138.5t20.5 185v846l-20 24l-162 64v41h455v-41l-162 -64l-20 -24v-871q0 -240 -135 -375t-392 -135q-289 0 -421 135.5t-132 411.5v860l-20 25zM453 1765l116 170 l346 -315l-28 -39z" />
<glyph unicode="&#xda;" horiz-adv-x="1525" d="M41 1444v41h594v-41l-162 -37l-20 -25v-921q0 -193 90.5 -294t257.5 -101q115 0 196 30.5t127.5 90t67 138.5t20.5 185v846l-20 24l-162 64v41h455v-41l-162 -64l-20 -24v-871q0 -240 -135 -375t-392 -135q-289 0 -421 135.5t-132 411.5v860l-20 25zM780 1620l346 315 l117 -170l-434 -184z" />
<glyph unicode="&#xdb;" horiz-adv-x="1525" d="M41 1444v41h594v-41l-162 -37l-20 -25v-921q0 -193 90.5 -294t257.5 -101q115 0 196 30.5t127.5 90t67 138.5t20.5 185v846l-20 24l-162 64v41h455v-41l-162 -64l-20 -24v-871q0 -240 -135 -375t-392 -135q-289 0 -421 135.5t-132 411.5v860l-20 25zM575 1604l203 274 h154l205 -270l-33 -33l-254 147l-242 -149z" />
<glyph unicode="&#xdc;" horiz-adv-x="1525" d="M41 1444v41h594v-41l-162 -37l-20 -25v-921q0 -193 90.5 -294t257.5 -101q115 0 196 30.5t127.5 90t67 138.5t20.5 185v846l-20 24l-162 64v41h455v-41l-162 -64l-20 -24v-871q0 -240 -135 -375t-392 -135q-289 0 -421 135.5t-132 411.5v860l-20 25zM506 1731q0 53 35 90 t86 37q54 0 91.5 -34.5t37.5 -88.5q0 -59 -32 -94t-97 -35q-52 0 -86.5 35.5t-34.5 89.5zM934 1731q0 53 34.5 90t86.5 37q54 0 90.5 -34.5t36.5 -88.5q0 -59 -31.5 -94t-95.5 -35q-54 0 -87.5 35.5t-33.5 89.5z" />
<glyph unicode="&#xdd;" horiz-adv-x="1271" d="M-12 1444v41h571v-41l-186 -37l329 -612l316 600l-178 51v39h444v-39l-131 -47l-27 -25l-385 -667v-605l21 -24l162 -37v-41h-594v41l162 37l20 24v605l-371 682l-14 18zM657 1620l347 315l116 -170l-434 -184z" />
<glyph unicode="&#xde;" horiz-adv-x="1228" d="M53 0v41l162 37l21 26v1278l-21 25l-162 37v41h594v-41l-162 -37l-20 -25v-161h190q76 0 148 -13.5t139.5 -44.5t118 -76t80.5 -113t30 -151q0 -91 -28.5 -165t-77.5 -124t-116 -83.5t-141 -48.5t-155 -15h-188v-276l20 -27l201 -43v-41h-633zM465 455h133 q163 0 251.5 87.5t88.5 250.5q0 164 -96 257t-256 93h-121v-688z" />
<glyph unicode="&#xdf;" horiz-adv-x="1499" d="M57 0v35l125 31l19 22v862l-144 25v35l144 57v27q0 44 6.5 89.5t24.5 98.5t46 100.5t74.5 92.5t105.5 77.5t143.5 52t184.5 19.5q227 0 338 -81t111 -204q0 -57 -21.5 -104t-61 -82.5t-78 -61t-89.5 -56.5t-78 -52q-63 -50 -82.5 -82t-19.5 -74q0 -24 12 -45t28.5 -35.5 t45.5 -28.5t51.5 -22.5t58.5 -19.5l142 -45q278 -90 278 -305q0 -151 -115.5 -247.5t-304.5 -96.5q-79 0 -157 10l-154 12l-37 299l41 10l148 -229q90 -37 168 -37q114 0 173.5 58.5t59.5 148.5q0 88 -47.5 131t-161.5 78l-123 39q-46 15 -77 27t-69.5 34t-61 46.5 t-38.5 62.5t-16 84q0 69 43 125.5t137 128.5q44 34 72 60t62 66t51.5 86t17.5 97q0 127 -82 189.5t-205 62.5q-88 0 -156.5 -34.5t-107.5 -91t-58.5 -122.5t-19.5 -137v-1098l19 -22l141 -31v-35h-506z" />
<glyph unicode="&#xe0;" horiz-adv-x="1060" d="M70 233q0 76 33 134t87.5 94.5t133 60t161.5 32.5t181 9v238q0 203 -228 203q-70 0 -132 -22.5t-91 -51.5q55 -6 85 -39.5t30 -75.5q0 -57 -33 -82.5t-76 -25.5q-44 0 -77 30.5t-33 83.5q0 116 105.5 190t281.5 74q78 0 143.5 -18.5t117 -56.5t80.5 -101.5t29 -146.5 v-637l11 -8l155 14l6 -25q-29 -44 -91.5 -83t-110.5 -39q-64 0 -101.5 48.5t-44.5 110.5h-8q-54 -84 -136 -126t-169 -42q-144 0 -226.5 70t-82.5 188zM133 1421l129 142l283 -349l-37 -36zM268 266q0 -90 51 -139t138 -49q60 0 119.5 32t89.5 76v324q-201 0 -299.5 -59 t-98.5 -185z" />
<glyph unicode="&#xe1;" horiz-adv-x="1060" d="M70 233q0 76 33 134t87.5 94.5t133 60t161.5 32.5t181 9v238q0 203 -228 203q-70 0 -132 -22.5t-91 -51.5q55 -6 85 -39.5t30 -75.5q0 -57 -33 -82.5t-76 -25.5q-44 0 -77 30.5t-33 83.5q0 116 105.5 190t281.5 74q78 0 143.5 -18.5t117 -56.5t80.5 -101.5t29 -146.5 v-637l11 -8l155 14l6 -25q-29 -44 -91.5 -83t-110.5 -39q-64 0 -101.5 48.5t-44.5 110.5h-8q-54 -84 -136 -126t-169 -42q-144 0 -226.5 70t-82.5 188zM268 266q0 -90 51 -139t138 -49q60 0 119.5 32t89.5 76v324q-201 0 -299.5 -59t-98.5 -185zM444 1214l283 349l129 -142 l-375 -243z" />
<glyph unicode="&#xe2;" horiz-adv-x="1060" d="M70 233q0 76 33 134t87.5 94.5t133 60t161.5 32.5t181 9v238q0 203 -228 203q-70 0 -132 -22.5t-91 -51.5q55 -6 85 -39.5t30 -75.5q0 -57 -33 -82.5t-76 -25.5q-44 0 -77 30.5t-33 83.5q0 116 105.5 190t281.5 74q78 0 143.5 -18.5t117 -56.5t80.5 -101.5t29 -146.5 v-637l11 -8l155 14l6 -25q-29 -44 -91.5 -83t-110.5 -39q-64 0 -101.5 48.5t-44.5 110.5h-8q-54 -84 -136 -126t-169 -42q-144 0 -226.5 70t-82.5 188zM203 1196l205 309h153l207 -307l-37 -29l-250 187l-237 -189zM268 266q0 -90 51 -139t138 -49q60 0 119.5 32t89.5 76 v324q-201 0 -299.5 -59t-98.5 -185z" />
<glyph unicode="&#xe3;" horiz-adv-x="1060" d="M70 233q0 76 33 134t87.5 94.5t133 60t161.5 32.5t181 9v238q0 203 -228 203q-70 0 -132 -22.5t-91 -51.5q55 -6 85 -39.5t30 -75.5q0 -57 -33 -82.5t-76 -25.5q-44 0 -77 30.5t-33 83.5q0 116 105.5 190t281.5 74q78 0 143.5 -18.5t117 -56.5t80.5 -101.5t29 -146.5 v-637l11 -8l155 14l6 -25q-29 -44 -91.5 -83t-110.5 -39q-64 0 -101.5 48.5t-44.5 110.5h-8q-54 -84 -136 -126t-169 -42q-144 0 -226.5 70t-82.5 188zM139 1200q34 100 96 154.5t101 54.5q59 0 179.5 -18.5t160.5 -18.5q53 0 82 15.5t61 54.5l43 -17q-11 -69 -71.5 -141 t-120.5 -72q-56 0 -169 19.5t-169 19.5q-100 0 -144 -69zM268 266q0 -90 51 -139t138 -49q60 0 119.5 32t89.5 76v324q-201 0 -299.5 -59t-98.5 -185z" />
<glyph unicode="&#xe4;" horiz-adv-x="1060" d="M70 233q0 76 33 134t87.5 94.5t133 60t161.5 32.5t181 9v238q0 203 -228 203q-70 0 -132 -22.5t-91 -51.5q55 -6 85 -39.5t30 -75.5q0 -57 -33 -82.5t-76 -25.5q-44 0 -77 30.5t-33 83.5q0 116 105.5 190t281.5 74q78 0 143.5 -18.5t117 -56.5t80.5 -101.5t29 -146.5 v-637l11 -8l155 14l6 -25q-29 -44 -91.5 -83t-110.5 -39q-64 0 -101.5 48.5t-44.5 110.5h-8q-54 -84 -136 -126t-169 -42q-144 0 -226.5 70t-82.5 188zM158 1366q0 54 35.5 90.5t87.5 36.5q54 0 90.5 -34.5t36.5 -88.5q0 -59 -32 -95t-95 -36q-54 0 -88.5 36.5t-34.5 90.5z M268 266q0 -90 51 -139t138 -49q60 0 119.5 32t89.5 76v324q-201 0 -299.5 -59t-98.5 -185zM561 1366q0 54 35.5 90.5t87.5 36.5q54 0 90.5 -34.5t36.5 -88.5q0 -59 -32 -95t-95 -36q-54 0 -88.5 36.5t-34.5 90.5z" />
<glyph unicode="&#xe5;" horiz-adv-x="1060" d="M70 233q0 76 33 134t87.5 94.5t133 60t161.5 32.5t181 9v238q0 203 -228 203q-70 0 -132 -22.5t-91 -51.5q55 -6 85 -39.5t30 -75.5q0 -57 -33 -82.5t-76 -25.5q-44 0 -77 30.5t-33 83.5q0 116 105.5 190t281.5 74q78 0 143.5 -18.5t117 -56.5t80.5 -101.5t29 -146.5 v-637l11 -8l155 14l6 -25q-29 -44 -91.5 -83t-110.5 -39q-64 0 -101.5 48.5t-44.5 110.5h-8q-54 -84 -136 -126t-169 -42q-144 0 -226.5 70t-82.5 188zM268 266q0 -90 51 -139t138 -49q60 0 119.5 32t89.5 76v324q-201 0 -299.5 -59t-98.5 -185zM301 1350q0 78 49.5 128 t143.5 50q81 0 134.5 -45t53.5 -119q0 -84 -52 -133t-145 -49q-85 0 -134.5 48t-49.5 120zM381 1356q0 -58 26 -92.5t82 -34.5q58 0 85.5 34t27.5 91q0 127 -113 127q-54 0 -81 -33.5t-27 -91.5z" />
<glyph unicode="&#xe6;" horiz-adv-x="1654" d="M72 233q0 76 33 134t87.5 94.5t133 60t161.5 32.5t181 9v238q0 203 -228 203q-70 0 -132 -22.5t-91 -51.5q55 -6 85 -39.5t30 -75.5q0 -57 -33 -82.5t-76 -25.5q-44 0 -77 30.5t-33 83.5q0 116 105.5 190t281.5 74q108 0 192.5 -36.5t130.5 -110.5q140 147 344 147 q127 0 225 -64.5t147.5 -165t49.5 -216.5v-18h-704q-4 -50 -4 -74q0 -66 11 -127t38 -119.5t67.5 -101.5t103.5 -69t142 -26q26 0 51 2t48 7t41.5 9t39 12.5t33 13.5t32 15.5t26 14.5t25 15t20.5 12l24 -29q-35 -37 -68.5 -65.5t-85.5 -63t-117 -53.5t-136 -19 q-260 0 -398 179q-161 -179 -397 -179q-144 0 -226.5 70t-82.5 188zM270 266q0 -88 53.5 -138t135.5 -50q77 0 158 33.5t126 91.5q-75 135 -75 307q-201 0 -299.5 -59t-98.5 -185zM889 674l477 2q0 83 -11.5 144.5t-37 108.5t-70.5 71t-110 24q-78 0 -133 -49.5t-82 -125.5 t-33 -175z" />
<glyph unicode="&#xe7;" horiz-adv-x="1011" d="M66 508q0 259 148.5 418t383.5 159q83 0 147 -19.5t99 -50.5t52 -63.5t17 -64.5q0 -61 -31 -97t-87 -36q-53 0 -81 31t-28 73q0 80 76 123q-70 33 -168 33q-107 0 -182 -59t-108.5 -149t-33.5 -200q0 -229 98 -362t294 -133q167 0 292 94l25 -29q-62 -85 -172 -141.5 t-223 -59.5l-25 -71q51 -5 93.5 -16t82 -31t62 -54t22.5 -79q0 -91 -67.5 -147t-192.5 -56q-63 0 -107 24.5t-44 65.5q0 32 17.5 49.5t45.5 17.5q31 0 48.5 -15t17.5 -40q0 -18 -19 -41q18 -6 45 -6q66 0 109 23.5t43 74.5q0 35 -39.5 60t-87.5 36t-107 17l-14 10l61 180 q-119 8 -210.5 56.5t-145 124t-80 164t-26.5 186.5z" />
<glyph unicode="&#xe8;" horiz-adv-x="1050" d="M66 510q0 116 34.5 220t97.5 183t157.5 125.5t207.5 46.5q127 0 225 -64.5t147.5 -165t49.5 -216.5v-18h-704q-5 -62 -5 -74q0 -66 11.5 -127t38.5 -119.5t67.5 -101.5t103.5 -69t142 -26q57 0 107 9.5t95 30.5t61 30t52 31l25 -29q-191 -201 -408 -201q-104 0 -189 29.5 t-143 79.5t-97.5 118.5t-57.5 145.5t-18 162zM207 1421l129 142l282 -349l-36 -36zM285 674l477 2q0 83 -11.5 144.5t-37.5 108.5t-71 71t-110 24q-114 0 -175.5 -98t-71.5 -252z" />
<glyph unicode="&#xe9;" horiz-adv-x="1050" d="M66 510q0 116 34.5 220t97.5 183t157.5 125.5t207.5 46.5q127 0 225 -64.5t147.5 -165t49.5 -216.5v-18h-704q-5 -62 -5 -74q0 -66 11.5 -127t38.5 -119.5t67.5 -101.5t103.5 -69t142 -26q57 0 107 9.5t95 30.5t61 30t52 31l25 -29q-191 -201 -408 -201q-104 0 -189 29.5 t-143 79.5t-97.5 118.5t-57.5 145.5t-18 162zM285 674l477 2q0 83 -11.5 144.5t-37.5 108.5t-71 71t-110 24q-114 0 -175.5 -98t-71.5 -252zM487 1214l283 349l129 -142l-375 -243z" />
<glyph unicode="&#xea;" horiz-adv-x="1050" d="M66 510q0 116 34.5 220t97.5 183t157.5 125.5t207.5 46.5q127 0 225 -64.5t147.5 -165t49.5 -216.5v-18h-704q-5 -62 -5 -74q0 -66 11.5 -127t38.5 -119.5t67.5 -101.5t103.5 -69t142 -26q57 0 107 9.5t95 30.5t61 30t52 31l25 -29q-191 -201 -408 -201q-104 0 -189 29.5 t-143 79.5t-97.5 118.5t-57.5 145.5t-18 162zM266 1196l205 309h154l206 -307l-36 -29l-250 187l-238 -189zM285 674l477 2q0 83 -11.5 144.5t-37.5 108.5t-71 71t-110 24q-114 0 -175.5 -98t-71.5 -252z" />
<glyph unicode="&#xeb;" horiz-adv-x="1050" d="M66 510q0 116 34.5 220t97.5 183t157.5 125.5t207.5 46.5q127 0 225 -64.5t147.5 -165t49.5 -216.5v-18h-704q-5 -62 -5 -74q0 -66 11.5 -127t38.5 -119.5t67.5 -101.5t103.5 -69t142 -26q57 0 107 9.5t95 30.5t61 30t52 31l25 -29q-191 -201 -408 -201q-104 0 -189 29.5 t-143 79.5t-97.5 118.5t-57.5 145.5t-18 162zM213 1366q0 54 35.5 90.5t87.5 36.5q54 0 90.5 -34.5t36.5 -88.5q0 -59 -32 -95t-95 -36q-54 0 -88.5 36.5t-34.5 90.5zM285 674l477 2q0 83 -11.5 144.5t-37.5 108.5t-71 71t-110 24q-114 0 -175.5 -98t-71.5 -252zM616 1366 q0 54 35.5 90.5t87.5 36.5q54 0 90.5 -34.5t36.5 -88.5q0 -59 -32 -95t-95 -36q-54 0 -88.5 36.5t-34.5 90.5z" />
<glyph unicode="&#xec;" horiz-adv-x="593" d="M-8 1421l129 142l282 -349l-36 -36zM57 0v35l125 31l19 22v830l-25 24l-119 37v31l328 73l18 -4v-991l19 -22l125 -31v-35h-490z" />
<glyph unicode="&#xed;" horiz-adv-x="593" d="M57 0v35l125 31l19 22v830l-25 24l-119 37v31l328 73l18 -4v-991l19 -22l125 -31v-35h-490zM143 1214l283 349l129 -142l-375 -243z" />
<glyph unicode="&#xee;" horiz-adv-x="593" d="M0 1196l205 309h153l207 -307l-37 -29l-249 187l-238 -189zM57 0v35l125 31l19 22v830l-25 24l-119 37v31l328 73l18 -4v-991l19 -22l125 -31v-35h-490z" />
<glyph unicode="&#xef;" horiz-adv-x="593" d="M-31 1366q0 54 35.5 90.5t87.5 36.5q54 0 90.5 -34.5t36.5 -88.5q0 -59 -32 -95t-95 -36q-54 0 -88.5 36.5t-34.5 90.5zM57 0v35l125 31l19 22v830l-25 24l-119 37v31l328 73l18 -4v-991l19 -22l125 -31v-35h-490zM373 1366q0 54 35.5 90.5t87.5 36.5q54 0 90.5 -34.5 t36.5 -88.5q0 -59 -32 -95t-95 -36q-54 0 -88.5 36.5t-34.5 90.5z" />
<glyph unicode="&#xf0;" horiz-adv-x="1105" d="M66 524q0 242 133 398.5t338 156.5q65 0 107.5 -11t90.5 -34q-45 141 -205 289l-241 -104l-29 67l209 88q-126 96 -233 146l28 36q189 -26 346 -120l217 92l33 -64l-180 -78q175 -135 267.5 -343.5t92.5 -430.5q0 -632 -477 -632q-228 0 -362.5 151t-134.5 393zM289 567 q0 -95 7 -169.5t26.5 -143.5t51 -114t83 -72t121.5 -27q260 0 260 504q0 94 -25 215.5t-57 171.5q-86 78 -205 78q-137 0 -199.5 -106.5t-62.5 -336.5z" />
<glyph unicode="&#xf1;" horiz-adv-x="1253" d="M57 0v35l125 31l19 22v830l-25 24l-119 37v31l308 73l18 -4l14 -155q55 62 160.5 111.5t204.5 49.5q157 0 228 -77.5t71 -208.5v-711l18 -22l125 -31v-35h-489v35l125 31l18 22v655q0 45 -6.5 80.5t-25.5 72.5t-60.5 58t-103.5 21q-80 0 -153 -33.5t-106 -71.5v-782 l19 -22l125 -31v-35h-490zM287 1200q34 100 95.5 154.5t100.5 54.5q59 0 179.5 -18.5t160.5 -18.5q54 0 83 15.5t61 54.5l43 -17q-11 -69 -72 -141t-121 -72q-57 0 -169 19.5t-169 19.5q-99 0 -143 -69z" />
<glyph unicode="&#xf2;" d="M66 524q0 255 131.5 408t373.5 153q222 0 354 -149.5t132 -388.5q0 -261 -134 -416.5t-358 -155.5q-160 0 -274.5 73.5t-169.5 196t-55 279.5zM213 1421l129 142l283 -349l-37 -36zM289 580q0 -198 31 -316.5t92.5 -170.5t162.5 -52q125 0 192 114.5t67 331.5 q0 279 -71.5 406t-217.5 127q-125 0 -190.5 -116.5t-65.5 -323.5z" />
<glyph unicode="&#xf3;" d="M66 524q0 255 131.5 408t373.5 153q222 0 354 -149.5t132 -388.5q0 -261 -134 -416.5t-358 -155.5q-160 0 -274.5 73.5t-169.5 196t-55 279.5zM289 580q0 -198 31 -316.5t92.5 -170.5t162.5 -52q125 0 192 114.5t67 331.5q0 279 -71.5 406t-217.5 127 q-125 0 -190.5 -116.5t-65.5 -323.5zM518 1214l283 349l129 -142l-375 -243z" />
<glyph unicode="&#xf4;" d="M66 524q0 255 131.5 408t373.5 153q222 0 354 -149.5t132 -388.5q0 -261 -134 -416.5t-358 -155.5q-160 0 -274.5 73.5t-169.5 196t-55 279.5zM279 1196l204 309h154l207 -307l-37 -29l-250 187l-238 -189zM289 580q0 -198 31 -316.5t92.5 -170.5t162.5 -52 q125 0 192 114.5t67 331.5q0 279 -71.5 406t-217.5 127q-125 0 -190.5 -116.5t-65.5 -323.5z" />
<glyph unicode="&#xf5;" d="M66 524q0 255 131.5 408t373.5 153q222 0 354 -149.5t132 -388.5q0 -261 -134 -416.5t-358 -155.5q-160 0 -274.5 73.5t-169.5 196t-55 279.5zM199 1200q34 100 95.5 154.5t100.5 54.5q59 0 179.5 -18.5t160.5 -18.5q54 0 83 15.5t61 54.5l43 -17q-11 -69 -72 -141 t-121 -72q-57 0 -169.5 19.5t-168.5 19.5q-99 0 -143 -69zM289 580q0 -198 31 -316.5t92.5 -170.5t162.5 -52q125 0 192 114.5t67 331.5q0 279 -71.5 406t-217.5 127q-125 0 -190.5 -116.5t-65.5 -323.5z" />
<glyph unicode="&#xf6;" d="M66 524q0 255 131.5 408t373.5 153q222 0 354 -149.5t132 -388.5q0 -261 -134 -416.5t-358 -155.5q-160 0 -274.5 73.5t-169.5 196t-55 279.5zM233 1366q0 54 35.5 90.5t87.5 36.5q54 0 90.5 -34.5t36.5 -88.5q0 -59 -32 -95t-95 -36q-54 0 -88.5 36.5t-34.5 90.5z M289 580q0 -198 31 -316.5t92.5 -170.5t162.5 -52q125 0 192 114.5t67 331.5q0 279 -71.5 406t-217.5 127q-125 0 -190.5 -116.5t-65.5 -323.5zM637 1366q0 54 35.5 90.5t87.5 36.5q54 0 90.5 -34.5t36.5 -88.5q0 -59 -32 -95t-95 -36q-54 0 -88.5 36.5t-34.5 90.5z" />
<glyph unicode="&#xf7;" horiz-adv-x="1146" d="M100 627v73h947v-73h-947zM440 354q0 59 35.5 97t95.5 38q62 0 99 -38.5t37 -96.5q0 -60 -35.5 -100.5t-100.5 -40.5q-63 0 -97 40t-34 101zM440 979q0 59 35.5 97t95.5 38q62 0 99 -38.5t37 -96.5q0 -60 -35.5 -100.5t-100.5 -40.5q-63 0 -97 40t-34 101z" />
<glyph unicode="&#xf8;" d="M66 524q0 255 131.5 408t373.5 153q120 0 220 -49l75 146l66 -29l-80 -154q98 -70 151.5 -187t53.5 -265q0 -261 -134 -416.5t-358 -155.5q-123 0 -219 41l-78 -151l-65 29l82 157q-107 69 -163 193t-56 280zM289 580q0 -278 59 -402l389 752q-69 90 -192 90 q-125 0 -190.5 -116.5t-65.5 -323.5zM395 109q65 -68 180 -68q125 0 192 114.5t67 331.5q0 239 -56 369z" />
<glyph unicode="&#xf9;" horiz-adv-x="1220" d="M37 989v31l328 57l18 -12v-733q0 -37 2.5 -65.5t14 -64.5t31.5 -59.5t58 -40t91 -16.5q82 0 156.5 33.5t101.5 70.5v744l-25 24l-119 31v31l328 57l18 -12v-948l15 -25l129 -31v-30l-301 -51l-19 12l-14 151q-66 -69 -168 -118.5t-215 -49.5q-146 0 -216.5 78.5 t-70.5 208.5v660l-24 24zM262 1421l129 142l283 -349l-37 -36z" />
<glyph unicode="&#xfa;" horiz-adv-x="1220" d="M37 989v31l328 57l18 -12v-733q0 -37 2.5 -65.5t14 -64.5t31.5 -59.5t58 -40t91 -16.5q82 0 156.5 33.5t101.5 70.5v744l-25 24l-119 31v31l328 57l18 -12v-948l15 -25l129 -31v-30l-301 -51l-19 12l-14 151q-66 -69 -168 -118.5t-215 -49.5q-146 0 -216.5 78.5 t-70.5 208.5v660l-24 24zM559 1214l283 349l129 -142l-375 -243z" />
<glyph unicode="&#xfb;" horiz-adv-x="1220" d="M37 989v31l328 57l18 -12v-733q0 -37 2.5 -65.5t14 -64.5t31.5 -59.5t58 -40t91 -16.5q82 0 156.5 33.5t101.5 70.5v744l-25 24l-119 31v31l328 57l18 -12v-948l15 -25l129 -31v-30l-301 -51l-19 12l-14 151q-66 -69 -168 -118.5t-215 -49.5q-146 0 -216.5 78.5 t-70.5 208.5v660l-24 24zM328 1196l204 309h154l207 -307l-37 -29l-250 187l-237 -189z" />
<glyph unicode="&#xfc;" horiz-adv-x="1220" d="M37 989v31l328 57l18 -12v-733q0 -37 2.5 -65.5t14 -64.5t31.5 -59.5t58 -40t91 -16.5q82 0 156.5 33.5t101.5 70.5v744l-25 24l-119 31v31l328 57l18 -12v-948l15 -25l129 -31v-30l-301 -51l-19 12l-14 151q-66 -69 -168 -118.5t-215 -49.5q-146 0 -216.5 78.5 t-70.5 208.5v660l-24 24zM283 1366q0 54 35.5 90.5t87.5 36.5q54 0 90 -34t36 -89q0 -59 -31.5 -95t-94.5 -36q-54 0 -88.5 36.5t-34.5 90.5zM686 1366q0 54 35.5 90.5t87.5 36.5q54 0 90.5 -34.5t36.5 -88.5q0 -59 -32 -95t-95 -36q-54 0 -88.5 36.5t-34.5 90.5z" />
<glyph unicode="&#xfd;" horiz-adv-x="1028" d="M-25 -354q0 49 31.5 82.5t83.5 33.5q44 0 72 -28t28 -68q0 -48 -43 -94q45 -3 83 17t71 63t59 91.5t56 119.5l61 147l-375 957l-22 14l-105 45v35h492v-35l-158 -35l273 -725h4l241 707l-153 53v35h379v-35l-107 -45l-20 -14l-391 -1016q-94 -244 -175.5 -343.5 t-209.5 -99.5q-90 0 -132.5 39t-42.5 99zM524 1214l283 349l129 -142l-375 -243z" />
<glyph unicode="&#xfe;" horiz-adv-x="1202" d="M47 1530v33l338 51l18 -12v-637q148 120 312 120q198 0 310 -142t112 -363q0 -124 -31.5 -226t-85 -171.5t-125 -117t-150.5 -69t-163 -21.5q-102 0 -179 23v-383l19 -23l182 -36v-35h-547v35l125 30l19 23v1859l-17 17zM403 111q73 -64 185 -64q72 0 129 26.5t93.5 71.5 t60.5 109t34 134t10 151q0 228 -86 334t-229 106q-54 0 -110.5 -20.5t-86.5 -45.5v-802z" />
<glyph unicode="&#xff;" horiz-adv-x="1028" d="M-25 -354q0 49 31.5 82.5t83.5 33.5q44 0 72 -28t28 -68q0 -48 -43 -94q45 -3 83 17t71 63t59 91.5t56 119.5l61 147l-375 957l-22 14l-105 45v35h492v-35l-158 -35l273 -725h4l241 707l-153 53v35h379v-35l-107 -45l-20 -14l-391 -1016q-94 -244 -175.5 -343.5 t-209.5 -99.5q-90 0 -132.5 39t-42.5 99zM236 1366q0 54 35 90.5t87 36.5q54 0 90.5 -34.5t36.5 -88.5q0 -59 -32 -95t-95 -36q-54 0 -88 36t-34 91zM639 1366q0 54 35.5 90.5t87.5 36.5q54 0 90.5 -34.5t36.5 -88.5q0 -59 -32 -95t-95 -36q-54 0 -88.5 36.5t-34.5 90.5z " />
<glyph unicode="&#x152;" horiz-adv-x="2004" d="M74 727q0 206 86.5 376t242.5 271q105 67 221 91t273 24q57 0 201 -2t248 -2l296 4h224l12 -8v-334l-47 -10l-121 243l-47 27h-434v-582h311l31 21l84 153h45v-438h-45l-80 166l-35 16h-311v-641l22 -24h430l68 41l141 248l45 -9l-39 -358h-626q-42 0 -242 -6t-233 -6 q-343 0 -532 199.5t-189 539.5zM324 723q0 -112 14.5 -206.5t48.5 -178.5t87 -142t134.5 -92t186.5 -34q118 0 206 10v1325q-49 4 -100 4q-309 0 -443 -168.5t-134 -517.5z" />
<glyph unicode="&#x153;" horiz-adv-x="1835" d="M66 524q0 255 131.5 408t373.5 153q127 0 227.5 -52t164.5 -146q67 94 164.5 146t220.5 52q127 0 225 -64.5t147 -165t49 -216.5v-18h-704q-4 -50 -4 -74q0 -66 11 -127t38 -119.5t67.5 -101.5t103.5 -69t142 -26q26 0 51 2t48 7t41.5 9t39 12.5t33 13.5t32 15.5t26 14.5 t25 15t20.5 12l24 -29q-35 -37 -68.5 -65.5t-85.5 -63t-117 -53.5t-136 -19q-272 0 -406 189q-65 -92 -163.5 -140.5t-221.5 -48.5q-160 0 -274.5 73.5t-169.5 196t-55 279.5zM289 580q0 -198 31 -316.5t92.5 -170.5t162.5 -52q125 0 192 114.5t67 331.5q0 279 -71.5 406 t-217.5 127q-125 0 -190.5 -116.5t-65.5 -323.5zM1069 674l477 2q0 83 -11.5 144.5t-37 108.5t-70.5 71t-110 24q-78 0 -133 -49.5t-82 -125.5t-33 -175z" />
<glyph unicode="&#x178;" horiz-adv-x="1271" d="M-12 1444v41h571v-41l-186 -37l329 -612l316 600l-178 51v39h444v-39l-131 -47l-27 -25l-385 -667v-605l21 -24l162 -37v-41h-594v41l162 37l20 24v605l-371 682l-14 18zM358 1731q0 53 35 90t86 37q54 0 91.5 -34.5t37.5 -88.5q0 -59 -32 -94t-97 -35q-52 0 -86.5 35.5 t-34.5 89.5zM786 1731q0 53 34.5 90t86.5 37q54 0 90.5 -34.5t36.5 -88.5q0 -59 -31.5 -94t-95.5 -35q-54 0 -87.5 35.5t-33.5 89.5z" />
<glyph unicode="&#x2c6;" d="M279 1196l204 309h154l207 -307l-37 -29l-250 187l-238 -189z" />
<glyph unicode="&#x2dc;" d="M199 1200q34 100 95.5 154.5t100.5 54.5q59 0 179.5 -18.5t160.5 -18.5q54 0 83 15.5t61 54.5l43 -17q-11 -69 -72 -141t-121 -72q-57 0 -169.5 19.5t-168.5 19.5q-99 0 -143 -69z" />
<glyph unicode="&#x2000;" horiz-adv-x="967" />
<glyph unicode="&#x2001;" horiz-adv-x="1935" />
<glyph unicode="&#x2002;" horiz-adv-x="967" />
<glyph unicode="&#x2003;" horiz-adv-x="1935" />
<glyph unicode="&#x2004;" horiz-adv-x="645" />
<glyph unicode="&#x2005;" horiz-adv-x="483" />
<glyph unicode="&#x2006;" horiz-adv-x="322" />
<glyph unicode="&#x2007;" horiz-adv-x="322" />
<glyph unicode="&#x2008;" horiz-adv-x="241" />
<glyph unicode="&#x2009;" horiz-adv-x="387" />
<glyph unicode="&#x200a;" horiz-adv-x="107" />
<glyph unicode="&#x2010;" horiz-adv-x="651" d="M74 539v166h504v-166h-504z" />
<glyph unicode="&#x2011;" horiz-adv-x="651" d="M74 539v166h504v-166h-504z" />
<glyph unicode="&#x2012;" horiz-adv-x="651" d="M74 539v166h504v-166h-504z" />
<glyph unicode="&#x2013;" horiz-adv-x="1024" d="M0 592v98h1024v-98h-1024z" />
<glyph unicode="&#x2014;" horiz-adv-x="1835" d="M0 592v98h1835v-98h-1835z" />
<glyph unicode="&#x2018;" horiz-adv-x="432" d="M82 1221q0 97 62 186.5t157 122.5l23 -23q-143 -101 -138 -213l45 4q53 0 86 -34t33 -86q0 -55 -34 -90t-89 -35q-71 0 -108 47t-37 121z" />
<glyph unicode="&#x2019;" horiz-adv-x="432" d="M82 1405q0 55 34 90t89 35q71 0 108 -47t37 -121q0 -97 -62 -186.5t-157 -122.5l-22 22q142 100 137 213l-45 -4q-53 0 -86 34.5t-33 86.5z" />
<glyph unicode="&#x201a;" horiz-adv-x="438" d="M82 125q0 54 36.5 89.5t92.5 35.5q71 0 108 -47t37 -121q0 -97 -62 -186.5t-157 -122.5l-22 22q142 100 137 213l-51 -4q-53 0 -86 34.5t-33 86.5z" />
<glyph unicode="&#x201c;" horiz-adv-x="813" d="M82 1221q0 97 62 186.5t157 122.5l23 -23q-143 -101 -138 -213l45 4q53 0 86 -34t33 -86q0 -55 -34 -90t-89 -35q-71 0 -108 47t-37 121zM463 1221q0 97 62 186.5t157 122.5l23 -23q-143 -101 -138 -213l45 4q53 0 86 -34t33 -86q0 -55 -34 -90t-89 -35q-71 0 -108 47 t-37 121z" />
<glyph unicode="&#x201d;" horiz-adv-x="813" d="M82 1405q0 55 34 90t89 35q71 0 108 -47t37 -121q0 -97 -62 -186.5t-157 -122.5l-22 22q142 100 137 213l-45 -4q-53 0 -86 34.5t-33 86.5zM463 1405q0 55 34 90t89 35q71 0 108 -47t37 -121q0 -97 -62 -186.5t-157 -122.5l-23 22q143 101 138 213l-45 -4q-53 0 -86 34.5 t-33 86.5z" />
<glyph unicode="&#x201e;" horiz-adv-x="819" d="M82 125q0 54 36.5 89.5t92.5 35.5q71 0 108 -47t37 -121q0 -97 -62 -186.5t-157 -122.5l-22 22q142 100 137 213l-51 -4q-53 0 -86 34.5t-33 86.5zM463 125q0 54 36.5 89.5t92.5 35.5q71 0 108 -47t37 -121q0 -97 -62 -186.5t-157 -122.5l-22 22q142 100 137 213l-51 -4 q-53 0 -86 34.5t-33 86.5z" />
<glyph unicode="&#x2022;" horiz-adv-x="991" d="M147 762q0 144 102.5 246t244.5 102q145 0 247.5 -101.5t102.5 -246.5q0 -143 -103 -246.5t-247 -103.5q-142 0 -244.5 103.5t-102.5 246.5z" />
<glyph unicode="&#x2026;" horiz-adv-x="1351" d="M98 121q0 56 34 92.5t91 36.5q59 0 94 -37t35 -92q0 -59 -33.5 -97t-95.5 -38q-60 0 -92.5 38t-32.5 97zM549 121q0 56 34 92.5t91 36.5q59 0 94 -37t35 -92q0 -59 -33.5 -97t-95.5 -38q-60 0 -92.5 38t-32.5 97zM999 121q0 56 34 92.5t91 36.5q59 0 94 -37t35 -92 q0 -59 -33.5 -97t-95.5 -38q-60 0 -92.5 38t-32.5 97z" />
<glyph unicode="&#x202f;" horiz-adv-x="387" />
<glyph unicode="&#x2039;" horiz-adv-x="563" d="M66 545v92l403 289l29 -33l-240 -295l240 -313l-29 -25z" />
<glyph unicode="&#x203a;" horiz-adv-x="563" d="M66 285l239 313l-239 295l28 33l404 -289v-92l-404 -285z" />
<glyph unicode="&#x205f;" horiz-adv-x="483" />
<glyph unicode="&#x20ac;" horiz-adv-x="1259" d="M92 588v74h139q-2 20 -2 61q0 81 7 133h-144v74h154q21 121 66.5 222t118 181t181 125t242.5 45q169 0 257.5 -66t88.5 -151q0 -47 -26 -82t-82 -35q-48 0 -74.5 33.5t-26.5 75.5q0 33 18.5 62t43.5 40q-21 20 -80.5 33.5t-116.5 13.5q-361 0 -412 -497h533l-23 -74h-514 q-2 -29 -2 -86q0 -38 4 -108h480l-23 -74h-450q29 -229 131 -343t266 -114q68 0 123.5 9t98.5 27t62 29t50 31l26 -26q-127 -226 -424 -226q-228 0 -373.5 160.5t-172.5 452.5h-144z" />
<glyph unicode="&#x2122;" horiz-adv-x="1705" d="M51 1327l2 158l4 4l101 -2h393l102 2l4 -4v-158l-34 -2l-39 98l-23 9h-139v-549l10 -11l74 -16v-41h-301v41l74 16l10 11v549h-139l-25 -9l-39 -98zM719 815v41l74 16l8 11v536l-8 13l-74 16v39h274l191 -469h2l184 469h270v-39l-71 -16l-10 -13v-536l10 -11l71 -16v-41 h-299v41l74 16l8 11v540h-4l-245 -608h-52l-248 608h-4v-540l9 -11l73 -16v-41h-233z" />
<glyph unicode="&#x25fc;" horiz-adv-x="1064" d="M0 0v1065h1065v-1065h-1065z" />
</font>
</defs>
</svg>
