<svg xmlns="http://www.w3.org/2000/svg" width="485" height="55" viewBox="99.5 10 485 55"><path fill="#1989CA" d="M572.2 10.7v1.7h5l-6 39.4-6.9-41.1h-5l-6 42.1-5.6-40.6h5.6v-1.7h-18v1.7h3.8L547 64h6.5l5.5-32.8 6 32.8h6.4l8-51.7h5.1v-1.7h-12.3zM507 12.3h5.2v50h-5V64h26.3V49.9h-1.3s-.4 5.6-1.1 8c-.8 1.8-2.8 3.6-4.7 4.1-1.7.3-5.2.3-5.2.3V36.1s4.1-.1 5.2.5c1.8 1.4 1.9 4.1 2.3 6.9h1.3V27.9h-1.4c0 1.9-.8 4.5-2.3 5.7-1.4 1.4-5.2.8-5.2.8v-22s5-.1 6.6.1c3.8 1.9 4.1 6.3 4.6 10.1h1.3V10.5h-26.7l.1 1.8zm-8.1 0h5v-1.7h-17.6v1.7h4.3v50h-5.2V64h18.9v-1.7H499l-.1-50zm-23.3 0h4.5L472.2 59c-.1 0-8-46.7-8-46.7h4.7v-1.7h-16.6v1.7h2.6l9.8 51.7h8.6l9.2-51.7h2.6v-1.7h-9.2v1.7h-.3zm-26.5 45.6c-1.9 4.3-8.6 4.6-11.7 4.6V36.8s4.5 0 5.7.6c1.8 1.3 2.3 3.8 2.6 6.4h1.3V27.6h-1.4c-.1 2.4-.4 5.4-2.6 6.9-1.3.9-5.6.5-5.6.5V12.5c1.8 0 5.5-.3 7.1.4 4 1.9 4.2 6.6 4.5 10.7h1.4V10.7h-25.9v1.7h4.1v50.2h-3.7v1.7h26.7V50.2h-1.4c-.4 2.8-.5 5.3-1.1 7.7zm-28.2 4.2c-2.3-6.8-2.9-13.5-6-19.9-2-3.8-6.1-5.6-10.1-6 4.5-.5 9.2-2.3 11.4-7 1.5-3.6 1.8-9.4-.5-12.9s-5.7-5.5-9.7-5.6h-21v1.7h5.1v50h-5.4V64h19v-1.7H399V36.8h1.1c2.2.1 5.2 1 6.1 2.7 2.6 4.1 4.7 18.8 5.2 21.6.1 1.1 0 2.2.6 3.1h11.4v-1.7s-1.9.1-2.5-.4zm-22-27V12.3c1.5 0 5 0 6 .6 3.7 3.8 3.4 10.6 3.2 15.8-.4 2.3-1.1 5-3.4 6-1.3.6-5.8.4-5.8.4zm-31.2 15.5H366c0 2.3 0 4.8-.5 7-.8 2-2.4 4.3-4.7 4.7H354v-50h5.6v-1.7h-19v1.7h4.7v50h-4.9V64h27.3c0-4.3-.2-9 0-13.4zm-43.2-39.9h-8l-8.8 51.7h-4.2V64h11.1v-1.7h-4.7l2.7-16.3h10.3l3.2 16.3h-5V64h17.5v-1.7h-3.1l-11-51.6zM318 43.9h-5.1l4.1-25.4 5.5 25.4H318zm-16.1-31.6v-1.7h-18.4v1.7h4.5v50h-4.7V64h18.4v-1.7h-4.3v-50h4.5zm-29.3 49.9c-1.8.9-5.1.6-6.4-.8-2.7-3.2-4.5-8.7-4.9-13-.9-10-1-14.8.3-22.7.6-4.6 1.9-9.1 5-12.3 2-1.8 5.4-1.4 7.5-.3 4.2 2.8 4 7.9 4.3 12.5h1.7V10.8h-1.4c0 .8 0 1.5-.6 2-1.5.4-2.2-1.4-3.4-1.7-3.1-1.8-7.5-1.1-10.5.5-6.9 4.1-11.4 11.6-12 19.4-1.1 12.1.6 24.8 10.7 31.9 3.2 1.5 7.8 3.3 11 .8 1.4-.4 2.2-2.4 3.6-2.6 1 .6.9 1.8 1 2.9h1.4V50.8H278c-.3 4 .3 7.6-5.4 11.4zm-20.2-49.9v-1.7h-10.7v1.7h4v35.6l-14.3-37.3h-12.6v1.7h4.5v50h-4.7V64h11.5v-1.7h-4.6V20l16.8 44.2h5.7V12.5h4.5v-.2zm-48-1.6h-8.3l-8.9 51.7h-4.6V64h12.1v-1.7h-5.1l2.8-16.7h9.6l3.4 16.7h-4.8V64h16.7v-1.7h-2.4l-10.5-51.6zm-11.7 33l3.8-23.7 5 23.7h-8.8zm-7.6-31.4v-1.7h-11v1.7h4.5v36.8L164 10.7h-12.8v1.7h4.6v50h-4.7V64H163v-1.7h-4.8V21L174 64.2h6.8V12.5h4.3v-.2zm-40.9 0h4.7v-1.7h-18.6v1.7h5.2v50h-6V64h19.8v-1.7h-5l-.1-50zm-44.7 0h6.8v50h-6.8V64h21.2v-1.7H115v-26h4.7c2.4 0 2.9 4.5 2.8 7h1.8V26.9h-1.8c.1 2.7-.5 7.9-2.8 7.9h-4.6V12.1c2.9.1 7.5.3 9.6 2.6 2.7 2.8 2.6 6.8 2.9 10.5h1.3V10.7H99.5v1.6z"/></svg>