<svg xmlns="http://www.w3.org/2000/svg" width="330" height="43" viewBox="0 0 330 43"><path fill-rule="evenodd" clip-rule="evenodd" fill="#010101" d="M192 40.3l-.6.6h-6.2l-.3-.6V21.1h5.4l.5.5 2.7 5.3h.5V14.2h-.5l-2.7 5.1-.5.6h-5.4V1.2h5.8l.7.6 5.9 8.6.3-.2-.1-10-.1-.2-5.1.1h-20.7v.5l3.4.8.3.5v38.4l-.3.5-3.4.8v.4h26.5l.5-11.8-.5-.2-6.1 10.3zm-28 0l-.6.6h-6.2l-.3-.6V21.1h5.4l.5.5 2.7 5.3h.5V14.2h-.5l-2.7 5.1-.5.6h-5.4V1.2h5.8l.7.6 5.9 8.6.3-.2-.1-10V0l-5.1.1h-20.7v.5l3.4.8.3.5v38.4l-.3.5-3.4.8v.4h26.5l.5-11.8-.5-.2-6.2 10.3zM133.7.6l3.5 2.1-5.5 23.5h-.1L124 .1h-1.8l-8 26.3h-.1l-5.5-24.6 3.9-1.2V.1h-17v.5l3.1 1.2.4.5 9.7 39.7h2.2l8.2-27.7h.2L127 42h2l9.7-39.2.8-.7 2.8-1.5V.1h-8.4v.5zM233 40.2l-13.2-24.7 10.6-12 .6-.5 3.8-2.4V.1h-9.7v.5l4.1 2.3-16.6 18.5V1.8l.3-.5 3.4-.8V.1h-16.9v.5l3.4.8.3.5v38.4l-.3.5-3.4.8v.4h16.9v-.5l-3.4-.8-.3-.5V21.9L223.2 42h13v-.5l-2.5-.9-.7-.4zM286 .6l3.5 2.3.2.4V26h-.1L277.7.1h-12.1v.5l2.7 1.2.6 1.3v35.7l-.2.4-3.5 2.3v.5h9v-.5l-3.6-2.3-.2-.4V6.4h.1l17 35.6h3.6V3.3l.2-.4 3.5-2.3V.1H286v.5zm-28.3 39.7l-.6.6H251l-.3-.6V21.1h5.4l.5.5 2.7 5.3h.5V14.2h-.5l-2.7 5.1-.5.6h-5.4V1.2h5.8l.7.6 5.9 8.6.3-.2-.1-10-.1-.2-5.1.1h-20.7v.5l3.4.8.3.5v38.4l-.3.5-3.4.8v.4h26.5l.5-11.8-.5-.2-6.2 10.3zM312 .1h-16.3v.5l3.4.8.3.5v38.4l-.3.5-3.4.8v.4H312c10.7 0 17.9-9.1 17.9-21.4C329.9 8.3 323.5.1 312 .1zm-1.7 40.8h-1l-.4-.6V1.2h1.3c8.1 0 9.8 11.4 9.8 19.6-.1 10.5-2.9 20.1-9.7 20.1z"/><path fill-rule="evenodd" clip-rule="evenodd" fill="#209FDA" d="M29.6 39.4L18.6-.3h-4.7L3.7 38.9l-.7.6L0 41v.5h8.6V41l-3.7-1.8 3.3-12.9h8.4L20 39.9l-3.6 1v.5H33v-.5l-3.2-1-.2-.5zM8.4 25.1l3.8-15h.1l3.8 15H8.4zm83.6 15l-.5-.3-.8-9.5c-.6-6.9-4.3-9.2-10.4-9.8v-.3c6.7-.3 11-4.2 11-10.1 0-6.5-3.7-10.2-10.9-10.2h-19v.5l3.3.7.3.5v38.2l-.3.5-3.3.7v.5h16.8V41l-3.3-.7-.3-.5V20.9h1.2c3.2 0 5 1.7 5.3 7l.4 5.8c.3 4.8 1.1 8 6.1 8l7.9-.2V41l-3.5-.9zM75.6 19.6h-1V.9h1.2c4.4 0 6.2 3.9 6.2 9.3 0 7.8-3.1 9.4-6.4 9.4zM59.2-.3l-5.1.1H33.9v.5l3.4.7.2.5v38.2l-.3.5-3.4.7v.5h17.5v-.5l-4-.7-.3-.4V20.7h5.1l.5.5 2.7 5.3h.5V13.8h-.5L52.6 19l-.5.6H47V.9h5.5l.7.6 5.9 8.5.3-.2V0l-.2-.3z"/></svg>