<svg xmlns="http://www.w3.org/2000/svg" width="589.1" height="344.6" viewBox="0 0 589.1 344.6"><path d="M0 5.6h64c32 0 70.4 17.6 70.4 72 0 32-14.4 56.8-46.4 63.6v.8c35.6 8.4 52 33.2 52 69.2 0 52-35.2 79.2-73.6 79.2H0V5.6zm52 243.2c31.2 0 36-12.4 36-42 0-26-6.4-40.8-36-40.4v82.4zm0-126.4c26 0 32.8-12 32.8-37.6 0-32.4-6.8-38-32.8-37.6v75.2zM221.2 0c46 0 76 35.6 76 148s-30 148-76 148-76-35.6-76-148 30-148 76-148zM202 178c0 61.6 7.2 74 19.2 74s19.2-12.4 19.2-74v-60c0-61.6-7.2-74-19.2-74S202 56.4 202 118v60zm148.7 30c0 16 0 44 22.4 44 17.2 0 23.2-16 23.2-27.6 0-50.8-94.4-62.4-94.4-146.8 0-42.8 23.2-77.6 67.2-77.6 46.8 0 64.8 35.6 66 86.8h-46.4c0-16 0-42.8-20.8-42.8-12.4 0-19.6 10.4-19.6 26 0 48.4 94.4 64.8 94.4 147.6 0 43.6-24.8 78.4-71.6 78.4-55.6 0-66.8-48.8-66.8-88h46.4zm146.4 0c0 16 0 44 22.4 44 17.2 0 23.2-16 23.2-27.6 0-50.8-94.4-62.4-94.4-146.8 0-42.8 23.2-77.6 67.2-77.6 46.8 0 64.8 35.6 66 86.8h-46.4c0-16 0-42.8-20.8-42.8-12.4 0-19.6 10.4-19.6 26 0 48.4 94.4 64.8 94.4 147.6 0 43.6-24.8 78.4-71.6 78.4-55.6 0-66.8-48.8-66.8-88h46.4zM289.3 336.8l-4.2-24.3H282l-3.6 25-3.5-24.1h3.4v-.9h-11v.9h2.4l4.8 30.8h3.9l3.4-19.5 3.7 19.5h3.9l5-30.8h3.1v-.9h-7.6v.9h3.1zm-39.2 7.3v-1h3v-29.7h-3.2v-1h16.4v7.2h-.8c-.3-2.3-.4-4.9-2.8-6-1-.2-4.1-.1-4.1-.1v13s2.3.3 3.2-.5c.9-.7 1.4-2.3 1.4-3.4h.8v9.3h-.8c-.3-1.6-.4-3.2-1.4-4.1-.7-.4-3.2-.3-3.2-.3V343s2.2 0 3.2-.2c1.2-.3 2.4-1.3 2.9-2.4.5-1.5.7-4.8.7-4.8h.8v8.4h-16.1zm-1.9 0h-11.5v-1h3.1v-29.6h-2.6v-1H248v1h-3v29.6h3.2zm-13.4-30.6l-5.6 30.7H224l-6-30.7h-1.6v-1h10.2v1h-2.9s4.8 27.7 4.9 27.7l4.9-27.7h-2.7v-1h5.6v1h-1.6zm-35.3 30.7v-1h2.3v-29.7h-2.5v-.9h15.9v7.6h-.8c-.2-2.4-.3-5.2-2.8-6.4-1-.4-3.3-.2-4.4-.2V327s2.7.2 3.4-.3c1.3-.9 1.5-2.7 1.5-4.1h.9v9.6h-.8c-.2-1.5-.5-3-1.6-3.8-.8-.3-3.5-.3-3.5-.3v15.2c2 0 6.1-.1 7.2-2.7.4-1.4.5-2.8.5-4.5h.9v8.2l-16.2-.1zm-.8-1v1h-6.9c-.4-.6-.3-1.2-.4-1.8-.3-1.7-1.7-10.3-3.2-12.8-.6-1-2.5-1.5-3.8-1.6h-.7v15.2h2.9v1h-11.7v-1h3.3v-29.7h-3.1v-1H188c2.4.1 4.5 1.3 5.9 3.3 1.4 2 1.2 5.5.3 7.6-1.3 2.8-4.2 3.9-6.9 4.2 2.5.2 5 1.3 6.2 3.6 1.9 3.8 2.3 7.8 3.7 11.8.3.2 1.5.2 1.5.2zm-9.3-20c.2-3.1.4-7.1-1.9-9.4-.7-.4-2.8-.4-3.7-.4v13.5s2.7.2 3.5-.2c1.3-.5 1.8-2.1 2.1-3.5zm-41.6 20.9v-1h3v-29.6h-2.9v-1h11.6v1h-3.4v29.6h4.2c1.4-.3 2.4-1.6 2.9-2.8.4-1.3.4-2.8.3-4.1h1v7.9h-16.7zm-11.8 0v-1h3.1l-2-9.7h-6.3l-1.7 9.7h2.9v1h-6.8v-1h2.6l5.3-30.6h5l6.7 30.6h1.9v1H136zm-1.9-11.9h2.7l-3.3-15-2.5 15h3.1zm-21.3 11.9v-1h3v-29.6H113v-1h11.2l.1 1h-2.9v29.6h2.7v1zm-2 0h-.8c-.1-.7-.1-1.3-.7-1.7-.9.1-1.4 1.3-2.2 1.5-2 1.5-4.8.5-6.7-.5-6.2-4.2-7.3-11.7-6.6-18.9.4-4.6 3.1-9 7.4-11.5 1.8-1 4.5-1.3 6.4-.3.8.1 1.2 1.2 2.1 1 .4-.3.4-.8.4-1.2h.8v8.8h-1c-.2-2.7-.1-5.8-2.6-7.4-1.3-.7-3.4-.9-4.6.1-1.9 1.9-2.7 4.6-3.1 7.3-.7 4.7-.7 7.6-.1 13.5.2 2.6 1.3 5.8 2.9 7.7.8.8 2.9 1 3.9.5 3.6-2.2 3.1-4.4 3.5-6.9h1.2l-.2 8zm-16.9-30.6h-2.8v30.6h-3.5L77.3 318v25.1h2.8v1h-7v-1H76v-29.6h-2.8v-1H81l8.8 22.1v-21.1h-2.5v-1h6.6zm-31.8 30.6v-1h3l-2.1-9.9h-5.9l-1.7 9.9h3.1v1H51v-1h2.9l5.5-30.6h5.1l6.5 30.6h1.5v1H62.1zm.6-12l-3.1-14-2.4 14h5.5zm-10.1-18.6h-2.7v30.6h-4.1l-9.7-25.5-.1 24.5h3v1h-7.2v-1h2.9v-29.6h-2.8v-1h7.9l8.8 22.7v-21.7h-2.7v-1h6.7zm-22.2-1v1h-2.9v29.6h3v1h-12v-1h3.7v-29.6H19v-1h11.4zm-12.3 8.6h-.8c-.3-2.2-.2-4.6-1.8-6.2-1.3-1.4-4.1-1.5-5.9-1.5v13.4h2.8c1.4 0 1.8-3.1 1.7-4.7h1.1v9.8h-1.1c0-1.5-.2-4.2-1.8-4.2H9.6v15.4h3.5v1H.1v-1h4.1v-29.7H.1v-1h18v8.7z"/></svg>