<svg width="207" height="29" viewBox="0 0 207 29" xmlns="http://www.w3.org/2000/svg"><title>Group 2</title><g fill-rule="evenodd"><path d="M.3 27l2.8-.2v-22H0V3h9v1.8H5.8v22.1h11.6l.4-4.1h2.1l-.3 6.1H.3zM22.5 4.6c0-1.1.4-1.9 1.7-1.9 1.2 0 1.7.7 1.7 1.9 0 1.1-.5 1.8-1.7 1.8-1.3.1-1.7-.7-1.7-1.8zm-1.8 22.2l2.3-.2V12.2l-2.6-.2v-1.8l4.8-.2.3.3v16.5h2.6v1.7h-7.4v-1.7zm8.6 0l2.3-.2V11.9h-2.7v-1.8h2.7V9c0-5.1 1.9-8.2 7.1-8.2 1.1 0 2.5.2 3.2.5l-.5 1.8c-.5-.1-1.6-.4-2.7-.4-3.6 0-4.6 2.2-4.6 6.1v1.4h5V12h-5v14.9h3.7v1.7h-8.5v-1.8z"/><path d="M52.2 17.3c0-3.6-2-5.7-5.4-5.7-2.7 0-5.4 1.9-5.8 5.8l11.2-.1zm-13.9 2.1c0-5.5 3.3-9.6 8.7-9.6 4.8 0 7.4 3.6 7.4 7.5V19H40.9c0 4.3 2.1 7.9 7.2 7.9 1.9 0 3.7-.4 5.4-.8l.5 1.8c-1.9.6-4.2 1-6.1 1-6.3.1-9.6-3.8-9.6-9.5zm30.6-6c.5-.1 1-.3 1.4-.5 2.6-1 4.8-2.6 4.8-5.2 0-1.8-1.1-3.5-4.1-3.5-3 0-4.1 1.7-4.1 3.6 0 1.5.7 3.6 2 5.6zM76.8 25c-3.1-2.2-6.7-5.6-9.3-9.2-2.6 1.2-4.5 2.9-4.5 5.4 0 4.1 3.7 5.6 7.4 5.6 2.4 0 4.6-.6 6.4-1.8zm1.8-9.9l3.4-.4.7-2.6H84v2.6h4.5l-.5 1.8h-4.1c-.3 3.4-1.6 6.2-3.6 8.2 1.3.7 2.7 1.2 4.1 1.6 1.3.4 2.8.5 4 .5.4 0 .7 0 1.1-.1v2c-.6.1-1.1.1-1.7.1-3.1 0-6.1-.7-9.3-2.6-2.4 1.7-5.5 2.7-8.7 2.7-5.1 0-9.4-2.2-9.4-7.3 0-3.6 2.4-5.7 6-7.3-1.3-2.1-2.1-4.2-2.1-6.1 0-2.7 1.9-5.8 7-5.8 3.5 0 6 2 6 5.1 0 4-3.3 6-7.5 7.4 2.4 3.2 5.4 6.4 8.6 8.6 1.9-1.9 3-4.3 3.2-7.1h-3.2v-1.3h.2zM95.3 26l2.8-.1v-22H95V2h9v1.9h-3.2v22h11.6l.4-4h2.1l-.3 6H95.3zm34.7-8.7c0-3.6-2-5.7-5.4-5.7-2.7 0-5.4 1.9-5.8 5.8l11.2-.1zm-13.9 2.1c0-5.5 3.4-9.6 8.7-9.6 4.8 0 7.4 3.6 7.4 7.5V19h-13.5c0 4.3 2.1 7.9 7.2 7.9 1.9 0 3.7-.4 5.4-.8l.5 1.8c-1.9.6-4.2 1-6.1 1-6.3 0-9.6-3.9-9.6-9.5zm42.2 3.4l.1-10.9h-2.5v-1.7l4.7-.2.3.2-.1 12.4c0 3.7 2.5 4.5 4.6 4.5 2.2 0 4-1 5.2-1.9V11.9H168v-1.7l4.8-.2.2.2v16.3l2.6.1v1.8l-4.5.2-.2-.3-.2-1.7c-1.7 1.4-4 2.3-6.2 2.3-4.1.1-6.2-2.4-6.2-6.1m18.1 4l2.3-.2V12.2l-2.6-.2v-1.8l4.5-.2.3.2.2 2.2c1.6-1.4 4.7-2.4 7.3-2.4.8 0 1.3 0 1.7.1v4h-2.2v-2.2c-2.4 0-4.6.8-6.6 2.3v12.6h3.5v1.7h-8.3v-1.7h-.1zm27.8-9.5c0-3.6-2-5.7-5.4-5.7-2.7 0-5.4 1.9-5.8 5.8l11.2-.1zm-13.8 2.1c0-5.5 3.4-9.6 8.7-9.6 4.8 0 7.4 3.6 7.4 7.5V19H193c0 4.3 2.1 7.9 7.2 7.9 1.9 0 3.7-.4 5.4-.8l.5 1.8c-1.9.6-4.2 1-6.1 1-6.4 0-9.6-3.9-9.6-9.5zm-48.1 8.8l-.3-4.5h2.1l.3 3c1.2.3 2.3.5 3.6.5 2.4 0 4.9-1 4.9-3.3 0-2.1-1.5-2.9-3.8-3.6l-1.9-.6c-2.6-.8-4.7-2-4.7-4.9 0-2.6 2-5 6.6-5 1.6 0 3.9.3 5.5.8l.1 4h-2l-.2-2.5c-1.3-.3-2.1-.5-3.5-.5-2.2 0-4.1 1-4.1 2.9s1.9 2.6 3.9 3.3l1.4.4c3.1.9 5.2 2.6 5.2 5.3 0 3.8-3.8 5.5-7.4 5.5-2.2 0-4.1-.3-5.7-.8m-7.2-24.3c0-1.1.4-1.9 1.7-1.9 1.2 0 1.7.7 1.7 1.9 0 1.1-.5 1.8-1.7 1.8-1.3.1-1.7-.7-1.7-1.8zm-1.8 22.2l2.3-.2V11.5l-2.6-.2V9.5l4.8-.2.3.3v16.5h2.6v1.7h-7.4v-1.7z"/></g></svg>