<svg xmlns="http://www.w3.org/2000/svg" xmlns:xlink="http://www.w3.org/1999/xlink" width="804" height="82.8" viewBox="0 0 804 82.8"><defs><path id="a" d="M-17-272.5h841.9v595.3H-17z"/></defs><clipPath id="b"><use xlink:href="#a" overflow="visible"/></clipPath><path clip-path="url(#b)" d="M0 59.4h3.9V1.6H0V0h34.5l.5 17.7h-1.7c-.7-10-4.2-16.2-15-16.2h-2v27c7.4 0 8.1-5 8.5-11.3h1.5v25.2h-1.5c-.1-6.7-1.1-12.3-8.5-12.3v29.2h4.9v1.6H0v-1.5zm72.1 1.5v-1.6h-3.6V32.9c0-3 1.9-9.4 6.7-9.4 3.1 0 3.9 2.1 3.9 5.2v30.7h-3.6V61h18.3v-1.6h-3.9V31.2c0-8.2-4.2-11.4-9.6-11.4-5.2 0-9.5 2.3-11.5 6.9h-.2v-8c-2.2 2.2-4.9 2.3-8.1 2.3H54v1.6h3.9v36.8H49V18.7c-2.2 2.2-5.3 2.3-8.1 2.3h-6.5v1.6h3.9v36.8h-3.9V61h37.7zm33.2-7.3c0 4.4 2 4.9 3.9 4.9 2.7 0 5.4-3.7 5.4-6.3V39.8c-7.6 1.7-9.3 2.7-9.3 7.4v6.4zm9.3-26.8c0-3.7-1.5-5.2-5.4-5.2-3.7 0-6.2 1.5-6.2 2.5 0 1.9 4.3.8 4.3 6 0 2.9-2.4 4.9-5.1 4.9-3.6 0-5.1-2.4-5.1-5.5 0-7 7.7-9.8 14.1-9.8 8.2 0 14.1 2.8 14.1 10.2v25.5c0 1.4.3 2.4 1.3 2.4s2.2-1.6 2.6-2.4l1.2.8c-1.6 3-4.5 5.8-8.2 5.8-3.7 0-6.5-3.1-6.8-6.9h-.2C113 59.3 109 62 103.9 62c-6 0-9.2-3.9-9.2-10 0-10.4 12.7-12.5 20-13.8V26.8z"/><path clip-path="url(#b)" d="M130.1 59.4h3.9V22.6h-3.9V21h6.5c3.3 0 5.9-.1 8.1-2.3v8h.2c2-4.6 6.3-6.9 11.5-6.9 5.4 0 9.6 3.2 9.6 11.4v28.1h3.9v1.6h-18.3v-1.6h3.6V28.6c0-3.1-.7-5.2-3.9-5.2-4.8 0-6.7 6.4-6.7 9.4v26.5h3.6v1.6h-18.3v-1.5zm52.7-8.9c0 5.6 2.4 9.3 6.8 9.3 5.7 0 9.2-5.2 10.2-10.6l1.2.3c-1.4 7.5-5.9 12.6-13.5 12.6-10.9 0-16.6-10.9-16.6-21.2 0-11.4 7.4-21.1 17.8-21.1 5.6 0 11.7 4.2 11.7 11.2 0 3-2.1 6.2-5.4 6.2-3.4 0-5.3-2.1-5.3-5.8 0-4.7 4.7-4.7 4.7-7.2 0-2.1-2.1-2.9-5.4-2.9-4.1 0-6.2 2.2-6.2 6.8v22.4zm18.8 8.9h3.9V22.6h-3.9V21h6.5c2.9 0 5.9-.1 8.1-2.3v40.7h3.9V61h-18.6v-1.6zm30.2-5.8c0 4.4 2 4.9 3.9 4.9 2.7 0 5.4-3.7 5.4-6.3V39.8c-7.6 1.7-9.3 2.7-9.3 7.4v6.4zm9.3-27c0-3.7-1.5-5.2-5.4-5.2-3.7 0-6.2 1.5-6.2 2.5 0 1.9 4.3 1 4.3 6.2 0 2.9-2.4 4.9-5.1 4.9-3.6 0-5.1-2.4-5.1-5.5 0-7 7.7-9.8 14.1-9.8 8.2 0 14.1 2.8 14.1 10.2v25.5c0 1.4.3 2.4 1.3 2.4s2.2-1.6 2.6-2.4l1.2.8c-1.6 3-4.5 5.8-8.2 5.8-3.7 0-6.5-3.1-6.8-6.9h-.2c-2.2 4.2-6.2 6.9-11.3 6.9-6 0-9.2-3.9-9.2-10 0-10.4 12.7-12.5 20-13.8V26.6z"/><path clip-path="url(#b)" d="M256.6 59.4h3.9V1.6h-3.9V0h6.5c3.3 0 5.9-.1 8.1-2.2v61.5h3.9v1.6h-18.6v-1.5zm55.1-32c7.6-.4 10.9-1.6 10.9-13.1 0-7.1-.3-12.7-8.5-12.7h-2.4v25.8zm-16.3 32h3.9V1.6h-3.9V0h21.7c9.8 0 18.7 3.5 18.7 13.8 0 10.4-10.2 13.9-19.4 14.5v.2c13.1 1 16.9 5.2 16.9 19.6v4.4c0 5.5 1 6.6 3 6.6.6 0 1.2-.3 1.8-.6l.7 1.6c-1.2.7-4.4 1.6-7.8 1.6-8.5 0-10.1-7-10.3-12.8l-.3-11.5c-.2-5-1.5-8-8.6-8v30h4.2V61h-20.5v-1.6z"/><path clip-path="url(#b)" d="M357 26.7c0-3.8-2.1-5.3-4.6-5.3-2.5 0-4.5 1.5-4.5 5.3v8.7h9.1v-8.7zm-9.1 25.1c0 5.2 2.9 8 6.9 8 6.3 0 11.2-5.6 12.2-11.4l1.2.3c-1.4 7.5-6.4 13.5-15.4 13.5-10.1 0-16.8-11.3-16.8-21.2 0-9.8 6.7-21.1 16.8-21.1 9.1 0 14.8 7.9 15.4 17.3h-20.3v14.6zM404 22.6v36.8h-4V61h18.6v-1.6h-3.9V18.7c-2.2 2.2-5.3 2.3-8.1 2.3h-16.7v1.6c1.7 0 3.8 0 3.8 2.4 0 2.2-.9 4.7-1.6 7l-4.4 14.3h-.2l-8-23.7h3.6V21h-17.6v1.6h2.9l13.4 39.6h2l11.7-36c.7-2.3 2.1-3.6 4.5-3.6h4zm35.2 4.1c0-3.8-2.1-5.3-4.6-5.3-2.5 0-4.5 1.5-4.5 5.3v8.9h9.1v-8.9zm-9.1 25.1c0 5.2 2.9 8 6.9 8 6.3 0 11.2-5.6 12.2-11.4l1.2.3C449 56.2 444 62.1 435 62.1c-10.1 0-16.8-11.3-16.8-21.2 0-9.8 6.7-21.1 16.8-21.1 9.1 0 14.8 7.9 15.4 17.3h-20.3v14.7zm21.7-29.2h-3V21h17.3v1.6h-3.5l7.2 23.9.2.1 8.1-25.5h2.2l9.3 25.8.2-.1 4.4-14.5c.5-1.6 1.6-5.3 1.6-6.8 0-2.8-2.1-2.8-4.4-2.8V21h10.7v1.6c-3 0-3.9 1.2-4.9 3.8l-10.6 35.7h-2.5L475 36.5h-.2l-8.2 25.7h-2.5l-12.3-39.6zm67.6 36.8c3.8 0 4.1-.7 4.1-8.1V1.6h-3.7V0H537l9.1 37.6.2.1 9-37.7H572v1.6h-4v57.8h3.9V61h-20.2v-1.6h4.4V3.6v.1l-13.7 57.2h-2.7L525.9 2.8v-.3 48.6c0 7.4.6 8.1 4.3 8.1v1.6h-10.8v-1.4zm63.5-5.8c0 4.4 2 4.9 3.9 4.9 2.7 0 5.4-3.7 5.4-6.3V39.8c-7.6 1.7-9.3 2.7-9.3 7.4v6.4zm9.3-27c0-3.7-1.5-5.2-5.4-5.2-3.7 0-6.2 1.5-6.2 2.5 0 1.9 4.3 1 4.3 6.2 0 2.9-2.4 4.9-5.1 4.9-3.6 0-5.1-2.4-5.1-5.5 0-7 7.7-9.8 14.1-9.8 8.2 0 14.1 2.8 14.1 10.2v25.5c0 1.4.3 2.4 1.3 2.4s2.2-1.6 2.6-2.4l1.2.8c-1.6 3-4.5 5.8-8.2 5.8-3.7 0-6.5-3.1-6.8-6.9h-.2c-2.2 4.2-6.2 6.9-11.3 6.9-6 0-9.2-3.9-9.2-10 0-10.4 12.7-12.5 20-13.8V26.6zm28.2 14.6c0 3.6 1.4 4.8 4 4.8 2.5 0 3.9-1.1 3.9-4.8V26.1c0-3.6-1.4-4.8-3.9-4.8-2.6 0-4 1.1-4 4.8v15.1zm-2.3 23.4c-.6.5-3.7 2.3-3.7 7.2 0 5.4 5.2 8.4 10.3 8.4 6.2 0 13.8-3.7 13.8-10.5 0-4.7-4.8-5.1-8.9-5.1h-11.5zm11.6-10.3c9.1 0 12.3 4.8 12.3 10.9 0 9.3-7.6 16.7-18.4 16.7-6.4 0-14.6-2.6-14.6-9.2 0-4.4 3.9-7.4 7.5-8.4v-.2c-4.1-1-7-3.5-7-8.2 0-5.4 3.9-9.3 8.6-9.9-4.8-2.1-7.9-6.2-7.9-11.8 0-8.3 5.8-14.4 14.2-14.4 2.9 0 6.2 1 8.8 3.1 1.4-2.7 3.7-4.9 7-4.9 2.4 0 4.3 1.9 4.3 4.4 0 2.7-1.9 3.9-3.9 3.9-2.5 0-3.5-1.7-3.5-3.6 0-1 .2-1.8.5-2.5-1.5.7-2.6 1.9-3.4 3.5 1.3 1.4 4.4 5.1 4.4 9.9 0 8.9-6.7 14-14.1 14-1.9 0-3.9-.3-4.9-.6-1.9.8-5.6 1.3-5.6 4.2 0 2.3 1.7 3.2 4.5 3.2h11.2z"/><path clip-path="url(#b)" d="M653.5 53.6c0 4.4 2 4.9 3.9 4.9 2.7 0 5.4-3.7 5.4-6.3V39.8c-7.6 1.7-9.3 2.7-9.3 7.4v6.4zm9.3-27c0-3.7-1.5-5.2-5.4-5.2-3.7 0-6.2 1.5-6.2 2.5 0 1.9 4.3 1 4.3 6.2 0 2.9-2.4 4.9-5.1 4.9-3.6 0-5.1-2.4-5.1-5.5 0-7 7.7-9.8 14.1-9.8 8.2 0 14.1 2.8 14.1 10.2v25.5c0 1.4.3 2.4 1.3 2.4s2.2-1.6 2.6-2.4l1.2.8c-1.6 3-4.5 5.8-8.2 5.8-3.7 0-6.5-3.1-6.8-6.9h-.2c-2.2 4.2-6.2 6.9-11.3 6.9-6 0-9.2-3.9-9.2-10 0-10.4 12.7-12.5 20-13.8V26.6zm16.9 32.8l18.1-36.8h-4.3c-8.6 0-10.4 8-11.1 13h-1V21h27.9v1.6l-17.8 36.8h4.6c8.7 0 10.7-7.3 11.6-13.8h1.2l-.3 15.3h-28.8v-1.5zm69.4 1.5v-1.6h-3.6V32.9c0-3 1.9-9.4 6.7-9.4 3.1 0 3.9 2.1 3.9 5.2v30.7h-3.6V61h18.3v-1.6h-3.9V31.2c0-8.2-4.2-11.4-9.6-11.4-5.2 0-9.5 2.4-11.5 7h-.2v-8.1c-2.2 2.2-4.9 2.3-8.1 2.3H731v1.6h3.9v36.8h-8.5V18.7c-2.2 2.2-5.3 2.3-8.1 2.3h-6.5v1.6h3.9v36.8h-3.9V61h37.3zM721 0c3.4 0 6.2 2.9 6.2 6.5S724.4 13 721 13c-3.4 0-6.2-2.9-6.2-6.5S717.6 0 721 0m70.8 26.7c0-3.8-2.1-5.3-4.6-5.3-2.5 0-4.5 1.5-4.5 5.3v8.9h9.1v-8.9zm-9.1 25.1c0 5.2 2.9 8.1 6.9 8.1 6.3 0 11.2-5.8 12.2-11.6l1.2.3c-1.4 7.5-6.4 13.5-15.4 13.5-10.1 0-16.8-11.3-16.8-21.2 0-9.8 6.7-21.1 16.8-21.1 9.1 0 14.8 7.9 15.4 17.3h-20.3v14.7zM47.9 0h10v2.5h-3.7v10.6h-2.8V2.5h-3.5zm15.6 0h2.8v5.3h4V0H73v13.1h-2.7V7.4h-4v5.7h-2.8zm16.1 0H89v2.5h-6.6v2.7H87v2.4h-4.6v3.1h7v2.4h-9.8zm27.6 2.7l-1.6 5.5h3.3l-1.7-5.5zM105.7 0h3.5l3.9 13.1h-2.8l-.9-3H105l-.9 3h-2.3L105.7 0zm12.9 0h2.8v8.6c0 1.6.8 2.5 2.1 2.5s2-.9 2-2.5V0h2.8v8.9c0 2.8-1.8 4.5-4.8 4.5-3.2 0-4.9-1.8-4.9-5.2V0zm17.5 9.3c.9 1.3 1.7 1.8 2.6 1.8 1 0 1.7-.6 1.7-1.5 0-1-1.2-1.5-2.4-2-.8-.3-3.8-1.2-3.8-4.1 0-2.2 1.9-3.8 4.5-3.8 2.2 0 3.5 1.3 4.1 2.5l-2 1.4c-.9-1.2-1.6-1.6-2.5-1.6-.8 0-1.5.5-1.5 1.2 0 1 .8 1.4 2.3 2 1.7.7 3.9 1.5 3.9 4.4 0 2.4-1.9 4-4.7 4-2.6 0-3.9-1.8-4.4-2.8l2.2-1.5zM147.8 0h10v2.5h-3.6v10.6h-2.8V2.5h-3.6zm18.4 2.2v3.6h.4c1.1 0 2.8 0 2.8-1.8 0-1.3-.7-1.8-2.4-1.8h-.8zM163.5 0h4.4c3 0 4.6 1.4 4.6 3.9 0 2.2-1.6 3-2.4 3.4l2.7 5.8h-2.9l-2.5-5.3h-1.2v5.3h-2.8V0zm18.7 2.7l-1.6 5.5h3.3l-1.7-5.5zM180.7 0h3.5l3.9 13.1h-2.8l-.9-3H180l-.9 3h-2.3L180.7 0zm12.6 0h2.8v10.7h6.3v2.4h-9.1zm12.8 0h6v1.4h-1.6v10.4h1.7v1.3h-6.1v-1.3h1.7V1.4h-1.7zm15.4 2.7l-1.6 5.5h3.3l-1.7-5.5zM220 0h3.5l3.9 13.1h-2.8l-.9-3h-4.4l-.9 3h-2.3L220 0zm12.9 0h3l4.2 8.3V0h2.6v13.1h-2.5l-4.7-8.9v8.9h-2.6zm176.3 0c3.4 0 6.2 2.9 6.2 6.5 0 3.5-2.8 6.5-6.2 6.5s-6.2-2.9-6.2-6.5c.1-3.6 2.9-6.5 6.2-6.5"/></svg>