<?xml version="1.0" standalone="no"?>
<!DOCTYPE svg PUBLIC "-//W3C//DTD SVG 1.1//EN" "http://www.w3.org/Graphics/SVG/1.1/DTD/svg11.dtd" >
<svg xmlns="http://www.w3.org/2000/svg">
<metadata></metadata>
<defs>
<font id="suecasanssemibold" horiz-adv-x="1216" >
<font-face units-per-em="2048" ascent="1638" descent="-410" />
<missing-glyph horiz-adv-x="471" />
<glyph horiz-adv-x="2048" />
<glyph horiz-adv-x="2048" />
<glyph unicode="&#xd;" horiz-adv-x="2048" />
<glyph unicode=" "  horiz-adv-x="471" />
<glyph unicode="&#x09;" horiz-adv-x="471" />
<glyph unicode="&#xa0;" horiz-adv-x="471" />
<glyph unicode="!" horiz-adv-x="614" d="M150 1485h315l-66 -1053h-182zM152 139q0 158 155 158q158 0 158 -158q0 -72 -38 -114.5t-120 -42.5q-78 0 -116.5 43t-38.5 114z" />
<glyph unicode="&#x22;" horiz-adv-x="925" d="M125 995v490h268v-150l-92 -340h-176zM532 995v490h269v-150l-92 -340h-177z" />
<glyph unicode="#" horiz-adv-x="1230" d="M51 305l39 197h178l101 481h-195l41 199h188l64 305h162l-66 -305h279l63 305h162l-63 -305h180l-37 -199h-180l-101 -481h193l-37 -197h-193l-67 -317h-162l70 317h-279l-69 -317h-158l67 317h-180zM430 502h281l94 481h-279z" />
<glyph unicode="$" horiz-adv-x="1208" d="M104 53l43 223q226 -49 390 -49q137 0 207.5 44.5t70.5 152.5q0 77 -42 120t-136 62l-164 33q-165 29 -257.5 121t-92.5 254q1 185 102 294.5t289 139.5v192h184v-184q193 -3 361 -47l-53 -231q-208 51 -367 51q-236 0 -236 -180q0 -32 11 -57t26 -40.5t40 -27.5 t43.5 -17.5t45.5 -11.5l168 -37q191 -42 279 -141t88 -260q0 -100 -32 -181t-88.5 -134.5t-128.5 -86t-157 -45.5v-203h-184v195q-240 8 -410 51z" />
<glyph unicode="%" horiz-adv-x="1533" d="M82 1130q0 182 71.5 288t227.5 106q281 0 281 -377q0 -86 -15.5 -154.5t-48.5 -123t-90.5 -84t-136.5 -29.5q-81 0 -138 27.5t-89.5 79.5t-47 117.5t-14.5 149.5zM272 1147q0 -130 25 -192t82 -62q30 0 49 18.5t28 55.5t12 75.5t3 94.5q0 132 -22.5 190.5t-75.5 58.5 q-32 0 -53.5 -18t-31 -53.5t-13 -73.5t-3.5 -94zM287 25l852 1488l106 -57l-850 -1483zM872 354q0 182 71.5 288t227.5 106q281 0 281 -377q0 -86 -15.5 -154.5t-48.5 -123t-90.5 -84t-136.5 -29.5q-81 0 -138 27.5t-89.5 79.5t-47 117.5t-14.5 149.5zM1063 371 q0 -131 24.5 -192.5t81.5 -61.5q30 0 49 18.5t28.5 55t12.5 75t3 94.5q0 132 -23 191t-76 59q-32 0 -53 -17.5t-31 -54t-13 -74t-3 -93.5z" />
<glyph unicode="&#x26;" horiz-adv-x="1540" d="M82 397q0 280 350 434q-58 73 -87.5 144.5t-29.5 161.5q0 49 12 97t44.5 98t81 87.5t129 61.5t182.5 24q195 0 305.5 -88t110.5 -233q0 -251 -344 -400l258 -286q59 115 80 260l247 -19q-49 -241 -174 -413l283 -314v-10h-350l-119 131q-211 -158 -479 -158 q-241 0 -370.5 119.5t-129.5 302.5zM362 444q0 -111 81 -178t204 -67q153 0 273 88l-357 395q-201 -90 -201 -238zM586 1165q0 -60 28 -112t86 -119q123 52 176.5 105t53.5 139q0 58 -45.5 98.5t-124.5 40.5q-86 0 -130 -49t-44 -103z" />
<glyph unicode="'" horiz-adv-x="516" d="M125 995v490h268v-150l-92 -340h-176z" />
<glyph unicode="(" horiz-adv-x="741" d="M115 606q0 198 53 378t170 340t289 263l84 -96q-104 -91 -175 -192t-110 -212t-55.5 -222.5t-16.5 -243.5q0 -605 346 -916l-88 -100q-161 106 -275 271.5t-168 351t-54 378.5z" />
<glyph unicode=")" horiz-adv-x="741" d="M31 1491l84 96q172 -103 289 -263t170 -340t53 -378q0 -193 -54 -377t-167.5 -349t-274.5 -275l-88 100q344 309 344 916q0 133 -16 243.5t-54.5 222t-110 212.5t-175.5 192z" />
<glyph unicode="*" horiz-adv-x="915" d="M70 1223l94 143l211 -117l-6 258h182l-6 -258l213 117l86 -143l-238 -129l162 -232l-150 -90l-159 236l-162 -234l-152 90l164 230z" />
<glyph unicode="+" d="M86 567v213h414v430h219v-430h411v-213h-411v-436h-219v436h-414z" />
<glyph unicode="," horiz-adv-x="567" d="M137 -285l43 326l-37 227h275l2 -190l-119 -363h-164z" />
<glyph unicode="-" horiz-adv-x="735" d="M76 518v219h583v-219h-583z" />
<glyph unicode="." horiz-adv-x="567" d="M127 139q0 158 156 158q157 0 157 -158q0 -72 -37.5 -114.5t-119.5 -42.5q-78 0 -117 43t-39 114z" />
<glyph unicode="/" horiz-adv-x="702" d="M31 -354l430 1872l168 -31l-428 -1872z" />
<glyph unicode="0" horiz-adv-x="1280" d="M84 735q0 135 18.5 249t61 213t107 168t161.5 108.5t219 39.5q119 0 212.5 -36.5t155 -101t102 -157.5t58 -201t17.5 -237q0 -137 -17 -253t-57.5 -219.5t-103 -175t-159 -113.5t-220.5 -42q-555 0 -555 758zM395 766q0 -135 11.5 -232.5t40 -175t80.5 -116.5t128 -39 q58 0 101 34.5t67 87t38.5 129t19 145.5t4.5 153q0 125 -12 219.5t-39.5 167.5t-76 111t-116.5 38q-52 0 -92.5 -19t-67 -56t-44 -82t-26.5 -107.5t-12.5 -122t-3.5 -135.5z" />
<glyph unicode="1" horiz-adv-x="862" d="M117 1405l452 96h47v-1501h-294v1237l-195 -31z" />
<glyph unicode="2" horiz-adv-x="1181" d="M78 1446q244 65 454 65q91 0 169 -13t150 -44.5t123 -79.5t81 -123t30 -170q0 -58 -10.5 -113t-25.5 -101t-44.5 -94.5t-55 -84t-70.5 -80.5t-76 -73.5t-87 -72t-89.5 -68t-97 -70.5t-95.5 -70v-8h653v-246h-987v227l269 232q59 51 90 78t79 71t73 71.5t58.5 67 t50.5 70.5t34 69.5t23.5 77t6.5 80.5q-1 101 -78.5 157t-205.5 56q-154 0 -369 -55z" />
<glyph unicode="3" horiz-adv-x="1185" d="M80 25l33 241q59 -13 172 -26t211 -13q147 0 222 46.5t75 164.5q0 92 -65 141.5t-165 49.5h-207v231h174q97 0 161.5 57t64.5 150q0 54 -24 92.5t-66 59t-89 29.5t-102 9q-60 0 -162.5 -12t-158.5 -26l-43 235q196 47 411 47q87 0 163.5 -12.5t147 -41.5t120.5 -74 t80 -114t30 -157q0 -129 -71 -216t-183 -116v-6q133 -30 213 -120t80 -222q0 -99 -33 -177t-88.5 -127.5t-134 -82t-162 -45.5t-180.5 -13q-219 0 -424 48z" />
<glyph unicode="4" horiz-adv-x="1239" d="M53 356v211l617 920h323v-912h195v-219h-195v-356h-274v356h-666zM285 575h434v646h-8q-16 -36 -52 -91z" />
<glyph unicode="5" horiz-adv-x="1167" d="M74 10l28 230q211 -31 355 -31q69 0 126 11.5t106 37t76.5 72.5t27.5 112q0 44 -15.5 78.5t-44.5 56.5t-64 37.5t-82 23t-90.5 10.5t-95.5 3q-84 0 -165 -4t-84 -4l-11 14l33 826h868l-16 -246h-608l-15 -365q52 9 175 9q518 0 518 -408q0 -128 -46.5 -225t-130.5 -155.5 t-193 -87t-241 -28.5q-200 0 -411 33z" />
<glyph unicode="6" horiz-adv-x="1249" d="M84 705q0 144 20.5 261.5t68.5 218t122.5 169.5t186.5 108t257 41q101 0 200.5 -10t147.5 -27l-43 -231q-28 7 -117 18t-169 11q-100 0 -170.5 -30t-110 -88t-58 -131t-20.5 -171q91 48 139 63q83 25 189 25q226 0 332 -116t106 -322q0 -245 -139 -381t-391 -136 q-141 0 -247.5 52.5t-172.5 149.5t-98.5 229t-32.5 297zM396 583q-1 -40 5 -84.5t14.5 -88t28 -83.5t45 -70.5t65 -48.5t89.5 -18q67 0 113 21.5t70 62t34 88.5t10 111q0 127 -52.5 194.5t-172.5 67.5q-79 0 -150 -26.5t-98 -53.5q0 -32 -1 -72z" />
<glyph unicode="7" horiz-adv-x="1169" d="M76 1235v250h1046v-162l-585 -1323h-340l589 1235h-710z" />
<glyph unicode="8" horiz-adv-x="1245" d="M84 377q0 83 23.5 154.5t84 132.5t152.5 86q-240 84 -240 344q0 90 29 161t77.5 116.5t117 75.5t142 42t157.5 12q106 0 194.5 -21t162 -65.5t115.5 -124t42 -186.5q0 -131 -63.5 -223t-192.5 -131q266 -61 276 -361q0 -93 -29 -165.5t-79 -118.5t-121.5 -76t-150 -42 t-171.5 -12q-86 0 -160 12t-143 41t-117 74t-77 115t-29 160zM385 408q0 -107 62.5 -159t175.5 -52q235 0 235 206q0 107 -59 174.5t-176 67.5q-112 0 -175 -59.5t-63 -177.5zM391 1081q0 -59 21 -108.5t73 -84t129 -34.5q106 0 172 59t66 160q0 102 -61.5 155.5 t-172.5 53.5q-227 0 -227 -201z" />
<glyph unicode="9" horiz-adv-x="1249" d="M84 987q0 244 138.5 376t391.5 132q141 0 247.5 -52t172.5 -148.5t98.5 -228t32.5 -296.5q0 -144 -21 -261t-69 -217t-123 -168t-186.5 -106.5t-255.5 -40.5q-104 0 -203.5 9.5t-144.5 25.5l43 234q28 -7 117.5 -18t169.5 -11q99 0 169 29.5t110 86.5t58.5 129t20.5 169 q-51 -27 -81.5 -40.5t-98 -27.5t-148.5 -14q-226 0 -332 116t-106 322zM379 1008q0 -127 52.5 -195t172.5 -68q79 0 149 24.5t99 49.5q-1 32 0 72t-5 84t-14.5 87.5t-27.5 83.5t-44.5 70t-65 48t-89.5 18q-128 0 -177.5 -71.5t-49.5 -202.5z" />
<glyph unicode=":" horiz-adv-x="567" d="M127 139q0 158 156 158q157 0 157 -158q0 -72 -37.5 -114.5t-119.5 -42.5q-78 0 -117 43t-39 114zM127 897q0 158 156 158q157 0 157 -158q0 -73 -37.5 -115.5t-119.5 -42.5q-78 0 -117 43.5t-39 114.5z" />
<glyph unicode=";" horiz-adv-x="567" d="M127 897q0 158 156 158q157 0 157 -158q0 -73 -37.5 -115.5t-119.5 -42.5q-78 0 -117 43.5t-39 114.5zM137 -285l43 326l-37 227h275l2 -190l-119 -363h-164z" />
<glyph unicode="&#x3c;" d="M141 606v139l822 486l110 -180l-639 -375l639 -373l-108 -180z" />
<glyph unicode="=" d="M96 350v205h1024v-205h-1024zM96 766v205h1024v-205h-1024z" />
<glyph unicode="&#x3e;" d="M141 303l637 373l-637 375l111 180l821 -486v-139l-823 -483z" />
<glyph unicode="?" horiz-adv-x="997" d="M94 1462q147 37 346 37q484 0 484 -381q0 -266 -222 -362l-112 -54q-62 -25 -62 -77v-193h-213v258q0 86 39.5 139t126.5 89l58 26q63 29 87.5 70.5t24.5 97.5q0 84 -67 125t-234 41q-81 0 -215 -25zM279 139q0 158 155 158q158 0 158 -158q0 -72 -38 -114.5t-120 -42.5 q-78 0 -116.5 43t-38.5 114z" />
<glyph unicode="@" horiz-adv-x="1943" d="M104 440q0 231 57.5 413.5t172 313t294 200t414.5 69.5q375 0 587 -189.5t212 -529.5q0 -154 -33 -285t-95 -228.5t-159 -152.5t-219 -55q-215 0 -268 192q-61 -95 -156.5 -148.5t-177.5 -53.5q-129 0 -201.5 110.5t-72.5 272.5q0 105 18 204.5t61 196.5t107 169 t163.5 116.5t223.5 44.5q99 0 194 -15t142 -38l-78 -717q0 -2 -1 -26t-1 -32q0 -58 24.5 -90t90.5 -32q95 0 169.5 83t113 212.5t38.5 275.5q0 290 -181.5 450t-520.5 160q-168 0 -303.5 -45t-227.5 -124t-153.5 -190.5t-89 -241t-27.5 -279.5q0 -195 52.5 -333t155.5 -219 t242.5 -118t327.5 -37q179 0 375 37l27 -90q-202 -51 -420 -51q-209 0 -368.5 45t-274.5 139.5t-174.5 249t-59.5 366.5zM729 389q0 -201 102 -201q51 0 109.5 46t101.5 124l60 535q-33 10 -74 10q-70 0 -124.5 -34t-86.5 -86t-52.5 -123t-28 -136.5t-7.5 -134.5z" />
<glyph unicode="A" horiz-adv-x="1503" d="M14 0l553 1491h371l551 -1491h-330l-137 381h-571l-136 -381h-301zM532 610h410l-172 508l-33 115h-4l-31 -117z" />
<glyph unicode="B" horiz-adv-x="1361" d="M158 0v1485h590q512 0 512 -375q0 -122 -72 -218.5t-189 -123.5v-10q129 -19 208 -113.5t79 -226.5q0 -110 -38 -192t-108 -130.5t-161 -72t-205 -23.5h-616zM473 229h260q47 0 85.5 10t72 33t52 64.5t18.5 99.5q0 106 -58 154.5t-155 48.5h-275v-410zM473 866h279 q190 0 190 201q-8 184 -229 184h-240v-385z" />
<glyph unicode="C" horiz-adv-x="1286" d="M82 709q0 384 172 591t534 207q281 0 453 -55l-49 -238q-67 17 -174.5 33.5t-202.5 16.5q-93 0 -163.5 -24.5t-116.5 -68t-75 -109t-40.5 -141.5t-11.5 -173q0 -275 96 -398t327 -123q181 0 353 43l28 -233q-180 -60 -430 -60q-700 0 -700 732z" />
<glyph unicode="D" horiz-adv-x="1492" d="M156 0v1485h536q157 0 280.5 -37.5t205 -103t134.5 -159t76 -199.5t23 -230q0 -367 -190.5 -561.5t-520.5 -194.5h-544zM471 225h215q111 0 190.5 35.5t125.5 104.5t67 160.5t21 213.5q0 123 -22 216t-70.5 163t-129.5 106t-194 36h-203v-1035z" />
<glyph unicode="E" horiz-adv-x="1265" d="M158 0v1485h1003v-234h-688v-372h553v-234h-553v-409h696v-236h-1011z" />
<glyph unicode="F" horiz-adv-x="1228" d="M158 0v1485h1003v-236h-688v-370h553v-234h-553v-645h-315z" />
<glyph unicode="G" horiz-adv-x="1499" d="M82 723q0 376 198 580t556 204q306 0 514 -67l-60 -244q-74 23 -198 43.5t-228 20.5q-236 0 -346 -126t-110 -389q0 -262 96.5 -397t318.5 -135q115 0 232 25v311h-320v219h615v-705q-104 -37 -254.5 -61.5t-284.5 -24.5q-361 0 -545 187.5t-184 558.5z" />
<glyph unicode="H" horiz-adv-x="1579" d="M158 0v1485h315v-584h633v584h313v-1485h-313v653h-633v-653h-315z" />
<glyph unicode="I" horiz-adv-x="630" d="M158 0v1485h315v-1485h-315z" />
<glyph unicode="J" horiz-adv-x="653" d="M-84 -377l14 223q47 -6 101 -6q84 0 117.5 42.5t33.5 146.5v1456h314v-1473q0 -54 -12.5 -108t-43.5 -108.5t-76 -96.5t-116 -68t-158 -26q-92 0 -174 18z" />
<glyph unicode="K" horiz-adv-x="1415" d="M158 0v1485h315v-680l553 680h342l-580 -692l603 -793h-363l-555 752v-752h-315z" />
<glyph unicode="L" horiz-adv-x="1243" d="M158 0v1485h315v-1249h696v-236h-1011z" />
<glyph unicode="M" horiz-adv-x="1931" d="M158 0v1485h465l321 -1055l14 -80h7l14 80l313 1055h482v-1485h-295v1192l6 88h-10l-390 -1280h-278l-391 1282h-8l4 -90v-1192h-254z" />
<glyph unicode="N" horiz-adv-x="1540" d="M158 0v1485h360l533 -899l67 -125h6l-10 201v823h268v-1487h-309l-590 991l-57 111l-6 -2l8 -183v-915h-270z" />
<glyph unicode="O" horiz-adv-x="1527" d="M82 729q0 383 171 580.5t517 197.5q144 0 259 -37.5t192 -103.5t128.5 -159t74 -200.5t22.5 -232.5q0 -188 -40 -333.5t-122 -249t-212 -157.5t-304 -54q-344 0 -515 192.5t-171 556.5zM408 733q0 -126 17.5 -217.5t58 -160.5t112 -103.5t174.5 -34.5q83 0 145.5 25.5 t101 69t62 109.5t32.5 137.5t9 162.5q0 134 -16.5 230t-56 171t-111.5 112.5t-178 37.5q-85 0 -148 -26.5t-101 -71.5t-61 -116t-31.5 -147.5t-8.5 -177.5z" />
<glyph unicode="P" horiz-adv-x="1329" d="M158 0v1485h518q90 0 167 -11.5t154 -42.5t130 -80.5t86.5 -131.5t33.5 -189q0 -228 -146 -346.5t-411 -118.5h-217v-565h-315zM473 786h209q131 0 193.5 55t62.5 183t-70 180.5t-211 52.5h-184v-471z" />
<glyph unicode="Q" horiz-adv-x="1527" d="M82 729q0 383 171 580.5t517 197.5q144 0 259 -37.5t192 -103.5t128.5 -159t74 -200.5t22.5 -232.5q0 -422 -199 -624l207 -310l-317 -65l-146 231q-111 -26 -223 -26q-344 0 -515 192.5t-171 556.5zM408 733q0 -126 17.5 -217.5t58 -160.5t112 -103.5t174.5 -34.5 q83 0 145.5 25.5t101 69t62 109.5t32.5 137.5t9 162.5q0 134 -16.5 230t-56 171t-111.5 112.5t-178 37.5q-85 0 -148 -26.5t-101 -71.5t-61 -116t-31.5 -147.5t-8.5 -177.5z" />
<glyph unicode="R" horiz-adv-x="1394" d="M158 0v1485h534q66 0 122 -4t118 -16.5t111 -32.5t94.5 -53.5t76 -78.5t48.5 -109.5t18 -143.5q0 -164 -83.5 -274t-227.5 -146l372 -627h-352l-323 592h-193v-592h-315zM473 807h227q128 0 194.5 50.5t66.5 180.5q0 65 -21.5 109.5t-63.5 67t-92 31.5t-120 9h-191v-448z " />
<glyph unicode="S" horiz-adv-x="1218" d="M80 31l47 235q244 -53 412 -53q142 0 216 47.5t74 159.5q0 80 -44 125.5t-142 64.5l-172 33q-369 68 -369 392v5q0 228 145.5 347.5t411.5 119.5q236 0 420 -51l-57 -246q-203 56 -369 56q-125 0 -189.5 -48t-64.5 -141q0 -41 15 -70.5t44.5 -47.5t54 -26.5t60.5 -17.5 l179 -38q198 -44 290.5 -148.5t92.5 -273.5q0 -101 -31 -183t-83.5 -136.5t-124.5 -92t-152 -54t-169 -16.5q-271 0 -495 58z" />
<glyph unicode="T" horiz-adv-x="1312" d="M41 1251v234h1231v-234h-459v-1251h-315v1251h-457z" />
<glyph unicode="U" horiz-adv-x="1476" d="M143 465v1020h316v-983q0 -147 77.5 -211t223.5 -64q128 3 203 69t75 196v993h295v-991q0 -113 -34.5 -203.5t-91 -148t-135 -95.5t-161.5 -54t-174 -16q-127 0 -230.5 25t-187 80t-130 152t-46.5 231z" />
<glyph unicode="V" horiz-adv-x="1398" d="M0 1485h328l356 -1018l31 -123h10l31 125l348 1016h297l-545 -1491h-305z" />
<glyph unicode="W" horiz-adv-x="1918" d="M37 1485h307l180 -965l25 -174h6l27 174l235 965h316l227 -969l29 -172h10q0 18 22 172l187 969h274l-334 -1497h-319l-242 1077q0 3 -9 63.5t-9 69.5h-8q0 -10 -8.5 -66.5t-10.5 -68.5l-242 -1075h-329z" />
<glyph unicode="X" horiz-adv-x="1361" d="M10 0l508 766l-452 719h350l295 -490l301 490h315l-467 -713l492 -772h-351l-333 537l-342 -537h-316z" />
<glyph unicode="Y" horiz-adv-x="1271" d="M4 1485h344l307 -613h2l310 613h299l-473 -862v-623h-318v621z" />
<glyph unicode="Z" horiz-adv-x="1267" d="M76 0v131l708 1122h-678v232h1082v-129l-715 -1125h715v-231h-1112z" />
<glyph unicode="[" horiz-adv-x="737" d="M190 -399v1894h498v-149h-258v-1596h258v-149h-498z" />
<glyph unicode="\" horiz-adv-x="702" d="M63 1487l166 31l430 -1872l-167 -31z" />
<glyph unicode="]" horiz-adv-x="737" d="M49 -250h258v1596h-258v149h498v-1894h-498v149z" />
<glyph unicode="^" d="M117 420l424 801h133l428 -799l-178 -78l-316 602l-317 -602z" />
<glyph unicode="_" horiz-adv-x="1024" d="M0 -141h1024v-140h-1024v140z" />
<glyph unicode="`" horiz-adv-x="671" d="M104 1497l254 68l215 -357l-178 -26z" />
<glyph unicode="a" horiz-adv-x="1163" d="M78 274q0 69 23.5 124.5t59 91.5t92.5 62t110 40t125.5 21.5t124.5 9.5t122 2v110q0 34 -11.5 59t-28.5 39t-44.5 22t-52.5 10.5t-59 2.5q-91 0 -168 -18t-170 -51l-66 198q207 84 481 84q87 0 157.5 -17.5t126.5 -54.5t87 -100.5t31 -150.5v-414q0 -136 10 -344h-262 l-14 123q-54 -68 -139.5 -108t-174.5 -40q-166 0 -263 74.5t-97 224.5zM362 313q0 -84 44.5 -118.5t128.5 -34.5q50 0 109 27t91 69v211q-58 0 -91.5 -1t-84 -5t-80 -14t-59.5 -26.5t-44 -43.5t-14 -64z" />
<glyph unicode="b" horiz-adv-x="1218" d="M154 35v1470h282v-499q40 29 123 52t158 23q202 0 311 -134t109 -378q0 -273 -153.5 -431t-426.5 -158q-211 0 -403 55zM436 197q69 -17 154 -17q138 0 195 95t57 264q0 180 -54.5 257.5t-175.5 77.5q-88 0 -176 -43v-634z" />
<glyph unicode="c" horiz-adv-x="1007" d="M82 512q0 271 136 420t405 149q192 0 323 -49l-43 -211q-144 43 -266 43q-79 0 -131.5 -20.5t-81.5 -64t-41 -100.5t-12 -140q0 -181 65 -259.5t223 -78.5q114 0 252 35l31 -205q-148 -51 -330 -51q-266 0 -398 131t-132 401z" />
<glyph unicode="d" horiz-adv-x="1218" d="M82 512q0 116 31 216t91 179.5t159.5 125.5t226.5 46q104 0 190 -24v450h285v-1505h-262l-8 104q-48 -54 -131.5 -91.5t-159.5 -37.5q-208 0 -315 140t-107 397zM377 553q0 -181 52 -274t177 -93q34 0 69.5 10t54 19t50.5 27v616q-80 23 -159 23q-68 0 -117.5 -27 t-76 -75.5t-38.5 -103.5t-12 -122z" />
<glyph unicode="e" horiz-adv-x="1118" d="M82 518q0 265 123.5 414t380.5 149q218 0 336 -105.5t118 -324.5q0 -34 -14 -174h-657q-1 -153 75 -220t234 -67q144 0 305 37l29 -192q-163 -55 -371 -55q-291 0 -425 126t-134 412zM371 645h401v22q0 103 -42 163q-47 66 -152 67q-201 0 -207 -252z" />
<glyph unicode="f" horiz-adv-x="784" d="M61 856v205h162v135q0 164 87 251t261 87q120 0 220 -27l-43 -209q-79 21 -144 21q-96 0 -96 -96v-162h215v-205h-215v-856h-285v856h-162z" />
<glyph unicode="g" horiz-adv-x="1218" d="M82 506q0 174 55 301t170.5 199.5t282.5 72.5q123 0 241 -59l31 45h203v-1032q0 -94 -28.5 -169.5t-78 -127t-120 -85.5t-152.5 -49.5t-178 -15.5q-163 0 -315 23l18 223q164 -20 268 -20q149 0 225 53.5t76 177.5v66q-48 -43 -124.5 -67t-151.5 -24q-422 0 -422 488z M377 553q0 -171 50 -255.5t175 -84.5q38 0 78 10.5t53.5 16.5t46.5 22v596q-85 23 -164 23q-53 0 -95 -18.5t-68.5 -49t-44 -73.5t-24.5 -89t-7 -98z" />
<glyph unicode="h" horiz-adv-x="1249" d="M154 0v1505h282v-557q69 58 165 95.5t192 37.5q143 0 228 -66t85 -194v-821h-285v752q0 61 -41 90.5t-110 29.5q-114 0 -234 -69v-803h-282z" />
<glyph unicode="i" horiz-adv-x="589" d="M137 1362q0 158 158 158t158 -158q0 -71 -38 -113.5t-120 -42.5q-78 0 -118 43t-40 113zM154 0v1059h282v-1059h-282z" />
<glyph unicode="j" horiz-adv-x="591" d="M-117 -397l23 219q98 -15 127 -15q74 0 100.5 45t26.5 152v1053h284v-1069q0 -57 -8 -109t-32.5 -108.5t-63 -97t-105 -67t-153.5 -26.5q-99 0 -199 23zM139 1362q0 158 156 158q158 0 158 -158q0 -71 -38 -113.5t-120 -42.5q-78 0 -117 43t-39 113z" />
<glyph unicode="k" horiz-adv-x="1146" d="M154 0v1505h282v-905l381 461h291l-383 -461l405 -600h-307l-387 588v-588h-282z" />
<glyph unicode="l" horiz-adv-x="589" d="M154 0v1505h282v-1505h-282z" />
<glyph unicode="m" horiz-adv-x="1912" d="M154 0v1059h262l8 -119q73 62 173 101.5t198 39.5q106 0 181.5 -37.5t106.5 -111.5q79 68 179.5 108.5t199.5 40.5q143 0 227.5 -66t84.5 -194v-821h-285v741q0 67 -41 99t-109 32q-116 0 -233 -69v-803h-285v745q-1 64 -42.5 95.5t-108.5 31.5q-111 0 -234 -69v-803 h-282z" />
<glyph unicode="n" horiz-adv-x="1245" d="M154 0v1059h262l8 -119q73 62 173 101.5t198 39.5q143 0 227 -66t84 -194v-821h-285v741q0 67 -41 99t-110 32q-111 0 -234 -69v-803h-282z" />
<glyph unicode="o" horiz-adv-x="1185" d="M82 512q0 275 127 422t383 147q512 0 512 -530q0 -571 -512 -571q-260 0 -385 130.5t-125 401.5zM379 524q0 -199 51.5 -276.5t161.5 -77.5q116 0 164.5 81t48.5 275q0 197 -46 281t-169 84q-63 0 -105.5 -26.5t-65 -78t-31.5 -114t-9 -148.5z" />
<glyph unicode="p" horiz-adv-x="1218" d="M154 -389v1448h262l6 -96q131 118 301 118q414 0 414 -522q0 -167 -58 -297t-174 -206t-274 -76q-114 0 -195 24v-393h-282zM436 199q66 -19 160 -19q69 0 119 29.5t76.5 81t38.5 109t12 124.5q0 82 -10.5 142.5t-35 109t-70.5 73.5t-112 25q-87 0 -178 -57v-618z" />
<glyph unicode="q" horiz-adv-x="1204" d="M82 516q0 91 17.5 172t56.5 153.5t96.5 124.5t142.5 82.5t189 30.5q129 0 247 -59l35 47h199v-1456h-285v467q-50 -46 -123.5 -73.5t-150.5 -27.5q-210 0 -317 143.5t-107 395.5zM375 559q0 -82 10.5 -146t34.5 -117t68 -81.5t106 -28.5q98 0 186 41v623q-73 31 -168 31 q-64 0 -111 -26.5t-74 -73t-39.5 -102t-12.5 -120.5z" />
<glyph unicode="r" horiz-adv-x="876" d="M154 0v1059h262l8 -119q60 60 140 96.5t167 36.5q69 0 113 -10l-15 -232q-82 5 -108 5q-55 0 -143 -19t-142 -57v-760h-282z" />
<glyph unicode="s" horiz-adv-x="1001" d="M80 20l41 201q56 -13 159.5 -28t170.5 -15q45 0 77.5 5t61.5 17.5t44 37.5t15 63q0 52 -26.5 75.5t-96.5 37.5l-194 35q-250 46 -250 282q0 77 24 137.5t64.5 100t97.5 65t118 36.5t130 11q229 0 367 -41l-43 -198q-205 41 -314 41q-174 0 -174 -113q0 -51 24 -69.5 t83 -30.5l182 -33q146 -25 216.5 -100t70.5 -209q0 -96 -34.5 -166.5t-97.5 -110.5t-141 -59t-174 -19q-244 0 -401 47z" />
<glyph unicode="t" horiz-adv-x="851" d="M53 856v205h172v282l285 56v-338h270v-205h-270v-537q0 -110 111 -110q48 0 139 14l18 -209q-109 -34 -243 -34q-142 0 -226 68.5t-84 209.5v598h-172z" />
<glyph unicode="u" horiz-adv-x="1249" d="M143 240v819h285v-740q0 -67 41 -99t109 -32q114 0 233 70v801h285v-1057l-262 -6l-9 125q-73 -62 -172.5 -101.5t-197.5 -39.5q-143 0 -227.5 66t-84.5 194z" />
<glyph unicode="v" horiz-adv-x="1079" d="M18 1061h291l221 -684l21 -88h4l18 88l224 684h266l-381 -1065h-291z" />
<glyph unicode="w" horiz-adv-x="1660" d="M23 1061h280l164 -633l27 -137h6l24 135l174 635h293l174 -629l27 -139h6l29 141l164 627h247l-311 -1063h-272l-193 684l-18 106h-6l-21 -106l-194 -684h-295z" />
<glyph unicode="x" horiz-adv-x="1077" d="M6 0l375 559l-344 502h319l207 -332l203 332h276l-335 -512l364 -547l-315 -2l-234 367l-237 -367h-279z" />
<glyph unicode="y" horiz-adv-x="1075" d="M16 1061h293l232 -653l22 -89h4l19 89l209 653h266l-356 -987q-93 -264 -207.5 -377t-302.5 -113q-59 0 -125 15l20 235q63 -8 105 -8q146 0 194 131l27 68z" />
<glyph unicode="z" horiz-adv-x="1021" d="M74 -2v108l489 740h-483l4 215h852v-115l-490 -735h508l-6 -213h-874z" />
<glyph unicode="{" horiz-adv-x="737" d="M100 539v151q38 7 64 32.5t26 72.5v530q0 83 42.5 125.5t115.5 44.5h340v-149h-213q-45 0 -45 -41v-510q0 -58 -33.5 -113.5t-87.5 -69.5v-12q65 -18 93 -72t28 -147v-594q0 -23 9 -30t30 -7h219v-149h-330q-168 0 -168 172v643q0 108 -90 123z" />
<glyph unicode="|" horiz-adv-x="747" d="M283 -190v1693h182v-1693h-182z" />
<glyph unicode="}" horiz-adv-x="737" d="M49 -250h217q22 0 31.5 7t9.5 30v594q0 94 27.5 147.5t93.5 71.5l-2 12q-53 14 -86 69.5t-33 113.5v510q0 41 -45 41h-213v149h340q72 -2 115 -44.5t43 -125.5v-530q0 -47 26 -72.5t64 -32.5v-151q-90 -15 -90 -123v-643q0 -172 -168 -172h-330v149z" />
<glyph unicode="~" d="M135 467q6 91 34.5 160t69.5 106t83.5 54.5t83.5 17.5q59 0 120.5 -26.5t104 -57.5t93.5 -57.5t91 -26.5q85 0 90 156h172q0 -79 -18 -140.5t-45.5 -98t-65 -59.5t-72.5 -31.5t-73 -8.5q-58 0 -119.5 27t-104 59t-92 59t-86.5 27q-80 0 -92 -160h-174z" />
<glyph unicode="&#xa1;" horiz-adv-x="614" d="M147 -397l66 1052h184l66 -1052h-316zM147 950q0 71 38 113.5t120 42.5q78 0 118 -43t40 -113q0 -157 -158 -157t-158 157z" />
<glyph unicode="&#xa2;" horiz-adv-x="1007" d="M82 543q0 246 112.5 392.5t335.5 170.5v199h183v-197q141 -10 233 -45l-43 -211q-144 43 -266 43q-152 0 -209 -79t-57 -247q0 -181 65 -259.5t223 -78.5q114 0 252 35l31 -205q-107 -38 -229 -47v-198h-183v196q-225 20 -336.5 151t-111.5 380z" />
<glyph unicode="&#xa3;" horiz-adv-x="1138" d="M98 0v205h203q45 93 45 211q0 112 -43 284h-194v150h157q-26 120 -26 235q0 88 30.5 167.5t87 142.5t146 100t198.5 37q184 0 361 -49l-43 -217q-165 47 -287 47q-213 0 -213 -221q0 -95 33 -242h381v-150h-346q37 -163 37 -276q0 -127 -43 -219h510l-27 -205h-967z" />
<glyph unicode="&#xa4;" horiz-adv-x="1161" d="M123 1096l108 104l107 -108q102 75 242 75q134 0 241 -75l109 108l106 -106l-106 -105q78 -116 78 -246q0 -135 -80 -245l108 -109l-108 -100l-109 104q-107 -74 -239 -74t-242 74l-109 -108l-104 106l104 107q-75 107 -75 245q0 139 75 246zM326 743q0 -116 71 -195 t183 -79q116 0 186 78.5t70 195.5q0 116 -71.5 197.5t-184.5 81.5q-115 0 -184.5 -81t-69.5 -198z" />
<glyph unicode="&#xa5;" horiz-adv-x="1271" d="M4 1485h344l307 -613h2l310 613h299l-473 -862v-35h354v-205h-354v-383h-318v383h-350v205h350v33z" />
<glyph unicode="&#xa7;" horiz-adv-x="1153" d="M121 641q0 172 160 274q-121 62 -121 215q0 81 25.5 145.5t68.5 106t102 69t122.5 39t133.5 11.5q222 0 371 -45l-53 -213q-193 43 -316 43q-170 0 -170 -112q0 -53 23 -73t80 -32l194 -41q149 -31 224.5 -111.5t78.5 -220.5q0 -173 -135 -272q50 -30 78 -89.5t31 -137.5 q0 -93 -38.5 -164.5t-105.5 -114t-151 -63.5t-182 -21q-251 0 -410 53l49 211q60 -14 160.5 -29.5t167.5 -15.5q48 0 80.5 4t64 15.5t47 36t15.5 61.5q0 54 -26 80t-95 43l-188 45q-285 64 -285 303zM397 680q0 -100 164 -129l113 -21q88 45 88 132q0 61 -46 94.5t-190 62.5 q-55 -8 -92 -43.5t-37 -95.5z" />
<glyph unicode="&#xa8;" horiz-adv-x="976" d="M104 1362q0 147 146 147q147 0 147 -147q0 -66 -35.5 -105.5t-111.5 -39.5q-72 0 -109 40t-37 105zM578 1362q0 147 145 147q147 0 147 -147q0 -66 -35.5 -105.5t-111.5 -39.5q-72 0 -108.5 40t-36.5 105z" />
<glyph unicode="&#xa9;" horiz-adv-x="1810" d="M115 750q0 107 24.5 209t83.5 202.5t146.5 175.5t226 121.5t309.5 46.5q131 0 241.5 -24t190.5 -64.5t143 -98.5t103 -123t66 -141t36.5 -148.5t10.5 -149.5q0 -87 -8.5 -165.5t-31.5 -164t-59 -156.5t-95 -136.5t-136 -111t-186 -72t-240 -26.5q-149 0 -271 26.5 t-206.5 70.5t-148 110t-101 135.5t-60 155.5t-30.5 163t-8 165zM242 721q0 -77 6.5 -142.5t26 -138.5t52 -131t86.5 -112.5t127 -91t177.5 -58.5t232.5 -22q112 0 204 23.5t155 61.5t110 95t74.5 116t44 132t22 135.5t5.5 134.5q0 103 -15 192.5t-59 182.5t-114 159 t-189 108t-275 42q-120 0 -219 -24t-167 -64t-120.5 -97t-83 -116.5t-49.5 -130t-25.5 -130.5t-6.5 -124zM426 713q0 260 132.5 401t387.5 141q182 0 303 -38l-39 -197q-32 10 -105.5 22.5t-133.5 12.5q-149 0 -206.5 -77.5t-57.5 -234.5q0 -176 62 -258t210 -82 q115 0 229 31l31 -188q-136 -47 -297 -47q-259 0 -387.5 125.5t-128.5 388.5z" />
<glyph unicode="&#xaa;" horiz-adv-x="776" d="M106 1042q0 39 13 71t33.5 52.5t52.5 36t62.5 23.5t71.5 13t71.5 6t70.5 1v60q0 22 -9.5 36t-27 20.5t-33.5 8.5t-38 2q-76 0 -195 -39l-41 125q117 47 289 47q109 0 173.5 -47t64.5 -149v-207q0 -99 6 -219l-168 -6l-10 77q-30 -39 -81 -61.5t-102 -22.5 q-94 0 -148.5 43.5t-54.5 128.5zM125 604v139h534v-139h-534zM287 1067q0 -40 22.5 -61t63.5 -21q24 0 57.5 14.5t50.5 34.5v115q-41 0 -71 -2.5t-60.5 -10.5t-46.5 -25.5t-16 -43.5z" />
<glyph unicode="&#xab;" horiz-adv-x="1218" d="M76 584v149l407 332l123 -123l-260 -280l262 -306l-123 -114zM610 584v149l408 332l123 -123l-260 -280l262 -306l-123 -114z" />
<glyph unicode="&#xac;" horiz-adv-x="1183" d="M102 578v192h979v-510h-207v318h-772z" />
<glyph unicode="&#xad;" horiz-adv-x="735" d="M76 518v219h583v-219h-583z" />
<glyph unicode="&#xae;" horiz-adv-x="989" d="M86 1112q0 54 12.5 106.5t42.5 104t75 90t115.5 62.5t157.5 24q89 0 161 -23t118.5 -60.5t77.5 -88t44 -102.5t13 -107q0 -62 -11 -119t-40 -114.5t-72.5 -99.5t-114 -68.5t-159.5 -26.5q-99 0 -175 25.5t-121 66.5t-74 98t-39.5 113t-10.5 119zM180 1098 q0 -51 7.5 -93.5t28.5 -86t56 -74t94 -49.5t138 -19q71 0 126.5 20.5t88.5 53t54 77t28.5 87t7.5 88.5t-8.5 88t-30.5 84t-56.5 72.5t-91 49.5t-128.5 19q-77 0 -135.5 -21.5t-91.5 -53.5t-53.5 -77t-27 -84t-6.5 -81zM328 877v452h166q186 0 186 -139q0 -50 -24 -84.5 t-68 -46.5l106 -182h-119l-88 170h-49v-170h-110zM438 1122h62q69 0 69 66q0 35 -20 48t-57 13h-54v-127z" />
<glyph unicode="&#xaf;" horiz-adv-x="864" d="M94 1245v185h676v-185h-676z" />
<glyph unicode="&#xb0;" horiz-adv-x="622" d="M96 1323q0 89 60 153t153 64q103 0 160 -58t57 -145q0 -92 -61.5 -155.5t-155.5 -63.5q-105 0 -159 61.5t-54 143.5zM205 1331q0 -46 26.5 -81.5t75.5 -35.5q56 0 83.5 34.5t27.5 82.5q0 44 -27.5 78.5t-81.5 34.5q-48 0 -76 -34t-28 -79z" />
<glyph unicode="&#xb1;" d="M86 776v213h414v430h219v-430h411v-213h-411v-436h-219v436h-414zM92 -23v213h1032v-213h-1032z" />
<glyph unicode="&#xb4;" horiz-adv-x="671" d="M109 1208l215 357l254 -68l-291 -315z" />
<glyph unicode="&#xb5;" horiz-adv-x="1239" d="M147 47v1010h281v-721q0 -73 30 -113.5t115 -40.5q122 0 230 82v793h278v-791q0 -39 12.5 -55t39.5 -16q26 0 51 6v-191q-59 -22 -135 -22q-66 0 -118 38.5t-71 116.5q-23 -62 -104 -114t-172 -52q-133 0 -183 142h-12l2 -43q0 -228 58 -502l-265 -23q-32 159 -37 496z " />
<glyph unicode="&#xb6;" horiz-adv-x="1308" d="M102 932q0 153 37 261.5t110.5 172.5t171.5 92.5t230 28.5h619v-184h-162v-1641h-180v1641h-213v-1641h-187v795q-212 1 -319 125.5t-107 349.5z" />
<glyph unicode="&#xb7;" horiz-adv-x="544" d="M135 756q0 157 156 157q158 0 158 -157q0 -71 -38 -113.5t-120 -42.5q-78 0 -117 43t-39 113z" />
<glyph unicode="&#xb8;" horiz-adv-x="671" d="M59 -432l21 123q85 -19 160 -19q131 0 131 76q0 69 -178 86l-9 8l70 166h117l-33 -94q112 -8 174.5 -49.5t62.5 -112.5q0 -96 -83 -151.5t-218 -55.5q-137 0 -215 23z" />
<glyph unicode="&#xba;" horiz-adv-x="782" d="M104 1186q0 155 73 240t220 85q151 0 223 -80t72 -221q0 -168 -72 -250.5t-223 -82.5q-152 0 -222.5 75.5t-70.5 233.5zM131 604v139h535v-139h-535zM293 1192q0 -113 23.5 -154t80.5 -41q62 0 85.5 44t23.5 151q0 108 -22.5 153.5t-86.5 45.5q-61 0 -82.5 -49.5 t-21.5 -149.5z" />
<glyph unicode="&#xbb;" horiz-adv-x="1218" d="M76 356l260 306l-258 282l123 121l407 -334v-149l-409 -340zM610 356l260 306l-258 282l123 121l408 -334v-149l-410 -340z" />
<glyph unicode="&#xbc;" horiz-adv-x="1511" d="M127 1450l246 51h30v-735h-184v573l-90 -10zM217 25l852 1488l107 -57l-850 -1483zM801 156v133l303 448h203v-444h86v-137h-86v-156h-174v156h-332zM944 293h189v272h-5l-12 -21l-12 -22z" />
<glyph unicode="&#xbd;" horiz-adv-x="1511" d="M123 1450l246 51h30v-735h-184v573l-90 -10zM195 25l852 1488l106 -57l-850 -1483zM854 717q110 35 246 35q55 0 100.5 -9t89.5 -31.5t69 -67.5t25 -109q0 -42 -17.5 -84t-40.5 -74t-63 -69.5t-66.5 -58t-70.5 -53t-57 -42.5h315v-152h-522v125q34 31 93.5 80.5t93.5 80 t72 70t55.5 76.5t17.5 74q0 47 -33 67.5t-82 20.5q-70 0 -194 -27z" />
<glyph unicode="&#xbe;" horiz-adv-x="1511" d="M102 766l21 147q99 -18 190 -18q125 0 125 82q0 36 -25.5 55t-68.5 19h-104v135h90q42 0 69 21.5t27 58.5q0 73 -115 73q-66 0 -172 -18l-28 143q125 27 225 27q55 0 101.5 -9.5t89 -30.5t67 -62.5t24.5 -98.5q0 -64 -35.5 -105.5t-90.5 -54.5v-4q60 -15 99.5 -58 t39.5 -110q0 -50 -18.5 -88.5t-48.5 -62t-72 -38.5t-84 -20.5t-89 -5.5q-120 0 -217 23zM291 25l852 1488l106 -57l-850 -1483zM834 156v133l303 448h202v-444h86v-137h-86v-156h-174v156h-331zM977 293h188v272h-4l-12 -21l-12 -22z" />
<glyph unicode="&#xbf;" horiz-adv-x="997" d="M100 -14q0 266 219 362l115 53q60 24 60 78v193h213v-260q0 -87 -39 -138.5t-125 -87.5l-58 -26q-64 -29 -88 -70t-24 -98q0 -84 66 -125t233 -41q88 0 217 24l39 -208q-152 -39 -344 -39q-484 0 -484 383zM430 965q0 71 38.5 113t121.5 42q76 0 115.5 -43t39.5 -112 q0 -158 -155 -158q-160 0 -160 158z" />
<glyph unicode="&#xc0;" horiz-adv-x="1503" d="M14 0l553 1491h371l551 -1491h-330l-137 381h-571l-136 -381h-301zM352 1784l135 209l404 -295l-80 -113zM532 610h410l-172 508l-33 115h-4l-31 -117z" />
<glyph unicode="&#xc1;" horiz-adv-x="1503" d="M14 0l553 1491h371l551 -1491h-330l-137 381h-571l-136 -381h-301zM532 610h410l-172 508l-33 115h-4l-31 -117zM668 1698l401 295l137 -209l-458 -199z" />
<glyph unicode="&#xc2;" horiz-adv-x="1503" d="M14 0l553 1491h371l551 -1491h-330l-137 381h-571l-136 -381h-301zM383 1683l270 252h178l275 -252l-111 -114l-252 174l-251 -176zM532 610h410l-172 508l-33 115h-4l-31 -117z" />
<glyph unicode="&#xc3;" horiz-adv-x="1503" d="M14 0l553 1491h371l551 -1491h-330l-137 381h-571l-136 -381h-301zM322 1651q25 129 91.5 189.5t155.5 60.5q72 0 174.5 -24t149.5 -24q22 0 37 5t24.5 17t14 22t12.5 32l182 -39q-18 -115 -87 -181.5t-158 -66.5q-57 0 -170.5 27t-163.5 27q-24 0 -41.5 -14t-25 -28 t-15.5 -36zM532 610h410l-172 508l-33 115h-4l-31 -117z" />
<glyph unicode="&#xc4;" horiz-adv-x="1503" d="M14 0l553 1491h371l551 -1491h-330l-137 381h-571l-136 -381h-301zM365 1749q0 147 145 147q147 0 147 -147q0 -66 -35.5 -105.5t-111.5 -39.5q-72 0 -108.5 40t-36.5 105zM532 610h410l-172 508l-33 115h-4l-31 -117zM844 1749q0 147 145 147q148 0 148 -147 q0 -66 -36 -105.5t-112 -39.5q-72 0 -108.5 40t-36.5 105z" />
<glyph unicode="&#xc5;" horiz-adv-x="1503" d="M14 0l553 1491h371l551 -1491h-330l-137 381h-571l-136 -381h-301zM532 610h410l-172 508l-33 115h-4l-31 -117zM543 1772q0 87 60.5 150t158.5 63q103 0 159 -59t56 -144q0 -87 -62 -147t-157 -60q-103 0 -159 58t-56 139zM662 1778q0 -49 25 -80t75 -31q51 0 75.5 30.5 t24.5 78.5q0 49 -23 81.5t-77 32.5q-51 0 -75.5 -30t-24.5 -82z" />
<glyph unicode="&#xc6;" horiz-adv-x="1959" d="M-6 0l682 1485h1165v-234h-694l57 -370h516v-234h-481l61 -411h564v-236h-842l-57 360h-500l-168 -360h-303zM559 578h375l-96 639h-4z" />
<glyph unicode="&#xc7;" horiz-adv-x="1286" d="M82 709q0 384 172 591t534 207q281 0 453 -55l-49 -238q-67 17 -174.5 33.5t-202.5 16.5q-93 0 -163.5 -24.5t-116.5 -68t-75 -109t-40.5 -141.5t-11.5 -173q0 -275 96 -398t327 -123q181 0 353 43l28 -233q-145 -51 -366 -57l-23 -66q112 -8 175 -49.5t63 -112.5 q0 -96 -83 -151.5t-218 -55.5q-137 0 -215 23l20 123q85 -19 160 -19q131 0 131 76q0 69 -178 86l-8 8l57 138q-645 26 -645 729z" />
<glyph unicode="&#xc8;" horiz-adv-x="1265" d="M158 0v1485h1003v-234h-688v-372h553v-234h-553v-409h696v-236h-1011zM299 1784l135 209l404 -295l-80 -113z" />
<glyph unicode="&#xc9;" horiz-adv-x="1265" d="M158 0v1485h1003v-234h-688v-372h553v-234h-553v-409h696v-236h-1011zM557 1698l401 295l138 -209l-459 -199z" />
<glyph unicode="&#xca;" horiz-adv-x="1265" d="M158 0v1485h1003v-234h-688v-372h553v-234h-553v-409h696v-236h-1011zM334 1683l270 252h178l275 -252l-111 -114l-252 174l-252 -176z" />
<glyph unicode="&#xcb;" horiz-adv-x="1265" d="M158 0v1485h1003v-234h-688v-372h553v-234h-553v-409h696v-236h-1011zM279 1749q0 147 145 147q147 0 147 -147q0 -66 -35.5 -105.5t-111.5 -39.5q-72 0 -108.5 40t-36.5 105zM758 1749q0 147 145 147q148 0 148 -147q0 -66 -36 -105.5t-112 -39.5q-72 0 -108.5 40 t-36.5 105z" />
<glyph unicode="&#xcc;" horiz-adv-x="630" d="M-74 1784l135 209l404 -295l-80 -113zM158 0v1485h315v-1485h-315z" />
<glyph unicode="&#xcd;" horiz-adv-x="630" d="M158 0v1485h315v-1485h-315zM201 1698l401 295l137 -209l-458 -199z" />
<glyph unicode="&#xce;" horiz-adv-x="630" d="M-45 1683l270 252h178l275 -252l-111 -114l-252 174l-252 -176zM158 0v1485h315v-1485h-315z" />
<glyph unicode="&#xcf;" horiz-adv-x="630" d="M-70 1749q0 147 146 147q147 0 147 -147q0 -66 -35.5 -105.5t-111.5 -39.5q-72 0 -109 40t-37 105zM158 0v1485h315v-1485h-315zM410 1749q0 147 145 147q147 0 147 -147q0 -66 -35.5 -105.5t-111.5 -39.5q-72 0 -108.5 40t-36.5 105z" />
<glyph unicode="&#xd0;" horiz-adv-x="1597" d="M102 684v158h158v643h537q157 0 280.5 -37.5t205 -103t134.5 -159t76 -199.5t23 -230q0 -367 -190.5 -561.5t-520.5 -194.5h-545v684h-158zM575 225h216q111 0 190.5 35.5t125.5 105t66.5 160.5t20.5 213q0 123 -22 216t-70.5 163t-129.5 106t-194 36h-203v-418h310v-158 h-310v-459z" />
<glyph unicode="&#xd1;" horiz-adv-x="1540" d="M158 0v1485h360l533 -899l67 -125h6l-10 201v823h268v-1487h-309l-590 991l-57 111l-6 -2l8 -183v-915h-270zM379 1651q25 129 92 189.5t156 60.5q72 0 174 -24t149 -24q22 0 37 5t24.5 17t14 22t12.5 32l183 -39q-18 -115 -87.5 -181.5t-158.5 -66.5q-57 0 -170.5 27 t-163.5 27q-24 0 -41.5 -14t-25 -28t-15.5 -36z" />
<glyph unicode="&#xd2;" horiz-adv-x="1527" d="M82 729q0 383 171 580.5t517 197.5q144 0 259 -37.5t192 -103.5t128.5 -159t74 -200.5t22.5 -232.5q0 -188 -40 -333.5t-122 -249t-212 -157.5t-304 -54q-344 0 -515 192.5t-171 556.5zM408 733q0 -126 17.5 -217.5t58 -160.5t112 -103.5t174.5 -34.5q83 0 145.5 25.5 t101 69t62 109.5t32.5 137.5t9 162.5q0 134 -16.5 230t-56 171t-111.5 112.5t-178 37.5q-85 0 -148 -26.5t-101 -71.5t-61 -116t-31.5 -147.5t-8.5 -177.5zM410 1784l135 209l403 -295l-80 -113z" />
<glyph unicode="&#xd3;" horiz-adv-x="1527" d="M82 729q0 383 171 580.5t517 197.5q144 0 259 -37.5t192 -103.5t128.5 -159t74 -200.5t22.5 -232.5q0 -188 -40 -333.5t-122 -249t-212 -157.5t-304 -54q-344 0 -515 192.5t-171 556.5zM408 733q0 -126 17.5 -217.5t58 -160.5t112 -103.5t174.5 -34.5q83 0 145.5 25.5 t101 69t62 109.5t32.5 137.5t9 162.5q0 134 -16.5 230t-56 171t-111.5 112.5t-178 37.5q-85 0 -148 -26.5t-101 -71.5t-61 -116t-31.5 -147.5t-8.5 -177.5zM651 1698l402 295l137 -209l-459 -199z" />
<glyph unicode="&#xd4;" horiz-adv-x="1527" d="M82 729q0 383 171 580.5t517 197.5q144 0 259 -37.5t192 -103.5t128.5 -159t74 -200.5t22.5 -232.5q0 -188 -40 -333.5t-122 -249t-212 -157.5t-304 -54q-344 0 -515 192.5t-171 556.5zM406 1683l270 252h178l274 -252l-110 -114l-252 174l-252 -176zM408 733 q0 -126 17.5 -217.5t58 -160.5t112 -103.5t174.5 -34.5q83 0 145.5 25.5t101 69t62 109.5t32.5 137.5t9 162.5q0 134 -16.5 230t-56 171t-111.5 112.5t-178 37.5q-85 0 -148 -26.5t-101 -71.5t-61 -116t-31.5 -147.5t-8.5 -177.5z" />
<glyph unicode="&#xd5;" horiz-adv-x="1527" d="M82 729q0 383 171 580.5t517 197.5q144 0 259 -37.5t192 -103.5t128.5 -159t74 -200.5t22.5 -232.5q0 -188 -40 -333.5t-122 -249t-212 -157.5t-304 -54q-344 0 -515 192.5t-171 556.5zM342 1651q25 129 92 189.5t156 60.5q72 0 174 -24t149 -24q22 0 37 5t24.5 17t14 22 t12.5 32l183 -39q-18 -115 -87.5 -181.5t-158.5 -66.5q-57 0 -170.5 27t-163.5 27q-24 0 -41.5 -14t-25 -28t-15.5 -36zM408 733q0 -126 17.5 -217.5t58 -160.5t112 -103.5t174.5 -34.5q83 0 145.5 25.5t101 69t62 109.5t32.5 137.5t9 162.5q0 134 -16.5 230t-56 171 t-111.5 112.5t-178 37.5q-85 0 -148 -26.5t-101 -71.5t-61 -116t-31.5 -147.5t-8.5 -177.5z" />
<glyph unicode="&#xd6;" horiz-adv-x="1527" d="M82 729q0 383 171 580.5t517 197.5q144 0 259 -37.5t192 -103.5t128.5 -159t74 -200.5t22.5 -232.5q0 -188 -40 -333.5t-122 -249t-212 -157.5t-304 -54q-344 0 -515 192.5t-171 556.5zM377 1749q0 147 145 147q148 0 148 -147q0 -66 -36 -105.5t-112 -39.5 q-72 0 -108.5 40t-36.5 105zM408 733q0 -126 17.5 -217.5t58 -160.5t112 -103.5t174.5 -34.5q83 0 145.5 25.5t101 69t62 109.5t32.5 137.5t9 162.5q0 134 -16.5 230t-56 171t-111.5 112.5t-178 37.5q-85 0 -148 -26.5t-101 -71.5t-61 -116t-31.5 -147.5t-8.5 -177.5z M856 1749q0 147 145 147q148 0 148 -147q0 -66 -36 -105.5t-112 -39.5q-72 0 -108.5 40t-36.5 105z" />
<glyph unicode="&#xd7;" d="M143 999l154 154l315 -319l306 315l149 -154l-307 -313l315 -322l-151 -153l-318 319l-311 -319l-150 151l314 320z" />
<glyph unicode="&#xd8;" horiz-adv-x="1527" d="M82 729q0 383 171 580.5t517 197.5q130 0 242 -32l71 165l125 -41l-75 -176q160 -87 236.5 -256t76.5 -393q0 -188 -40 -333.5t-122 -249t-212 -157.5t-304 -54q-131 0 -240 28l-69 -162l-127 39l71 170q-321 167 -321 674zM408 733q0 -300 106 -420l399 930 q-69 29 -155 29q-85 0 -148 -26.5t-101 -71.5t-61 -116t-31.5 -147.5t-8.5 -177.5zM627 238q61 -21 143 -21q83 0 145.5 25.5t101 69t62 109.5t32.5 137.5t9 162.5q0 314 -100 440z" />
<glyph unicode="&#xd9;" horiz-adv-x="1476" d="M143 465v1020h316v-983q0 -147 77.5 -211t223.5 -64q128 3 203 69t75 196v993h295v-991q0 -113 -34.5 -203.5t-91 -148t-135 -95.5t-161.5 -54t-174 -16q-127 0 -230.5 25t-187 80t-130 152t-46.5 231zM375 1784l135 209l403 -295l-79 -113z" />
<glyph unicode="&#xda;" horiz-adv-x="1476" d="M143 465v1020h316v-983q0 -147 77.5 -211t223.5 -64q128 3 203 69t75 196v993h295v-991q0 -113 -34.5 -203.5t-91 -148t-135 -95.5t-161.5 -54t-174 -16q-127 0 -230.5 25t-187 80t-130 152t-46.5 231zM666 1698l401 295l137 -209l-459 -199z" />
<glyph unicode="&#xdb;" horiz-adv-x="1476" d="M143 465v1020h316v-983q0 -147 77.5 -211t223.5 -64q128 3 203 69t75 196v993h295v-991q0 -113 -34.5 -203.5t-91 -148t-135 -95.5t-161.5 -54t-174 -16q-127 0 -230.5 25t-187 80t-130 152t-46.5 231zM414 1683l270 252h178l275 -252l-111 -114l-252 174l-252 -176z" />
<glyph unicode="&#xdc;" horiz-adv-x="1476" d="M143 465v1020h316v-983q0 -147 77.5 -211t223.5 -64q128 3 203 69t75 196v993h295v-991q0 -113 -34.5 -203.5t-91 -148t-135 -95.5t-161.5 -54t-174 -16q-127 0 -230.5 25t-187 80t-130 152t-46.5 231zM369 1749q0 147 145 147q148 0 148 -147q0 -66 -36 -105.5 t-112 -39.5q-72 0 -108.5 40t-36.5 105zM848 1749q0 147 145 147q148 0 148 -147q0 -66 -36 -105.5t-112 -39.5q-72 0 -108.5 40t-36.5 105z" />
<glyph unicode="&#xdd;" horiz-adv-x="1271" d="M4 1485h344l307 -613h2l310 613h299l-473 -862v-623h-318v621zM575 1698l402 295l137 -209l-459 -199z" />
<glyph unicode="&#xde;" horiz-adv-x="1329" d="M158 0v1485h315v-258h203q90 0 167 -11.5t154 -42.5t130 -80.5t86.5 -131.5t33.5 -189q0 -228 -146 -346.5t-411 -118.5h-217v-307h-315zM473 528h209q131 0 193.5 55t62.5 183t-70 180.5t-211 52.5h-184v-471z" />
<glyph unicode="&#xdf;" horiz-adv-x="1540" d="M61 856v205h168q21 216 192 348.5t445 132.5q231 0 354 -85t123 -224q0 -82 -37 -148t-95 -112t-156 -101l-88 -55q-70 -43 -70 -80q0 -22 20.5 -36.5t39.5 -19.5t61 -12q11 -2 16 -3l131 -25q147 -26 225 -98.5t78 -202.5q0 -96 -34 -168t-95 -115t-139.5 -63.5 t-173.5 -20.5q-256 0 -405 47l41 201q221 -43 329 -43q199 0 199 121q0 52 -30.5 77t-108.5 40l-125 22q-64 12 -111.5 29t-89.5 45t-64 71.5t-22 102.5q0 45 16 86t49 78.5t62.5 63.5t77.5 63l44 33t44.5 34.5t35 31.5t32 35.5t18 35t8.5 41.5q0 65 -54.5 105t-166.5 40 q-58 0 -109 -18t-94.5 -56t-68.5 -105.5t-25 -158.5v-995h-285v856h-162z" />
<glyph unicode="&#xe0;" horiz-adv-x="1163" d="M78 274q0 69 23.5 124.5t59 91.5t92.5 62t110 40t125.5 21.5t124.5 9.5t122 2v110q0 34 -11.5 59t-28.5 39t-44.5 22t-52.5 10.5t-59 2.5q-91 0 -168 -18t-170 -51l-66 198q207 84 481 84q87 0 157.5 -17.5t126.5 -54.5t87 -100.5t31 -150.5v-414q0 -136 10 -344h-262 l-14 123q-54 -68 -139.5 -108t-174.5 -40q-166 0 -263 74.5t-97 224.5zM248 1497l254 68l215 -357l-178 -26zM362 313q0 -84 44.5 -118.5t128.5 -34.5q50 0 109 27t91 69v211q-58 0 -91.5 -1t-84 -5t-80 -14t-59.5 -26.5t-44 -43.5t-14 -64z" />
<glyph unicode="&#xe1;" horiz-adv-x="1163" d="M78 274q0 69 23.5 124.5t59 91.5t92.5 62t110 40t125.5 21.5t124.5 9.5t122 2v110q0 34 -11.5 59t-28.5 39t-44.5 22t-52.5 10.5t-59 2.5q-91 0 -168 -18t-170 -51l-66 198q207 84 481 84q87 0 157.5 -17.5t126.5 -54.5t87 -100.5t31 -150.5v-414q0 -136 10 -344h-262 l-14 123q-54 -68 -139.5 -108t-174.5 -40q-166 0 -263 74.5t-97 224.5zM362 313q0 -84 44.5 -118.5t128.5 -34.5q50 0 109 27t91 69v211q-58 0 -91.5 -1t-84 -5t-80 -14t-59.5 -26.5t-44 -43.5t-14 -64zM451 1208l215 357l254 -68l-291 -315z" />
<glyph unicode="&#xe2;" horiz-adv-x="1163" d="M78 274q0 69 23.5 124.5t59 91.5t92.5 62t110 40t125.5 21.5t124.5 9.5t122 2v110q0 34 -11.5 59t-28.5 39t-44.5 22t-52.5 10.5t-59 2.5q-91 0 -168 -18t-170 -51l-66 198q207 84 481 84q87 0 157.5 -17.5t126.5 -54.5t87 -100.5t31 -150.5v-414q0 -136 10 -344h-262 l-14 123q-54 -68 -139.5 -108t-174.5 -40q-166 0 -263 74.5t-97 224.5zM250 1253l223 289h203l225 -289l-131 -79l-197 196l-192 -196zM362 313q0 -84 44.5 -118.5t128.5 -34.5q50 0 109 27t91 69v211q-58 0 -91.5 -1t-84 -5t-80 -14t-59.5 -26.5t-44 -43.5t-14 -64z" />
<glyph unicode="&#xe3;" horiz-adv-x="1163" d="M78 274q0 69 23.5 124.5t59 91.5t92.5 62t110 40t125.5 21.5t124.5 9.5t122 2v110q0 34 -11.5 59t-28.5 39t-44.5 22t-52.5 10.5t-59 2.5q-91 0 -168 -18t-170 -51l-66 198q207 84 481 84q87 0 157.5 -17.5t126.5 -54.5t87 -100.5t31 -150.5v-414q0 -136 10 -344h-262 l-14 123q-54 -68 -139.5 -108t-174.5 -40q-166 0 -263 74.5t-97 224.5zM174 1225q25 126 91 185.5t153 59.5q69 0 163 -23.5t140 -23.5q40 0 56.5 17.5t29.5 56.5l178 -37q-18 -113 -86 -177t-156 -64q-56 0 -160 25.5t-153 25.5q-24 0 -41 -13.5t-24 -27t-15 -35.5z M362 313q0 -84 44.5 -118.5t128.5 -34.5q50 0 109 27t91 69v211q-58 0 -91.5 -1t-84 -5t-80 -14t-59.5 -26.5t-44 -43.5t-14 -64z" />
<glyph unicode="&#xe4;" horiz-adv-x="1163" d="M78 274q0 69 23.5 124.5t59 91.5t92.5 62t110 40t125.5 21.5t124.5 9.5t122 2v110q0 34 -11.5 59t-28.5 39t-44.5 22t-52.5 10.5t-59 2.5q-91 0 -168 -18t-170 -51l-66 198q207 84 481 84q87 0 157.5 -17.5t126.5 -54.5t87 -100.5t31 -150.5v-414q0 -136 10 -344h-262 l-14 123q-54 -68 -139.5 -108t-174.5 -40q-166 0 -263 74.5t-97 224.5zM195 1362q0 147 145 147q147 0 147 -147q0 -66 -35.5 -105.5t-111.5 -39.5q-72 0 -108.5 40t-36.5 105zM362 313q0 -84 44.5 -118.5t128.5 -34.5q50 0 109 27t91 69v211q-58 0 -91.5 -1t-84 -5t-80 -14 t-59.5 -26.5t-44 -43.5t-14 -64zM668 1362q0 147 145 147q148 0 148 -147q0 -66 -36 -105.5t-112 -39.5q-72 0 -108.5 40t-36.5 105z" />
<glyph unicode="&#xe5;" horiz-adv-x="1163" d="M78 274q0 69 23.5 124.5t59 91.5t92.5 62t110 40t125.5 21.5t124.5 9.5t122 2v110q0 34 -11.5 59t-28.5 39t-44.5 22t-52.5 10.5t-59 2.5q-91 0 -168 -18t-170 -51l-66 198q207 84 481 84q87 0 157.5 -17.5t126.5 -54.5t87 -100.5t31 -150.5v-414q0 -136 10 -344h-262 l-14 123q-54 -68 -139.5 -108t-174.5 -40q-166 0 -263 74.5t-97 224.5zM348 1374q0 87 60.5 150t158.5 63q103 0 159 -59t56 -144q0 -87 -61.5 -146.5t-157.5 -59.5q-103 0 -159 57.5t-56 138.5zM362 313q0 -84 44.5 -118.5t128.5 -34.5q50 0 109 27t91 69v211 q-58 0 -91.5 -1t-84 -5t-80 -14t-59.5 -26.5t-44 -43.5t-14 -64zM467 1380q0 -49 25 -79.5t75 -30.5q51 0 76 30t25 78q0 49 -23.5 82t-77.5 33q-50 0 -75 -30.5t-25 -82.5z" />
<glyph unicode="&#xe6;" horiz-adv-x="1773" d="M78 274q0 69 23.5 124.5t59 91.5t92.5 62t110 40t125.5 21.5t124.5 9.5t122 2v110q0 34 -11.5 59t-28.5 39t-44.5 22t-52.5 10.5t-59 2.5q-91 0 -168 -18t-170 -51l-66 198q207 84 481 84q222 0 302 -100q128 100 319 100q218 0 336.5 -105.5t118.5 -324.5 q0 -99 -15 -174h-657q0 -153 76 -220t235 -67q144 0 305 37l29 -192q-167 -55 -371 -55q-342 0 -467 172q-49 -64 -124.5 -106t-140 -56.5t-124.5 -14.5q-166 0 -263 74.5t-97 224.5zM362 313q0 -84 44.5 -118.5t128.5 -34.5q55 0 127 26t108 76q-32 92 -35 205 q-56 0 -90.5 -1t-84 -5.5t-80 -14.5t-60.5 -26.5t-44 -43.5t-14 -63zM1024 645h401q5 119 -42 185.5t-152 66.5q-201 0 -207 -252z" />
<glyph unicode="&#xe7;" horiz-adv-x="1007" d="M82 512q0 271 136 420t405 149q192 0 323 -49l-43 -211q-144 43 -266 43q-79 0 -131.5 -20.5t-81.5 -64t-41 -100.5t-12 -140q0 -181 65 -259.5t223 -78.5q114 0 252 35l31 -205q-121 -43 -278 -49l-23 -68q112 -8 175 -49.5t63 -112.5q0 -96 -83 -151.5t-218 -55.5 q-138 0 -216 23l21 123q85 -19 160 -19q131 0 131 76q0 69 -178 86l-9 8l58 140q-232 15 -347.5 146t-115.5 384z" />
<glyph unicode="&#xe8;" horiz-adv-x="1118" d="M82 518q0 265 123.5 414t380.5 149q218 0 336 -105.5t118 -324.5q0 -34 -14 -174h-657q-1 -153 75 -220t234 -67q144 0 305 37l29 -192q-163 -55 -371 -55q-291 0 -425 126t-134 412zM250 1497l254 68l215 -357l-178 -26zM371 645h401q5 119 -42 185.5t-152 66.5 q-201 0 -207 -252z" />
<glyph unicode="&#xe9;" horiz-adv-x="1118" d="M82 518q0 265 123.5 414t380.5 149q218 0 336 -105.5t118 -324.5q0 -34 -14 -174h-657q-1 -153 75 -220t234 -67q144 0 305 37l29 -192q-163 -55 -371 -55q-291 0 -425 126t-134 412zM371 645h401q5 119 -42 185.5t-152 66.5q-201 0 -207 -252zM508 1204l215 357l254 -68 l-291 -315z" />
<glyph unicode="&#xea;" horiz-adv-x="1118" d="M82 518q0 265 123.5 414t380.5 149q218 0 336 -105.5t118 -324.5q0 -34 -14 -174h-657q-1 -153 75 -220t234 -67q144 0 305 37l29 -192q-163 -55 -371 -55q-291 0 -425 126t-134 412zM260 1253l223 289h203l225 -289l-131 -79l-196 196l-193 -196zM371 645h401 q5 119 -42 185.5t-152 66.5q-201 0 -207 -252z" />
<glyph unicode="&#xeb;" horiz-adv-x="1118" d="M82 518q0 265 123.5 414t380.5 149q218 0 336 -105.5t118 -324.5q0 -34 -14 -174h-657q-1 -153 75 -220t234 -67q144 0 305 37l29 -192q-163 -55 -371 -55q-291 0 -425 126t-134 412zM203 1362q0 147 145 147q148 0 148 -147q0 -66 -36 -105.5t-112 -39.5 q-72 0 -108.5 40t-36.5 105zM371 645h401q5 119 -42 185.5t-152 66.5q-201 0 -207 -252zM676 1362q0 147 145 147q148 0 148 -147q0 -66 -36 -105.5t-112 -39.5q-72 0 -108.5 40t-36.5 105z" />
<glyph unicode="&#xec;" horiz-adv-x="589" d="M-59 1497l254 68l215 -357l-179 -26zM154 0v1059h282v-1059h-282z" />
<glyph unicode="&#xed;" horiz-adv-x="589" d="M154 0v1059h282v-1059h-282zM201 1208l215 357l254 -68l-291 -315z" />
<glyph unicode="&#xee;" horiz-adv-x="589" d="M-31 1253l224 289h202l226 -289l-132 -79l-196 196l-193 -196zM154 0v1059h282v-1059h-282z" />
<glyph unicode="&#xef;" horiz-adv-x="589" d="M-86 1362q0 147 145 147q148 0 148 -147q0 -66 -36 -105.5t-112 -39.5q-72 0 -108.5 40t-36.5 105zM154 0v1059h282v-1059h-282zM387 1362q0 147 145 147q148 0 148 -147q0 -66 -36 -105.5t-112 -39.5q-72 0 -108.5 40t-36.5 105z" />
<glyph unicode="&#xf0;" horiz-adv-x="1185" d="M82 512q0 113 24.5 207t75.5 171t137.5 124t202.5 57l-114 135l-269 -76l-47 134l217 61l-133 160l316 49l104 -127l289 82l49 -133l-242 -68l252 -307q84 -99 122 -207t38 -252q0 -93 -17.5 -172.5t-56.5 -148.5t-98 -117.5t-146.5 -76t-197.5 -27.5q-135 0 -233.5 38.5 t-157.5 110t-87 167t-28 216.5zM381 524q0 -199 51.5 -276.5t161.5 -77.5q116 0 164.5 81t48.5 275q0 197 -46 281t-169 84q-63 0 -105.5 -26.5t-65 -78t-31.5 -114t-9 -148.5z" />
<glyph unicode="&#xf1;" horiz-adv-x="1245" d="M154 0v1059h262l8 -119q73 62 173 101.5t198 39.5q143 0 227 -66t84 -194v-821h-285v741q0 67 -41 99t-110 32q-111 0 -234 -69v-803h-282zM244 1225q25 126 91 185.5t152 59.5q69 0 163.5 -23.5t140.5 -23.5q40 0 56.5 17.5t29.5 56.5l178 -37q-18 -113 -86 -177 t-156 -64q-56 0 -160 25.5t-153 25.5q-24 0 -41 -13.5t-24 -27t-15 -35.5z" />
<glyph unicode="&#xf2;" horiz-adv-x="1185" d="M82 512q0 275 127 422t383 147q512 0 512 -530q0 -571 -512 -571q-260 0 -385 130.5t-125 401.5zM264 1497l254 68l215 -357l-178 -26zM379 524q0 -199 51.5 -276.5t161.5 -77.5q116 0 164.5 81t48.5 275q0 197 -46 281t-169 84q-63 0 -105.5 -26.5t-65 -78t-31.5 -114 t-9 -148.5z" />
<glyph unicode="&#xf3;" horiz-adv-x="1185" d="M82 512q0 275 127 422t383 147q512 0 512 -530q0 -571 -512 -571q-260 0 -385 130.5t-125 401.5zM379 524q0 -199 51.5 -276.5t161.5 -77.5q116 0 164.5 81t48.5 275q0 197 -46 281t-169 84q-63 0 -105.5 -26.5t-65 -78t-31.5 -114t-9 -148.5zM494 1208l215 357l254 -68 l-291 -315z" />
<glyph unicode="&#xf4;" horiz-adv-x="1185" d="M82 512q0 275 127 422t383 147q512 0 512 -530q0 -571 -512 -571q-260 0 -385 130.5t-125 401.5zM264 1253l223 289h203l225 -289l-131 -79l-196 196l-193 -196zM379 524q0 -199 51.5 -276.5t161.5 -77.5q116 0 164.5 81t48.5 275q0 197 -46 281t-169 84 q-63 0 -105.5 -26.5t-65 -78t-31.5 -114t-9 -148.5z" />
<glyph unicode="&#xf5;" horiz-adv-x="1185" d="M82 512q0 275 127 422t383 147q512 0 512 -530q0 -571 -512 -571q-260 0 -385 130.5t-125 401.5zM188 1225q25 126 91 185.5t153 59.5q69 0 163 -23.5t140 -23.5q40 0 56.5 17.5t29.5 56.5l178 -37q-18 -113 -85.5 -177t-155.5 -64q-56 0 -160.5 25.5t-153.5 25.5 q-24 0 -41 -13.5t-23.5 -26.5t-14.5 -36zM379 524q0 -199 51.5 -276.5t161.5 -77.5q116 0 164.5 81t48.5 275q0 197 -46 281t-169 84q-63 0 -105.5 -26.5t-65 -78t-31.5 -114t-9 -148.5z" />
<glyph unicode="&#xf6;" horiz-adv-x="1185" d="M82 512q0 275 127 422t383 147q512 0 512 -530q0 -571 -512 -571q-260 0 -385 130.5t-125 401.5zM209 1362q0 147 145 147q148 0 148 -147q0 -66 -36 -105.5t-112 -39.5q-72 0 -108.5 40t-36.5 105zM379 524q0 -199 51.5 -276.5t161.5 -77.5q116 0 164.5 81t48.5 275 q0 197 -46 281t-169 84q-63 0 -105.5 -26.5t-65 -78t-31.5 -114t-9 -148.5zM682 1362q0 147 145 147q148 0 148 -147q0 -66 -36 -105.5t-112 -39.5q-72 0 -108.5 40t-36.5 105z" />
<glyph unicode="&#xf7;" d="M92 567v213h1032v-213h-1032zM451 256q0 158 157 158q158 0 158 -158q0 -71 -38 -113.5t-120 -42.5q-78 0 -117.5 43t-39.5 113zM451 1079q0 158 157 158q158 0 158 -158q0 -71 -38 -113t-120 -42q-78 0 -117.5 42.5t-39.5 112.5z" />
<glyph unicode="&#xf8;" horiz-adv-x="1185" d="M82 512q0 275 127 422t383 147q110 0 192 -24l76 153l105 -39l-78 -155q217 -120 217 -465q0 -571 -512 -571q-113 0 -201 24l-74 -154l-104 39l76 156q-207 119 -207 467zM379 524q0 -151 31 -233l282 579q-47 21 -102 21q-63 0 -105.5 -26.5t-65 -78t-31.5 -114 t-9 -148.5zM485 193q42 -23 107 -23q116 0 164.5 81t48.5 275q0 167 -33 252z" />
<glyph unicode="&#xf9;" horiz-adv-x="1249" d="M143 240v819h285v-740q0 -67 41 -99t109 -32q114 0 233 70v801h285v-1057l-262 -6l-9 125q-73 -62 -172.5 -101.5t-197.5 -39.5q-143 0 -227.5 66t-84.5 194zM309 1497l254 68l215 -357l-178 -26z" />
<glyph unicode="&#xfa;" horiz-adv-x="1249" d="M143 240v819h285v-740q0 -67 41 -99t109 -32q114 0 233 70v801h285v-1057l-262 -6l-9 125q-73 -62 -172.5 -101.5t-197.5 -39.5q-143 0 -227.5 66t-84.5 194zM537 1208l215 357l254 -68l-291 -315z" />
<glyph unicode="&#xfb;" horiz-adv-x="1249" d="M143 240v819h285v-740q0 -67 41 -99t109 -32q114 0 233 70v801h285v-1057l-262 -6l-9 125q-73 -62 -172.5 -101.5t-197.5 -39.5q-143 0 -227.5 66t-84.5 194zM307 1253l223 289h203l225 -289l-131 -79l-196 196l-193 -196z" />
<glyph unicode="&#xfc;" horiz-adv-x="1249" d="M143 240v819h285v-740q0 -67 41 -99t109 -32q114 0 233 70v801h285v-1057l-262 -6l-9 125q-73 -62 -172.5 -101.5t-197.5 -39.5q-143 0 -227.5 66t-84.5 194zM240 1362q0 147 145 147q147 0 147 -147q0 -66 -35.5 -105.5t-111.5 -39.5q-72 0 -108.5 40t-36.5 105z M713 1362q0 147 145 147q148 0 148 -147q0 -66 -36 -105.5t-112 -39.5q-72 0 -108.5 40t-36.5 105z" />
<glyph unicode="&#xfd;" horiz-adv-x="1075" d="M16 1061h293l232 -653l22 -89h4l19 89l209 653h266l-356 -987q-93 -264 -207.5 -377t-302.5 -113q-59 0 -125 15l20 235q63 -8 105 -8q146 0 194 131l27 68zM451 1208l215 357l254 -68l-291 -315z" />
<glyph unicode="&#xfe;" horiz-adv-x="1218" d="M154 -389v1894h282v-538q133 114 287 114q414 0 414 -522q0 -167 -58 -297t-174 -206t-274 -76q-114 0 -195 24v-389zM436 199q66 -19 160 -19q69 0 119 29.5t76.5 81t38.5 109t12 124.5q0 82 -10.5 142.5t-35 109t-70.5 73.5t-112 25q-87 0 -178 -57v-618z" />
<glyph unicode="&#xff;" horiz-adv-x="1075" d="M16 1061h293l232 -653l22 -89h4l19 89l209 653h266l-356 -987q-93 -264 -207.5 -377t-302.5 -113q-59 0 -125 15l20 235q63 -8 105 -8q146 0 194 131l27 68zM190 1362q0 147 146 147q147 0 147 -147q0 -66 -35.5 -105.5t-111.5 -39.5q-72 0 -109 40t-37 105zM664 1362 q0 147 145 147q147 0 147 -147q0 -66 -35.5 -105.5t-111.5 -39.5q-72 0 -108.5 40t-36.5 105z" />
<glyph unicode="&#x152;" horiz-adv-x="2232" d="M82 729q0 386 163.5 582t506.5 196q114 0 210.5 -32.5t161.5 -88.5v99h1004v-234h-690v-372h555v-234h-555v-409h696v-236h-1010v106q-65 -60 -162.5 -93t-213.5 -33q-666 0 -666 749zM408 733q0 -126 17.5 -217.5t58 -160.5t112 -103.5t174.5 -34.5q83 0 145.5 25.5 t101 69t62 109.5t32.5 137.5t9 162.5q0 134 -16.5 230t-56 171t-111.5 112.5t-178 37.5q-85 0 -148 -26.5t-101 -71.5t-61 -116t-31.5 -147.5t-8.5 -177.5z" />
<glyph unicode="&#x153;" horiz-adv-x="1867" d="M82 512q0 275 127 422t383 147q250 0 379 -129q129 129 362 129q218 0 336.5 -105.5t118.5 -324.5q0 -34 -14 -174h-658q-1 -153 75 -220t234 -67q145 0 306 37l28 -192q-163 -55 -370 -55q-294 0 -426 126q-129 -126 -371 -126q-260 0 -385 130.5t-125 401.5zM379 524 q0 -199 51.5 -276.5t161.5 -77.5q116 0 164.5 81t48.5 275q0 197 -46 281t-169 84q-63 0 -105.5 -26.5t-65 -78t-31.5 -114t-9 -148.5zM1118 645h402q5 119 -42.5 185.5t-152.5 66.5q-201 0 -207 -252z" />
<glyph unicode="&#x178;" horiz-adv-x="1271" d="M4 1485h344l307 -613h2l310 613h299l-473 -862v-623h-318v621zM279 1749q0 147 145 147q147 0 147 -147q0 -66 -35.5 -105.5t-111.5 -39.5q-72 0 -108.5 40t-36.5 105zM758 1749q0 147 145 147q148 0 148 -147q0 -66 -36 -105.5t-112 -39.5q-72 0 -108.5 40t-36.5 105z " />
<glyph unicode="&#x2c6;" horiz-adv-x="802" d="M76 1253l223 289h203l225 -289l-131 -79l-197 196l-192 -196z" />
<glyph unicode="&#x2dc;" horiz-adv-x="937" d="M63 1225q25 126 91 185.5t153 59.5q69 0 163 -23.5t140 -23.5q40 0 56.5 17.5t29.5 56.5l178 -37q-18 -113 -85.5 -177t-155.5 -64q-56 0 -160.5 25.5t-153.5 25.5q-24 0 -41 -13.5t-23.5 -26.5t-14.5 -36z" />
<glyph unicode="&#x2000;" horiz-adv-x="996" />
<glyph unicode="&#x2001;" horiz-adv-x="1993" />
<glyph unicode="&#x2002;" horiz-adv-x="996" />
<glyph unicode="&#x2003;" horiz-adv-x="1993" />
<glyph unicode="&#x2004;" horiz-adv-x="664" />
<glyph unicode="&#x2005;" horiz-adv-x="498" />
<glyph unicode="&#x2006;" horiz-adv-x="332" />
<glyph unicode="&#x2007;" horiz-adv-x="332" />
<glyph unicode="&#x2008;" horiz-adv-x="249" />
<glyph unicode="&#x2009;" horiz-adv-x="398" />
<glyph unicode="&#x200a;" horiz-adv-x="110" />
<glyph unicode="&#x2010;" horiz-adv-x="735" d="M76 518v219h583v-219h-583z" />
<glyph unicode="&#x2011;" horiz-adv-x="735" d="M76 518v219h583v-219h-583z" />
<glyph unicode="&#x2012;" horiz-adv-x="735" d="M76 518v219h583v-219h-583z" />
<glyph unicode="&#x2013;" horiz-adv-x="987" d="M0 561v148h987v-148h-987z" />
<glyph unicode="&#x2014;" horiz-adv-x="1863" d="M0 561v148h1864v-148h-1864z" />
<glyph unicode="&#x2018;" horiz-adv-x="532" d="M127 989v176l111 320h163l-32 -281l34 -215h-276z" />
<glyph unicode="&#x2019;" horiz-adv-x="532" d="M129 1485h277v-176l-111 -320h-164l33 281z" />
<glyph unicode="&#x201a;" horiz-adv-x="538" d="M133 -225l41 268l-35 227h275v-190l-117 -305h-164z" />
<glyph unicode="&#x201c;" horiz-adv-x="942" d="M127 1165l111 320h163l-32 -281l34 -215h-274zM537 1165l112 320h164l-33 -281l33 -215h-274z" />
<glyph unicode="&#x201d;" horiz-adv-x="942" d="M129 1485h277v-176l-111 -320h-164l33 281zM539 1485h276v-176l-110 -320h-164l32 281z" />
<glyph unicode="&#x201e;" horiz-adv-x="942" d="M133 -225l41 268l-35 227h275v-190l-117 -305h-164zM543 -225l41 268l-35 227h274l2 -190l-118 -305h-164z" />
<glyph unicode="&#x2022;" horiz-adv-x="923" d="M127 719q0 148 86.5 240t245.5 92q160 0 249 -96t89 -236q0 -142 -92 -237t-246 -95q-152 0 -242 94.5t-90 237.5z" />
<glyph unicode="&#x2026;" horiz-adv-x="1701" d="M127 139q0 158 156 158q157 0 157 -158q0 -72 -37.5 -114.5t-119.5 -42.5q-78 0 -117 43t-39 114zM694 139q0 158 156 158q158 0 158 -158q0 -72 -38 -114.5t-120 -42.5q-78 0 -117 43t-39 114zM1262 139q0 158 155 158q158 0 158 -158q0 -72 -38 -114.5t-120 -42.5 q-78 0 -116.5 43t-38.5 114z" />
<glyph unicode="&#x202f;" horiz-adv-x="398" />
<glyph unicode="&#x2039;" horiz-adv-x="681" d="M76 584v149l407 332l123 -123l-260 -280l262 -306l-123 -114z" />
<glyph unicode="&#x203a;" horiz-adv-x="681" d="M76 356l260 306l-258 282l123 121l407 -334v-149l-409 -340z" />
<glyph unicode="&#x205f;" horiz-adv-x="498" />
<glyph unicode="&#x20ac;" horiz-adv-x="1396" d="M55 518v139h135v52q0 62 7 141h-142v139h162q114 518 682 518q280 0 453 -57l-49 -238q-67 17 -174.5 33.5t-202.5 16.5q-163 0 -254.5 -70t-126.5 -203h547v-139h-570q-4 -33 -4 -102q0 -62 2 -91h572v-139h-553q34 -152 129.5 -221.5t273.5 -69.5q180 0 352 43l29 -231 q-180 -59 -430 -59q-604 0 -690 538h-148z" />
<glyph unicode="&#x2122;" horiz-adv-x="1286" d="M53 1384v101h457v-101h-158v-471h-139v471h-160zM571 913v572h201l96 -363q0 -2 4.5 -21t4.5 -26h4l8 47q4 29 47 184t47 179h203v-572h-129v426q0 6 1 26t1 26h-2q-8 -38 -64.5 -237.5t-64.5 -240.5h-119q-8 41 -63.5 240.5t-63.5 237.5h-4l2 -52v-426h-109z" />
<glyph unicode="&#x25fc;" horiz-adv-x="1064" d="M0 0v1065h1065v-1065h-1065z" />
<glyph unicode="&#xfb01;" horiz-adv-x="1300" d="M61 856v205h162v135q0 164 87 251t261 87q120 0 220 -27l-43 -209q-79 21 -144 21q-96 0 -96 -96v-162h215v-205h-215v-856h-285v856h-162zM846 1362q0 158 158 158q157 0 157 -158q0 -71 -37.5 -113.5t-119.5 -42.5q-78 0 -118 43t-40 113zM862 0v1059h283v-1059h-283z " />
<glyph unicode="&#xfb02;" horiz-adv-x="1306" d="M61 856v205h162v135q0 164 87 251t261 87q120 0 220 -27l-43 -209q-79 21 -144 21q-96 0 -96 -96v-162h215v-205h-215v-856h-285v856h-162zM868 0v1505h283v-1505h-283z" />
</font>
</defs>
</svg>
